<svg width="69" height="70" viewBox="0 0 69 70" fill="none" xmlns="http://www.w3.org/2000/svg">
<path d="M66.6416 4.77637H2.3584C1.05804 4.77637 0 5.84975 0 7.16895V15.5901C0 16.9159 2.02148 16.9159 2.02148 15.5901V7.16895C2.02148 6.98055 2.17256 6.82715 2.3584 6.82715H66.6416C66.8274 6.82715 66.9785 6.98055 66.9785 7.16895V57.1723C66.9785 57.3607 66.8274 57.5141 66.6416 57.5141H53.689V55.3805H63.8549C64.4133 55.3805 64.8657 54.9214 64.8657 54.3551V43.6174C64.8657 42.2916 62.8442 42.2916 62.8442 43.6174V53.3297H53.689V48.7801C53.7219 48.783 53.755 48.7859 53.7862 48.7887C54.6252 48.8635 55.6688 48.9566 56.3919 48.2218C57.1141 47.4877 57.0227 46.4279 56.9493 45.5763C56.8701 44.6623 56.9553 44.4121 57.6477 43.8282C59.4306 42.3243 59.4637 40.714 57.6477 39.1825C56.9553 38.5981 56.8706 38.3482 56.9493 37.4341C57.1471 35.1404 56.0911 34.0163 53.7862 34.2218C52.8866 34.3019 52.6426 34.2152 52.069 33.5126C50.5889 31.6997 49.0005 31.6662 47.4929 33.5126C46.9193 34.2151 46.6754 34.3022 45.7758 34.2218C43.5133 34.0201 42.4107 35.0974 42.6126 37.4341C42.6913 38.3483 42.6066 38.5981 41.9141 39.1825C40.1313 40.6862 40.0983 42.2968 41.9141 43.8282C42.6066 44.4125 42.6913 44.6624 42.6126 45.5765C42.4004 48.0332 43.5569 48.9832 45.8726 48.7803V53.33H6.15596V11.0114H62.8442V38.1486C62.8442 39.4744 64.8657 39.4744 64.8657 38.1486V9.98604C64.8657 9.41975 64.4133 8.96065 63.8549 8.96065H5.14522C4.58688 8.96065 4.13447 9.41975 4.13447 9.98604V54.3551C4.13447 54.9214 4.58688 55.3805 5.14522 55.3805H45.8726V57.5141H2.3584C2.17256 57.5141 2.02148 57.3607 2.02148 57.1723V20.7853C2.02148 19.4596 0 19.4596 0 20.7853V57.1723C0 58.4915 1.05804 59.5649 2.3584 59.5649H45.8726V64.2065C46.0165 65.0493 46.4956 65.3592 47.3096 65.1362L49.7808 63.9701L52.252 65.1362C52.8634 65.4247 53.689 64.9687 53.689 64.2065V59.5649H66.6416C67.942 59.5649 69 58.4915 69 57.1723V7.16895C69 5.84961 67.942 4.77637 66.6416 4.77637ZM45.5986 46.7456C44.5868 46.836 44.5378 46.781 44.6262 45.7551C44.762 44.1805 44.405 43.2617 43.2063 42.2508C42.3861 41.5589 42.3862 41.451 43.2063 40.7591C44.405 39.7482 44.7621 38.8295 44.6262 37.255C44.5378 36.2289 44.5868 36.1745 45.5986 36.2643C47.1509 36.4031 48.0553 36.0382 49.0494 34.8205C49.7288 33.9887 49.8327 33.9887 50.512 34.8205C51.5065 36.0382 52.4106 36.4026 53.9629 36.2643C54.9748 36.174 55.0237 36.2289 54.9353 37.2549C54.7995 38.8295 55.1565 39.7481 56.3552 40.759C57.1753 41.4509 57.1757 41.5591 56.3551 42.2508C55.1563 43.2619 54.7992 44.1802 54.9352 45.7548C55.024 46.7808 54.9747 46.8358 53.963 46.7456C53.3281 46.689 52.6079 46.6248 51.974 46.8919C51.3604 47.1504 50.929 47.6786 50.5119 48.1895C50.3154 48.4301 49.9568 48.8694 49.7805 48.948C49.6044 48.8694 49.2458 48.4301 49.0493 48.1895C48.6322 47.6787 48.2009 47.1504 47.5872 46.8919C46.9331 46.6896 46.2702 46.6408 45.5986 46.7456ZM50.2071 61.9096C49.9367 61.7821 49.6249 61.7821 49.3545 61.9096L47.8941 62.5988V49.973C48.3737 50.508 48.9655 51.0047 49.7808 51.0047C50.5961 51.0047 51.1879 50.5081 51.6675 49.9731V62.5988L50.2071 61.9096Z" fill="#F1DBCE"/>
<path d="M13.1091 19.5947H47.9524C49.2592 19.5947 49.2592 17.5439 47.9524 17.5439H13.1091C11.8022 17.5439 11.8022 19.5947 13.1091 19.5947Z" fill="#F1DBCE"/>
<path d="M56.9043 24.8062C56.9043 24.2399 56.4519 23.7808 55.8936 23.7808H13.109C11.8022 23.7808 11.8022 25.8315 13.109 25.8315H55.8937C56.4519 25.8315 56.9043 25.3724 56.9043 24.8062Z" fill="#F1DBCE"/>
<path d="M38.428 31.0427C38.428 30.4764 37.9756 30.0173 37.4172 30.0173H13.109C11.8022 30.0173 11.8022 32.0681 13.109 32.0681H37.4172C37.9754 32.0681 38.428 31.609 38.428 31.0427Z" fill="#F1DBCE"/>
<path d="M25.1528 45.3357C24.6017 45.3367 24.0505 45.3374 23.4995 45.3378C22.4393 45.3386 21.8556 45.0519 21.6391 43.9114C21.4414 42.8703 19.9611 43.0029 19.6898 43.9114C19.5697 44.3138 18.9633 45.4656 18.4335 45.3714C18.1528 45.3215 18.0302 44.8822 17.9264 44.6547C17.7244 44.2119 17.5772 43.7426 17.4512 43.2722C16.9192 41.2852 16.813 39.2105 16.4801 37.1859C16.2871 36.0119 14.5232 36.3439 14.4947 37.4585C14.4042 41.0093 13.8319 44.5113 12.5859 47.8395C12.1235 49.0744 14.0769 49.6085 14.5352 48.3847C15.0156 47.1015 15.397 45.7875 15.6929 44.4539C15.8517 44.9398 16.041 45.4164 16.2721 45.88C16.8624 47.0635 18.0663 47.7636 19.3544 47.2372C19.8141 47.0494 20.2334 46.721 20.5904 46.3213C21.5467 47.4401 22.9695 47.3894 24.2968 47.3877C26.2976 47.3851 28.2985 47.3804 30.2995 47.3748C31.6001 47.3711 31.6025 45.3203 30.2995 45.324C28.5839 45.3289 26.8684 45.3329 25.1528 45.3357Z" fill="#F1DBCE"/>
<path d="M49.7799 45.5101C51.9567 45.5101 53.7278 43.7135 53.7278 41.505C53.7278 39.2966 51.9567 37.5 49.7799 37.5C47.6031 37.5 45.832 39.2968 45.832 41.505C45.832 43.7133 47.603 45.5101 49.7799 45.5101ZM49.7799 39.5508C50.8421 39.5508 51.7063 40.4276 51.7063 41.505C51.7063 42.5825 50.8421 43.4593 49.7799 43.4593C48.7176 43.4593 47.8535 42.5827 47.8535 41.505C47.8535 40.4274 48.7176 39.5508 49.7799 39.5508Z" fill="#F1DBCE"/>
</svg>
