<svg width="58" height="60" viewBox="0 0 58 60" fill="none" xmlns="http://www.w3.org/2000/svg">
<g clip-path="url(#clip0)">
<path d="M55.2118 8.01506H54.1503C53.6811 8.01506 53.3007 8.40857 53.3007 8.89396C53.3007 9.37934 53.6811 9.77285 54.1503 9.77285H55.2118C55.8123 9.77285 56.3007 10.2783 56.3007 10.8994C56.3007 11.5205 55.8122 12.0259 55.2118 12.0259H47.5783L49.7562 9.77274H50.4132C50.8824 9.77274 51.2628 9.37923 51.2628 8.89384C51.2628 8.40845 50.8824 8.01494 50.4132 8.01494H50.2498V2.88627C50.2498 1.29581 48.9989 0.00195312 47.4616 0.00195312C45.9243 0.00195312 44.6734 1.29593 44.6734 2.88627V3.99134C44.3387 3.8438 43.9706 3.76212 43.5845 3.76212C42.0471 3.76212 40.7963 5.05598 40.7963 6.64643V7.7515C40.4615 7.60397 40.0935 7.52229 39.7073 7.52229C38.1699 7.52229 36.9192 8.81626 36.9192 10.4066V16.2743C35.807 15.8926 34.6407 15.6922 33.4576 15.6922C30.3973 15.6922 27.481 17.0153 25.3172 19.355C23.1533 17.0155 20.237 15.6922 17.1766 15.6922C10.7745 15.6922 5.56598 21.4158 5.56598 28.4512C5.56598 31.9498 7.39896 37.6109 12.5032 43.1617L10.6446 45.0843L5.37238 44.1405C4.31015 43.9502 3.30195 44.6202 3.02748 45.6987L0.0696116 57.3242C-0.119113 58.0659 0.0812795 58.8324 0.605428 59.3748C0.99987 59.7827 1.51688 60.001 2.05406 60.001C2.231 60.001 2.4101 59.9774 2.58761 59.929L13.8254 56.869C14.868 56.5852 15.5155 55.5424 15.3318 54.4433L14.4185 48.9835L16.4762 46.8549C18.2677 48.2814 20.2275 49.5663 22.3093 50.6732C23.0126 51.0471 23.7394 51.4059 24.4693 51.7395C24.7387 51.8626 25.0279 51.9242 25.3171 51.9242C25.6063 51.9242 25.8955 51.8625 26.1649 51.7395C26.8945 51.406 27.6212 51.0473 28.3249 50.6731C33.019 48.1769 37.0822 44.777 40.0751 40.8408C42.6404 37.467 44.3502 33.7955 44.8898 30.5027C44.9682 30.0241 44.6568 29.5704 44.1941 29.4893C43.731 29.4084 43.2929 29.7304 43.2145 30.2089C42.2703 35.9723 37.0598 44.0517 27.5483 49.1097C26.8741 49.4682 26.1777 49.812 25.4783 50.1317C25.376 50.1783 25.2586 50.1784 25.1562 50.1317C24.4566 49.8119 23.76 49.4681 23.0863 49.1098C21.1637 48.0875 19.3514 46.9072 17.6888 45.6009L18.6198 44.6377C18.9516 44.2945 18.9516 43.7381 18.6198 43.3949C18.288 43.0515 17.7501 43.0516 17.4184 43.3949L8.3623 52.7628C8.17981 52.9515 7.93705 53.0556 7.67865 53.0556C7.41958 53.0556 7.17637 52.9517 6.99387 52.7628C6.61665 52.3725 6.61665 51.7375 6.99387 51.3473L27.6361 29.9919C28.1883 30.3523 28.657 30.8373 29.0055 31.4085L20.0608 40.6611C19.729 41.0044 19.729 41.5609 20.0608 41.9041C20.2267 42.0758 20.4441 42.1616 20.6616 42.1616C20.879 42.1616 21.0965 42.0758 21.2623 41.9042L23.3559 39.7386C23.9851 39.9616 24.6427 40.076 25.3166 40.076C28.6576 40.076 31.3757 37.2642 31.3757 33.8081C31.3757 30.3519 28.6576 27.5401 25.3166 27.5401C21.9757 27.5401 19.2576 30.3519 19.2576 33.8081C19.2576 34.5054 19.3684 35.1855 19.5839 35.8363L13.7047 41.9185C8.96212 36.7431 7.26507 31.4587 7.26507 28.4513C7.26507 22.3852 11.7113 17.4501 17.1765 17.4501C20.0455 17.4501 22.772 18.8304 24.657 21.2371C24.8183 21.443 25.0608 21.5626 25.3171 21.5626C25.5733 21.5626 25.8159 21.443 25.9772 21.237C27.8622 18.8303 30.5886 17.45 33.4575 17.45C38.3208 17.45 42.4311 21.3087 43.2311 26.625C43.3033 27.1046 43.7374 27.433 44.2013 27.3582C44.6649 27.2836 44.9823 26.8343 44.9101 26.3546C44.6665 24.7357 44.1366 23.1922 43.3657 21.8053H47.942C49.4795 21.8053 50.7302 20.5114 50.7302 18.921C50.7302 18.5215 50.6511 18.1408 50.5086 17.7945H51.5768C53.1143 17.7945 54.365 16.5007 54.365 14.9102C54.365 14.5107 54.2859 14.13 54.1434 13.7837H55.2117C56.7491 13.7837 57.9998 12.4897 57.9998 10.8994C57.9998 9.30903 56.7492 8.01506 55.2118 8.01506ZM25.3166 38.3182C25.1306 38.3182 24.9467 38.305 24.7647 38.2813L29.6403 33.2378C29.6632 33.4247 29.6763 33.6147 29.6763 33.8079C29.6763 36.295 27.7206 38.3182 25.3166 38.3182ZM5.7922 50.1044C4.7524 51.18 4.7524 52.9301 5.7922 54.0058C6.29561 54.5265 6.96555 54.8134 7.67843 54.8134C8.39062 54.8134 9.06011 54.5265 9.56353 54.0058L12.9483 50.5043L13.6574 54.7431C13.6897 54.9361 13.5759 55.1193 13.3929 55.1692L2.1551 58.2292C1.97997 58.277 1.86193 58.1886 1.80699 58.1318C1.75205 58.0749 1.66675 57.9526 1.71286 57.7717L4.67083 46.1463C4.71898 45.9568 4.89649 45.8396 5.08272 45.8727L9.17475 46.6052L5.7922 50.1044ZM20.9567 33.8081C20.9567 31.3211 22.9125 29.2979 25.3165 29.2979C25.5033 29.2979 25.6871 29.3115 25.8677 29.3352L20.9924 34.379C20.9696 34.1908 20.9567 34.0005 20.9567 33.8081ZM46.3726 2.88627C46.3726 2.26506 46.8612 1.75975 47.4616 1.75975C48.062 1.75975 48.5506 2.26518 48.5506 2.88627V8.53419L46.3725 10.7873V2.88627H46.3726ZM42.4955 6.64643C42.4955 6.02534 42.9841 5.51992 43.5845 5.51992C44.1848 5.51992 44.6734 6.02534 44.6734 6.64643V12.5451L42.4955 14.7982V6.64643ZM38.6182 10.4067C38.6182 9.78551 39.1068 9.2802 39.7072 9.2802C40.3076 9.2802 40.7962 9.78563 40.7962 10.4067V16.5561L39.697 17.6931C39.348 17.4487 38.9875 17.2264 38.6181 17.0249V10.4067H38.6182ZM49.0311 18.9211C49.0311 19.5424 48.5425 20.0477 47.9421 20.0477H42.1902C41.8351 19.6018 41.4518 19.1804 41.0399 18.7897L42.0018 17.7946H47.942C48.5425 17.7946 49.0311 18.3001 49.0311 18.9211ZM52.6659 14.9103C52.6659 15.5314 52.1773 16.0368 51.577 16.0368H43.7011L45.8791 13.7838H51.577C52.1774 13.7838 52.6659 14.2892 52.6659 14.9103Z" fill="#F1DBCE"/>
</g>
<defs>
<clipPath id="clip0">
<rect width="58" height="60" fill="white"/>
</clipPath>
</defs>
</svg>
