<svg width="44" height="44" viewBox="0 0 44 44" fill="none" xmlns="http://www.w3.org/2000/svg">
<mask id="path-1-inside-1" fill="white">
<path d="M36.7807 7.00928H34.6331C34.3124 7.00928 34.1095 7.21235 34.1095 7.43673H34.1094V14.3821C34.1094 14.6706 34.4513 14.8202 34.8039 14.8202C35.1459 14.8202 35.4985 14.6707 35.4985 14.3821V11.9031H36.6953C38.1057 11.9031 39.2063 11.2299 39.2063 9.47757V9.41354C39.2063 7.66111 38.1378 7.00928 36.7807 7.00928ZM37.8171 9.58447C37.8171 10.4179 37.3898 10.8133 36.6952 10.8133H35.4985V8.22744H36.6952C37.3898 8.22744 37.8171 8.62283 37.8171 9.45625V9.58447Z"/>
</mask>
<path d="M36.7807 7.00928H34.6331C34.3124 7.00928 34.1095 7.21235 34.1095 7.43673H34.1094V14.3821C34.1094 14.6706 34.4513 14.8202 34.8039 14.8202C35.1459 14.8202 35.4985 14.6707 35.4985 14.3821V11.9031H36.6953C38.1057 11.9031 39.2063 11.2299 39.2063 9.47757V9.41354C39.2063 7.66111 38.1378 7.00928 36.7807 7.00928ZM37.8171 9.58447C37.8171 10.4179 37.3898 10.8133 36.6952 10.8133H35.4985V8.22744H36.6952C37.3898 8.22744 37.8171 8.62283 37.8171 9.45625V9.58447Z" fill="#F1DBCE"/>
<path d="M34.1095 7.43673V9.43673H36.1095V7.43673H34.1095ZM34.1094 7.43673V5.43673H32.1094V7.43673H34.1094ZM35.4985 11.9031V9.90314H33.4985V11.9031H35.4985ZM35.4985 10.8133H33.4985V12.8133H35.4985V10.8133ZM35.4985 8.22744V6.22744H33.4985V8.22744H35.4985ZM36.7807 5.00928H34.6331V9.00928H36.7807V5.00928ZM34.6331 5.00928C33.4836 5.00928 32.1095 5.85087 32.1095 7.43673H36.1095C36.1095 8.57382 35.1413 9.00928 34.6331 9.00928V5.00928ZM34.1095 5.43673H34.1094V9.43673H34.1095V5.43673ZM32.1094 7.43673V14.3821H36.1094V7.43673H32.1094ZM32.1094 14.3821C32.1094 15.4633 32.7967 16.1422 33.3379 16.4491C33.846 16.7372 34.3837 16.8202 34.8039 16.8202V12.8202C34.8715 12.8202 35.062 12.8284 35.3109 12.9696C35.4459 13.0461 35.6447 13.1897 35.8159 13.4385C35.9994 13.7051 36.1094 14.0346 36.1094 14.3821H32.1094ZM34.8039 16.8202C35.2265 16.8202 35.7578 16.7343 36.2582 16.4535C36.7799 16.1607 37.4985 15.4882 37.4985 14.3821H33.4985C33.4985 13.5645 34.0407 13.1111 34.3006 12.9652C34.5392 12.8313 34.7232 12.8202 34.8039 12.8202V16.8202ZM37.4985 14.3821V11.9031H33.4985V14.3821H37.4985ZM35.4985 13.9031H36.6953V9.90314H35.4985V13.9031ZM36.6953 13.9031C37.6841 13.9031 38.8437 13.6704 39.782 12.8653C40.7745 12.0138 41.2063 10.7942 41.2063 9.47757H37.2063C37.2063 9.70827 37.17 9.81667 37.1583 9.84581C37.15 9.8663 37.1545 9.8492 37.1774 9.82963C37.2128 9.79924 37.1169 9.90314 36.6953 9.90314V13.9031ZM41.2063 9.47757V9.41354H37.2063V9.47757H41.2063ZM41.2063 9.41354C41.2063 8.11547 40.7945 6.90198 39.8191 6.04883C38.8922 5.23807 37.7455 5.00928 36.7807 5.00928V9.00928C37.173 9.00928 37.2391 9.1064 37.1857 9.05967C37.1553 9.03308 37.1492 9.01111 37.1578 9.0328C37.1699 9.0636 37.2063 9.17606 37.2063 9.41354H41.2063ZM35.8171 9.58447C35.8171 9.67916 35.7948 9.41893 36.0694 9.13098C36.3574 8.82908 36.6677 8.81329 36.6952 8.81329V12.8133C37.4173 12.8133 38.2885 12.5998 38.9638 11.8918C39.6258 11.1978 39.8171 10.3232 39.8171 9.58447H35.8171ZM36.6952 8.81329H35.4985V12.8133H36.6952V8.81329ZM37.4985 10.8133V8.22744H33.4985V10.8133H37.4985ZM35.4985 10.2274H36.6952V6.22744H35.4985V10.2274ZM36.6952 10.2274C36.6677 10.2274 36.3574 10.2116 36.0694 9.90974C35.7948 9.6218 35.8171 9.36156 35.8171 9.45625H39.8171C39.8171 8.71753 39.6258 7.84288 38.9638 7.14888C38.2885 6.44092 37.4173 6.22744 36.6952 6.22744V10.2274ZM35.8171 9.45625V9.58447H39.8171V9.45625H35.8171Z" fill="#F1E1D5" mask="url(#path-1-inside-1)"/>
<path d="M10.1754 9.90373C10.1754 9.90372 10.1754 9.90371 10.1754 9.9037L10.1754 9.90373ZM24.477 10.4315C24.477 10.4315 24.477 10.4315 24.477 10.4315C24.477 10.4315 24.477 10.4315 24.477 10.4315Z" fill="#F1DBCE" stroke="#F1E1D5" stroke-width="2"/>
<path d="M13.4724 13.1968C15.7451 10.9242 19.443 10.9242 21.7157 13.1968M13.4724 13.1968L13.472 13.1964L13.4724 13.1968ZM13.4724 13.1968C13.2277 13.4416 12.8307 13.4416 12.586 13.1968C12.3411 12.9521 12.3411 12.5551 12.586 12.3104L21.7157 13.1968M21.7157 13.1968C21.838 13.3192 21.9984 13.3804 22.1589 13.3804M21.7157 13.1968L22.1589 13.3804M13.2931 13.0175L13.2931 13.0175C13.2931 13.0175 13.2931 13.0175 13.2931 13.0175ZM13.2931 13.0175C13.2931 13.0175 13.2931 13.0175 13.2931 13.0175L13.2931 13.0175ZM22.1589 13.3804C22.3192 13.3804 22.4797 13.3192 22.6021 13.1968L22.1589 13.3804Z" fill="#F1DBCE" stroke="#F1E1D5" stroke-width="2"/>
<mask id="path-5-inside-2" fill="white">
<path d="M20.0551 14.8553C18.697 13.4971 16.4871 13.4971 15.1289 14.8553C14.8841 15.1 14.8841 15.4969 15.1289 15.7417C15.3737 15.9866 15.7706 15.9865 16.0154 15.7417C16.8848 14.8724 18.2993 14.8724 19.1688 15.7417C19.2911 15.8642 19.4516 15.9253 19.6119 15.9253C19.7723 15.9253 19.9327 15.8641 20.0551 15.7417C20.3 15.4969 20.3 15.1001 20.0551 14.8553Z"/>
</mask>
<path d="M20.0551 14.8553C18.697 13.4971 16.4871 13.4971 15.1289 14.8553C14.8841 15.1 14.8841 15.4969 15.1289 15.7417C15.3737 15.9866 15.7706 15.9865 16.0154 15.7417C16.8848 14.8724 18.2993 14.8724 19.1688 15.7417C19.2911 15.8642 19.4516 15.9253 19.6119 15.9253C19.7723 15.9253 19.9327 15.8641 20.0551 15.7417C20.3 15.4969 20.3 15.1001 20.0551 14.8553Z" fill="#F1DBCE"/>
<path d="M15.1289 14.8553L16.5429 16.2697L16.5432 16.2695L15.1289 14.8553ZM15.1289 15.7417L16.5434 14.3278L16.5432 14.3275L15.1289 15.7417ZM16.0154 15.7417L14.6012 14.3274L14.6012 14.3275L16.0154 15.7417ZM19.1688 15.7417L20.5835 14.328L20.5829 14.3274L19.1688 15.7417ZM21.4693 13.4411C19.3301 11.3019 15.8539 11.3019 13.7147 13.4411L16.5432 16.2695C17.1203 15.6924 18.0638 15.6924 18.6409 16.2695L21.4693 13.4411ZM13.715 13.4408C12.6886 14.4668 12.689 16.1302 13.7147 17.1559L16.5432 14.3275C17.0792 14.8636 17.0796 15.7333 16.5429 16.2697L13.715 13.4408ZM13.7145 17.1557C14.7406 18.1822 16.4041 18.1814 17.4296 17.1559L14.6012 14.3275C15.1372 13.7915 16.0067 13.7909 16.5434 14.3278L13.7145 17.1557ZM17.4295 17.156C17.5179 17.0676 17.6662 17.0676 17.7546 17.156L20.5829 14.3274C18.9324 12.6771 16.2517 12.6771 14.6012 14.3274L17.4295 17.156ZM17.7541 17.1554C18.2673 17.669 18.9436 17.9253 19.6119 17.9253V13.9253C19.9596 13.9253 20.315 14.0593 20.5835 14.328L17.7541 17.1554ZM19.6119 17.9253C20.2809 17.9253 20.9567 17.6685 21.4693 17.1559L18.6409 14.3275C18.9088 14.0597 19.2637 13.9253 19.6119 13.9253V17.9253ZM21.4693 17.1559C22.4952 16.1301 22.4952 14.467 21.4693 13.4411L18.6409 16.2695C18.1047 15.7333 18.1047 14.8637 18.6409 14.3275L21.4693 17.1559Z" fill="#F1E1D5" mask="url(#path-5-inside-2)"/>
<path d="M7.24572 28.5104L7.246 28.5103L7.24572 28.5104Z" fill="#F1DBCE" stroke="#F1E1D5" stroke-width="2"/>
<mask id="path-8-inside-3" fill="white">
<path d="M18.5591 30.541H16.6229C16.2768 30.541 15.9961 30.8217 15.9961 31.1678C15.9961 31.514 16.2768 31.7947 16.6229 31.7947H18.5591C18.9052 31.7947 19.1859 31.514 19.1859 31.1678C19.1859 30.8217 18.9052 30.541 18.5591 30.541Z"/>
</mask>
<path d="M18.5591 30.541H16.6229C16.2768 30.541 15.9961 30.8217 15.9961 31.1678C15.9961 31.514 16.2768 31.7947 16.6229 31.7947H18.5591C18.9052 31.7947 19.1859 31.514 19.1859 31.1678C19.1859 30.8217 18.9052 30.541 18.5591 30.541Z" fill="#F1DBCE"/>
<path d="M19.1859 31.1678H21.1859H19.1859ZM18.5591 28.541H16.6229V32.541H18.5591V28.541ZM16.6229 28.541C15.1722 28.541 13.9961 29.7171 13.9961 31.1678H17.9961C17.9961 31.9263 17.3813 32.541 16.6229 32.541V28.541ZM13.9961 31.1678C13.9961 32.6186 15.1722 33.7947 16.6229 33.7947V29.7947C17.3813 29.7947 17.9961 30.4094 17.9961 31.1678H13.9961ZM16.6229 33.7947H18.5591V29.7947H16.6229V33.7947ZM18.5591 33.7947C20.0098 33.7947 21.1859 32.6186 21.1859 31.1678H17.1859C17.1859 30.4094 17.8007 29.7947 18.5591 29.7947V33.7947ZM21.1859 31.1678C21.1859 29.7171 20.0098 28.541 18.5591 28.541V32.541C17.8007 32.541 17.1859 31.9262 17.1859 31.1678H21.1859Z" fill="#F1E1D5" mask="url(#path-8-inside-3)"/>
<mask id="path-10-inside-4" fill="white">
<path d="M43.4592 30.0148L43.2612 29.6862C42.515 28.4479 41.2738 27.576 39.8559 27.294L38.2377 26.9721V18.7697H42.4255C43.2878 18.7697 43.9893 18.0682 43.9893 17.206V4.99853C43.9893 4.13623 43.2878 3.43481 42.4255 3.43481H30.2181C29.3558 3.43481 28.6544 4.13632 28.6544 4.99853V9.62925C28.6544 9.97541 28.935 10.2561 29.2812 10.2561C29.6274 10.2561 29.908 9.97541 29.908 9.62925V4.99853C29.908 4.82751 30.0472 4.68838 30.2182 4.68838H42.4257C42.5967 4.68838 42.7359 4.82751 42.7359 4.99853V17.2061C42.7359 17.3771 42.5967 17.5162 42.4257 17.5162H30.2181C30.0471 17.5162 29.9079 17.3771 29.9079 17.2061V13.7042C29.9079 13.3581 29.6274 13.0774 29.2811 13.0774C28.9349 13.0774 28.6543 13.3581 28.6543 13.7042V17.2061C28.6543 18.0684 29.3558 18.7698 30.218 18.7698H34.967V26.3219L34.1351 26.1564C32.987 25.9281 31.8676 25.2352 31.1255 24.7337L26.9795 21.933C25.4022 20.8674 23.5623 20.3042 21.6588 20.3042H14.0491C11.517 20.3042 9.13452 21.2884 7.34075 23.0755C6.20569 24.2063 4.7769 24.9776 3.20881 25.3061L2.30887 25.4945C0.971004 25.7747 0 26.9703 0 28.3372V34.4078C0 35.1319 0.427537 35.7899 1.08934 36.084L3.58599 37.1936C3.73698 37.9831 4.11734 38.737 4.72732 39.347C5.53796 40.1577 6.60281 40.563 7.66774 40.563C8.73268 40.563 9.79744 40.1577 10.6082 39.347C11.1296 38.8256 11.4822 38.1989 11.6683 37.5349H32.4854C32.6714 38.1989 33.0242 38.8256 33.5456 39.347C34.331 40.1324 35.3752 40.565 36.486 40.565C37.5967 40.565 38.641 40.1325 39.4265 39.347C39.9479 38.8256 40.3006 38.1989 40.4866 37.5349H41.6757C42.9573 37.5349 44 36.4922 44 35.2106V31.9594C43.9998 31.2742 43.8128 30.6018 43.4592 30.0148ZM36.2206 18.7697H36.9841V26.7228L36.2206 26.571V18.7697ZM9.72164 38.4607C9.17302 39.0093 8.44358 39.3114 7.66766 39.3114C6.89173 39.3114 6.1623 39.0093 5.61367 38.4607C4.73359 37.5806 4.53783 36.2718 5.02543 35.2005C5.02939 35.192 5.03317 35.1833 5.03712 35.1747C5.05199 35.1429 5.06771 35.1114 5.08379 35.0801C5.09135 35.0654 5.09891 35.0507 5.10682 35.0361C5.12134 35.0089 5.13646 34.9819 5.15193 34.9551C5.16259 34.9366 5.1735 34.9183 5.18459 34.9001C5.19894 34.8765 5.21346 34.8529 5.22859 34.8296C5.24225 34.8086 5.25635 34.7878 5.27061 34.7671C5.28471 34.7465 5.29871 34.7259 5.31332 34.7057C5.33008 34.6826 5.34753 34.6599 5.36506 34.6372C5.37872 34.6195 5.39204 34.6017 5.40614 34.5842C5.42676 34.5587 5.44833 34.5338 5.46981 34.5088C5.4821 34.4947 5.49388 34.4801 5.50642 34.4661C5.53839 34.4306 5.57131 34.3958 5.60517 34.3617C5.60809 34.3588 5.61075 34.3557 5.61367 34.3528C5.62012 34.3463 5.62691 34.3403 5.63344 34.334C5.66214 34.3058 5.69102 34.2779 5.72049 34.2512C5.72814 34.2442 5.73622 34.2378 5.74395 34.2309C5.77334 34.2049 5.80291 34.179 5.83316 34.1543C5.83599 34.152 5.839 34.1499 5.84184 34.1476C6.90428 33.2878 8.43662 33.2888 9.49778 34.151C9.49898 34.152 9.50027 34.1529 9.50156 34.1539C9.53396 34.1803 9.56567 34.208 9.59721 34.236C9.60288 34.241 9.60872 34.2457 9.61431 34.2508C9.65074 34.2837 9.68649 34.3176 9.72156 34.3527C9.75937 34.3905 9.79581 34.4294 9.83121 34.4689C9.84677 34.4862 9.86146 34.504 9.8765 34.5216C9.89489 34.5431 9.91337 34.5647 9.93107 34.5866C9.95092 34.6113 9.97009 34.6364 9.98899 34.6615C9.99965 34.6755 10.0102 34.6896 10.0205 34.7037C10.0435 34.7354 10.0658 34.7673 10.0874 34.7997C10.0911 34.8052 10.0947 34.8108 10.0983 34.8163C10.8356 35.9425 10.7102 37.472 9.72164 38.4607ZM38.5399 38.4607C37.9912 39.0093 37.2618 39.3114 36.4858 39.3114C35.7099 39.3114 34.9806 39.0093 34.4319 38.4607C33.4432 37.472 33.3178 35.9423 34.0552 34.8161C34.0587 34.8107 34.0622 34.8053 34.0658 34.8C34.0874 34.7675 34.1098 34.7355 34.1329 34.7037C34.1431 34.6896 34.1536 34.6756 34.1641 34.6618C34.1831 34.6365 34.2024 34.6114 34.2224 34.5865C34.24 34.5648 34.2582 34.5435 34.2766 34.5222C34.2918 34.5044 34.3066 34.4863 34.3224 34.4689C34.3578 34.4294 34.3942 34.3906 34.432 34.3528C34.9806 33.8042 35.71 33.502 36.4859 33.502C37.2618 33.502 37.9913 33.8042 38.5399 34.3528C38.5777 34.3906 38.6141 34.4295 38.6496 34.469C38.6652 34.4863 38.6799 34.5042 38.695 34.5219C38.7134 34.5433 38.7318 34.5648 38.7494 34.5866C38.7693 34.6114 38.7885 34.6365 38.8075 34.6616C38.8181 34.6756 38.8286 34.6896 38.839 34.7038C38.8619 34.7355 38.8843 34.7674 38.9058 34.7998C38.9095 34.8053 38.9131 34.8108 38.9167 34.8163C39.6539 35.9424 39.5284 37.4721 38.5399 38.4607ZM42.7464 35.2106H42.7463C42.7463 35.801 42.266 36.2813 41.6756 36.2813H40.6436C40.6191 35.3722 40.2982 34.5048 39.7207 33.7937C39.7168 33.7889 39.7131 33.7839 39.7092 33.7791C39.6734 33.7355 39.6364 33.6928 39.5987 33.6503C39.5891 33.6395 39.58 33.6283 39.5703 33.6175C39.5304 33.5736 39.4892 33.5305 39.4472 33.4881C39.4401 33.4809 39.4336 33.4733 39.4263 33.4662C38.8863 32.9262 38.224 32.553 37.5019 32.3725C37.1736 32.2905 36.833 32.2483 36.4858 32.2483C36.2082 32.2483 35.9346 32.2753 35.6682 32.3281C34.8691 32.4866 34.1345 32.8771 33.5454 33.4662C33.5384 33.4732 33.5319 33.4806 33.5249 33.4877C33.4828 33.5304 33.4414 33.5736 33.4015 33.6177C33.392 33.6281 33.3832 33.6389 33.374 33.6494C33.336 33.6922 33.2985 33.7353 33.2625 33.7793C33.2589 33.7837 33.2555 33.7883 33.2519 33.7927C32.674 34.5039 32.3528 35.3718 32.3281 36.2814H11.8254C11.8007 35.3707 11.4788 34.5018 10.8994 33.79C10.8967 33.7866 10.8942 33.7833 10.8915 33.7799C10.8537 33.7337 10.8144 33.6884 10.7745 33.6435C10.7671 33.6353 10.7602 33.6268 10.7527 33.6185C10.7059 33.5669 10.6578 33.516 10.608 33.4662C10.4054 33.2636 10.1867 33.0862 9.95634 32.9342C9.26489 32.4782 8.46627 32.2502 7.66766 32.2502C6.60281 32.2502 5.53788 32.6556 4.72723 33.4662C4.68091 33.5126 4.63614 33.5601 4.59231 33.6082C4.57933 33.6225 4.56687 33.637 4.55407 33.6514C4.52313 33.6863 4.49271 33.7217 4.46306 33.7574C4.44991 33.7733 4.43676 33.7893 4.42387 33.8054C4.39319 33.8437 4.36329 33.8824 4.33407 33.9215C4.32496 33.9337 4.31559 33.9456 4.30674 33.9579C4.22819 34.0654 4.15532 34.1763 4.08794 34.29C4.08605 34.2931 4.08425 34.2964 4.08236 34.2996C4.04945 34.3555 4.01791 34.4122 3.98774 34.4696C3.98688 34.4712 3.98602 34.4729 3.98508 34.4745C3.76654 34.8904 3.61959 35.3402 3.55221 35.8067L1.5986 34.9384C1.38909 34.8453 1.25374 34.637 1.25374 34.4078V28.3372C1.25374 27.5602 1.80571 26.8807 2.56617 26.7214L3.4661 26.5329C5.2725 26.1545 6.91837 25.266 8.22582 23.9635C9.783 22.4121 11.8512 21.5577 14.0494 21.5577H21.6591C23.3116 21.5577 24.9087 22.0467 26.278 22.9716L30.424 25.7724C31.2559 26.3345 32.5205 27.1133 33.8908 27.3858L39.6116 28.5235C40.6843 28.7369 41.6231 29.3964 42.1877 30.3331L42.3857 30.6618C42.6217 31.0534 42.7464 31.5022 42.7464 31.9594V35.2106Z"/>
</mask>
<path d="M43.4592 30.0148L43.2612 29.6862C42.515 28.4479 41.2738 27.576 39.8559 27.294L38.2377 26.9721V18.7697H42.4255C43.2878 18.7697 43.9893 18.0682 43.9893 17.206V4.99853C43.9893 4.13623 43.2878 3.43481 42.4255 3.43481H30.2181C29.3558 3.43481 28.6544 4.13632 28.6544 4.99853V9.62925C28.6544 9.97541 28.935 10.2561 29.2812 10.2561C29.6274 10.2561 29.908 9.97541 29.908 9.62925V4.99853C29.908 4.82751 30.0472 4.68838 30.2182 4.68838H42.4257C42.5967 4.68838 42.7359 4.82751 42.7359 4.99853V17.2061C42.7359 17.3771 42.5967 17.5162 42.4257 17.5162H30.2181C30.0471 17.5162 29.9079 17.3771 29.9079 17.2061V13.7042C29.9079 13.3581 29.6274 13.0774 29.2811 13.0774C28.9349 13.0774 28.6543 13.3581 28.6543 13.7042V17.2061C28.6543 18.0684 29.3558 18.7698 30.218 18.7698H34.967V26.3219L34.1351 26.1564C32.987 25.9281 31.8676 25.2352 31.1255 24.7337L26.9795 21.933C25.4022 20.8674 23.5623 20.3042 21.6588 20.3042H14.0491C11.517 20.3042 9.13452 21.2884 7.34075 23.0755C6.20569 24.2063 4.7769 24.9776 3.20881 25.3061L2.30887 25.4945C0.971004 25.7747 0 26.9703 0 28.3372V34.4078C0 35.1319 0.427537 35.7899 1.08934 36.084L3.58599 37.1936C3.73698 37.9831 4.11734 38.737 4.72732 39.347C5.53796 40.1577 6.60281 40.563 7.66774 40.563C8.73268 40.563 9.79744 40.1577 10.6082 39.347C11.1296 38.8256 11.4822 38.1989 11.6683 37.5349H32.4854C32.6714 38.1989 33.0242 38.8256 33.5456 39.347C34.331 40.1324 35.3752 40.565 36.486 40.565C37.5967 40.565 38.641 40.1325 39.4265 39.347C39.9479 38.8256 40.3006 38.1989 40.4866 37.5349H41.6757C42.9573 37.5349 44 36.4922 44 35.2106V31.9594C43.9998 31.2742 43.8128 30.6018 43.4592 30.0148ZM36.2206 18.7697H36.9841V26.7228L36.2206 26.571V18.7697ZM9.72164 38.4607C9.17302 39.0093 8.44358 39.3114 7.66766 39.3114C6.89173 39.3114 6.1623 39.0093 5.61367 38.4607C4.73359 37.5806 4.53783 36.2718 5.02543 35.2005C5.02939 35.192 5.03317 35.1833 5.03712 35.1747C5.05199 35.1429 5.06771 35.1114 5.08379 35.0801C5.09135 35.0654 5.09891 35.0507 5.10682 35.0361C5.12134 35.0089 5.13646 34.9819 5.15193 34.9551C5.16259 34.9366 5.1735 34.9183 5.18459 34.9001C5.19894 34.8765 5.21346 34.8529 5.22859 34.8296C5.24225 34.8086 5.25635 34.7878 5.27061 34.7671C5.28471 34.7465 5.29871 34.7259 5.31332 34.7057C5.33008 34.6826 5.34753 34.6599 5.36506 34.6372C5.37872 34.6195 5.39204 34.6017 5.40614 34.5842C5.42676 34.5587 5.44833 34.5338 5.46981 34.5088C5.4821 34.4947 5.49388 34.4801 5.50642 34.4661C5.53839 34.4306 5.57131 34.3958 5.60517 34.3617C5.60809 34.3588 5.61075 34.3557 5.61367 34.3528C5.62012 34.3463 5.62691 34.3403 5.63344 34.334C5.66214 34.3058 5.69102 34.2779 5.72049 34.2512C5.72814 34.2442 5.73622 34.2378 5.74395 34.2309C5.77334 34.2049 5.80291 34.179 5.83316 34.1543C5.83599 34.152 5.839 34.1499 5.84184 34.1476C6.90428 33.2878 8.43662 33.2888 9.49778 34.151C9.49898 34.152 9.50027 34.1529 9.50156 34.1539C9.53396 34.1803 9.56567 34.208 9.59721 34.236C9.60288 34.241 9.60872 34.2457 9.61431 34.2508C9.65074 34.2837 9.68649 34.3176 9.72156 34.3527C9.75937 34.3905 9.79581 34.4294 9.83121 34.4689C9.84677 34.4862 9.86146 34.504 9.8765 34.5216C9.89489 34.5431 9.91337 34.5647 9.93107 34.5866C9.95092 34.6113 9.97009 34.6364 9.98899 34.6615C9.99965 34.6755 10.0102 34.6896 10.0205 34.7037C10.0435 34.7354 10.0658 34.7673 10.0874 34.7997C10.0911 34.8052 10.0947 34.8108 10.0983 34.8163C10.8356 35.9425 10.7102 37.472 9.72164 38.4607ZM38.5399 38.4607C37.9912 39.0093 37.2618 39.3114 36.4858 39.3114C35.7099 39.3114 34.9806 39.0093 34.4319 38.4607C33.4432 37.472 33.3178 35.9423 34.0552 34.8161C34.0587 34.8107 34.0622 34.8053 34.0658 34.8C34.0874 34.7675 34.1098 34.7355 34.1329 34.7037C34.1431 34.6896 34.1536 34.6756 34.1641 34.6618C34.1831 34.6365 34.2024 34.6114 34.2224 34.5865C34.24 34.5648 34.2582 34.5435 34.2766 34.5222C34.2918 34.5044 34.3066 34.4863 34.3224 34.4689C34.3578 34.4294 34.3942 34.3906 34.432 34.3528C34.9806 33.8042 35.71 33.502 36.4859 33.502C37.2618 33.502 37.9913 33.8042 38.5399 34.3528C38.5777 34.3906 38.6141 34.4295 38.6496 34.469C38.6652 34.4863 38.6799 34.5042 38.695 34.5219C38.7134 34.5433 38.7318 34.5648 38.7494 34.5866C38.7693 34.6114 38.7885 34.6365 38.8075 34.6616C38.8181 34.6756 38.8286 34.6896 38.839 34.7038C38.8619 34.7355 38.8843 34.7674 38.9058 34.7998C38.9095 34.8053 38.9131 34.8108 38.9167 34.8163C39.6539 35.9424 39.5284 37.4721 38.5399 38.4607ZM42.7464 35.2106H42.7463C42.7463 35.801 42.266 36.2813 41.6756 36.2813H40.6436C40.6191 35.3722 40.2982 34.5048 39.7207 33.7937C39.7168 33.7889 39.7131 33.7839 39.7092 33.7791C39.6734 33.7355 39.6364 33.6928 39.5987 33.6503C39.5891 33.6395 39.58 33.6283 39.5703 33.6175C39.5304 33.5736 39.4892 33.5305 39.4472 33.4881C39.4401 33.4809 39.4336 33.4733 39.4263 33.4662C38.8863 32.9262 38.224 32.553 37.5019 32.3725C37.1736 32.2905 36.833 32.2483 36.4858 32.2483C36.2082 32.2483 35.9346 32.2753 35.6682 32.3281C34.8691 32.4866 34.1345 32.8771 33.5454 33.4662C33.5384 33.4732 33.5319 33.4806 33.5249 33.4877C33.4828 33.5304 33.4414 33.5736 33.4015 33.6177C33.392 33.6281 33.3832 33.6389 33.374 33.6494C33.336 33.6922 33.2985 33.7353 33.2625 33.7793C33.2589 33.7837 33.2555 33.7883 33.2519 33.7927C32.674 34.5039 32.3528 35.3718 32.3281 36.2814H11.8254C11.8007 35.3707 11.4788 34.5018 10.8994 33.79C10.8967 33.7866 10.8942 33.7833 10.8915 33.7799C10.8537 33.7337 10.8144 33.6884 10.7745 33.6435C10.7671 33.6353 10.7602 33.6268 10.7527 33.6185C10.7059 33.5669 10.6578 33.516 10.608 33.4662C10.4054 33.2636 10.1867 33.0862 9.95634 32.9342C9.26489 32.4782 8.46627 32.2502 7.66766 32.2502C6.60281 32.2502 5.53788 32.6556 4.72723 33.4662C4.68091 33.5126 4.63614 33.5601 4.59231 33.6082C4.57933 33.6225 4.56687 33.637 4.55407 33.6514C4.52313 33.6863 4.49271 33.7217 4.46306 33.7574C4.44991 33.7733 4.43676 33.7893 4.42387 33.8054C4.39319 33.8437 4.36329 33.8824 4.33407 33.9215C4.32496 33.9337 4.31559 33.9456 4.30674 33.9579C4.22819 34.0654 4.15532 34.1763 4.08794 34.29C4.08605 34.2931 4.08425 34.2964 4.08236 34.2996C4.04945 34.3555 4.01791 34.4122 3.98774 34.4696C3.98688 34.4712 3.98602 34.4729 3.98508 34.4745C3.76654 34.8904 3.61959 35.3402 3.55221 35.8067L1.5986 34.9384C1.38909 34.8453 1.25374 34.637 1.25374 34.4078V28.3372C1.25374 27.5602 1.80571 26.8807 2.56617 26.7214L3.4661 26.5329C5.2725 26.1545 6.91837 25.266 8.22582 23.9635C9.783 22.4121 11.8512 21.5577 14.0494 21.5577H21.6591C23.3116 21.5577 24.9087 22.0467 26.278 22.9716L30.424 25.7724C31.2559 26.3345 32.5205 27.1133 33.8908 27.3858L39.6116 28.5235C40.6843 28.7369 41.6231 29.3964 42.1877 30.3331L42.3857 30.6618C42.6217 31.0534 42.7464 31.5022 42.7464 31.9594V35.2106Z" fill="#F1DBCE" stroke="#F1E1D5" stroke-width="4" mask="url(#path-10-inside-4)"/>
<mask id="path-11-inside-5" fill="white">
<path d="M9.01431 35.0613C8.65475 34.7018 8.17694 34.5039 7.66862 34.5039C7.1603 34.5039 6.6824 34.7019 6.32301 35.0613C5.96362 35.4207 5.76562 35.8986 5.76562 36.4069C5.76562 36.9152 5.96362 37.3931 6.32301 37.7525C6.6824 38.1119 7.1603 38.3099 7.6687 38.3099C8.17702 38.3099 8.65492 38.112 9.01431 37.7525C9.75629 37.0105 9.75629 35.8033 9.01431 35.0613ZM8.12778 36.8661C8.00515 36.9887 7.84204 37.0562 7.66862 37.0562C7.49511 37.0562 7.33209 36.9887 7.20946 36.866C7.08682 36.7433 7.01919 36.5803 7.01919 36.4068C7.01919 36.2333 7.08674 36.0703 7.20946 35.9476C7.33209 35.825 7.49511 35.7574 7.66862 35.7574C7.84204 35.7574 8.00515 35.8249 8.12778 35.9476C8.38095 36.2009 8.38095 36.6129 8.12778 36.8661Z"/>
</mask>
<path d="M9.01431 35.0613C8.65475 34.7018 8.17694 34.5039 7.66862 34.5039C7.1603 34.5039 6.6824 34.7019 6.32301 35.0613C5.96362 35.4207 5.76562 35.8986 5.76562 36.4069C5.76562 36.9152 5.96362 37.3931 6.32301 37.7525C6.6824 38.1119 7.1603 38.3099 7.6687 38.3099C8.17702 38.3099 8.65492 38.112 9.01431 37.7525C9.75629 37.0105 9.75629 35.8033 9.01431 35.0613ZM8.12778 36.8661C8.00515 36.9887 7.84204 37.0562 7.66862 37.0562C7.49511 37.0562 7.33209 36.9887 7.20946 36.866C7.08682 36.7433 7.01919 36.5803 7.01919 36.4068C7.01919 36.2333 7.08674 36.0703 7.20946 35.9476C7.33209 35.825 7.49511 35.7574 7.66862 35.7574C7.84204 35.7574 8.00515 35.8249 8.12778 35.9476C8.38095 36.2009 8.38095 36.6129 8.12778 36.8661Z" fill="#F1DBCE"/>
<path d="M9.01431 35.0613L10.4285 33.6471L10.4284 33.6469L9.01431 35.0613ZM9.01431 37.7525L7.6001 36.3383L7.59993 36.3384L9.01431 37.7525ZM7.20946 36.866L8.62416 35.4522L8.62367 35.4518L7.20946 36.866ZM7.20946 35.9476L8.62317 37.3624L8.62367 37.3619L7.20946 35.9476ZM8.12778 35.9476L6.71307 37.3614L6.71333 37.3616L8.12778 35.9476ZM10.4284 33.6469C9.69383 32.9126 8.70743 32.5039 7.66862 32.5039V36.5039C7.66175 36.5039 7.64809 36.5023 7.6319 36.4956C7.61571 36.4889 7.60499 36.4804 7.60027 36.4757L10.4284 33.6469ZM7.66862 32.5039C6.62978 32.5039 5.6432 32.9127 4.9088 33.6471L7.73722 36.4755C7.73233 36.4804 7.72154 36.4889 7.70539 36.4956C7.68924 36.5023 7.67558 36.5039 7.66862 36.5039V32.5039ZM4.9088 33.6471C4.1744 34.3815 3.76562 35.3681 3.76562 36.4069H7.76562C7.76562 36.4139 7.76397 36.4275 7.75728 36.4437C7.75059 36.4598 7.74212 36.4706 7.73722 36.4755L4.9088 33.6471ZM3.76562 36.4069C3.76562 37.4457 4.17441 38.4323 4.9088 39.1667L7.73722 36.3383C7.74211 36.3432 7.75059 36.354 7.75728 36.3701C7.76397 36.3863 7.76562 36.3999 7.76562 36.4069H3.76562ZM4.9088 39.1667C5.64323 39.9011 6.62982 40.3099 7.6687 40.3099V36.3099C7.67558 36.3099 7.68921 36.3115 7.70537 36.3182C7.72152 36.3249 7.73233 36.3334 7.73722 36.3383L4.9088 39.1667ZM7.6687 40.3099C8.70734 40.3099 9.69407 39.9013 10.4287 39.1665L7.59993 36.3384C7.6049 36.3335 7.61579 36.3249 7.63201 36.3182C7.64822 36.3115 7.66186 36.3099 7.6687 36.3099V40.3099ZM10.4285 39.1667C11.9516 37.6437 11.9516 35.1701 10.4285 33.6471L7.6001 36.4755C7.59226 36.4677 7.58362 36.4553 7.57781 36.4409C7.57255 36.4279 7.57079 36.4165 7.57079 36.4069C7.57079 36.3973 7.57255 36.3858 7.57781 36.3728C7.58362 36.3585 7.59226 36.3461 7.6001 36.3383L10.4285 39.1667ZM6.71357 35.4518C6.96608 35.1993 7.31171 35.0562 7.66862 35.0562V39.0562C8.37237 39.0562 9.04421 38.778 9.54199 38.2803L6.71357 35.4518ZM7.66862 35.0562C8.02566 35.0562 8.3716 35.1995 8.62416 35.4522L5.79475 38.2797C6.29258 38.7779 6.96456 39.0562 7.66862 39.0562V35.0562ZM8.62367 35.4518C8.8756 35.7037 9.01919 36.0492 9.01919 36.4068H5.01919C5.01919 37.1115 5.29804 37.783 5.79524 38.2802L8.62367 35.4518ZM9.01919 36.4068C9.01919 36.7638 8.87593 37.1098 8.62317 37.3624L5.79574 34.5329C5.29755 35.0308 5.01919 35.7028 5.01919 36.4068H9.01919ZM8.62367 37.3619C8.37172 37.6138 8.02625 37.7574 7.66862 37.7574V33.7574C6.96398 33.7574 6.29245 34.0362 5.79524 34.5334L8.62367 37.3619ZM7.66862 37.7574C7.31165 37.7574 6.96575 37.6142 6.71307 37.3614L9.54249 34.5339C9.04454 34.0356 8.37243 33.7574 7.66862 33.7574V37.7574ZM6.71333 37.3616C6.1859 36.834 6.18556 35.9798 6.71357 35.4518L9.54199 38.2803C10.5763 37.2459 10.576 35.5678 9.54223 34.5337L6.71333 37.3616Z" fill="#F1E1D5" mask="url(#path-11-inside-5)"/>
<mask id="path-13-inside-6" fill="white">
<path d="M37.8298 35.0614C37.4704 34.7019 36.9925 34.5039 36.4841 34.5039C35.9758 34.5039 35.498 34.7018 35.1385 35.0613C34.3966 35.8033 34.3966 37.0105 35.1385 37.7525C35.4979 38.112 35.9758 38.3099 36.4841 38.3099C36.9925 38.3099 37.4704 38.112 37.8297 37.7526C38.1892 37.3932 38.3871 36.9153 38.3871 36.407C38.3871 35.8987 38.1892 35.4208 37.8298 35.0614ZM36.9433 36.8661C36.8207 36.9888 36.6577 37.0563 36.4841 37.0563C36.3107 37.0563 36.1476 36.9888 36.025 36.8661C35.7718 36.613 35.7718 36.201 36.025 35.9478C36.1476 35.8252 36.3107 35.7576 36.4841 35.7576C36.6577 35.7576 36.8207 35.8251 36.9434 35.9478C37.066 36.0705 37.1336 36.2335 37.1336 36.407C37.1336 36.5803 37.0661 36.7434 36.9433 36.8661Z"/>
</mask>
<path d="M37.8298 35.0614C37.4704 34.7019 36.9925 34.5039 36.4841 34.5039C35.9758 34.5039 35.498 34.7018 35.1385 35.0613C34.3966 35.8033 34.3966 37.0105 35.1385 37.7525C35.4979 38.112 35.9758 38.3099 36.4841 38.3099C36.9925 38.3099 37.4704 38.112 37.8297 37.7526C38.1892 37.3932 38.3871 36.9153 38.3871 36.407C38.3871 35.8987 38.1892 35.4208 37.8298 35.0614ZM36.9433 36.8661C36.8207 36.9888 36.6577 37.0563 36.4841 37.0563C36.3107 37.0563 36.1476 36.9888 36.025 36.8661C35.7718 36.613 35.7718 36.201 36.025 35.9478C36.1476 35.8252 36.3107 35.7576 36.4841 35.7576C36.6577 35.7576 36.8207 35.8251 36.9434 35.9478C37.066 36.0705 37.1336 36.2335 37.1336 36.407C37.1336 36.5803 37.0661 36.7434 36.9433 36.8661Z" fill="#F1DBCE"/>
<path d="M37.8298 35.0614L36.4155 36.4754L36.4156 36.4756L37.8298 35.0614ZM35.1385 35.0613L33.7244 33.6469L33.7242 33.6472L35.1385 35.0613ZM35.1385 37.7525L33.7242 39.1666L33.7242 39.1667L35.1385 37.7525ZM37.8297 37.7526L36.4157 36.3382L36.4155 36.3384L37.8297 37.7526ZM36.9433 36.8661L35.5296 35.4514L35.5291 35.4519L36.9433 36.8661ZM39.2442 33.6473C38.5097 32.9127 37.5231 32.5039 36.4841 32.5039V36.5039C36.4773 36.5039 36.4636 36.5023 36.4474 36.4956C36.4312 36.4888 36.4204 36.4803 36.4155 36.4754L39.2442 33.6473ZM36.4841 32.5039C35.4453 32.5039 34.4589 32.9126 33.7244 33.6469L36.5525 36.4757C36.5478 36.4804 36.5371 36.4889 36.5209 36.4956C36.5047 36.5023 36.491 36.5039 36.4841 36.5039V32.5039ZM33.7242 33.6472C32.2013 35.1702 32.2013 37.6436 33.7242 39.1666L36.5527 36.3384C36.5606 36.3462 36.5692 36.3586 36.575 36.3729C36.5803 36.3859 36.582 36.3973 36.582 36.4069C36.582 36.4164 36.5803 36.4279 36.575 36.4409C36.5692 36.4552 36.5606 36.4676 36.5527 36.4754L33.7242 33.6472ZM33.7242 39.1667C34.4588 39.9013 35.4455 40.3099 36.4841 40.3099V36.3099C36.491 36.3099 36.5046 36.3115 36.5208 36.3182C36.537 36.3249 36.5478 36.3334 36.5527 36.3383L33.7242 39.1667ZM36.4841 40.3099C37.5229 40.3099 38.5094 39.9013 39.244 39.1668L36.4155 36.3384C36.4204 36.3335 36.4313 36.3249 36.4475 36.3182C36.4637 36.3115 36.4774 36.3099 36.4841 36.3099V40.3099ZM39.2438 39.167C39.9786 38.4324 40.3871 37.4456 40.3871 36.407H36.3871C36.3871 36.4001 36.3888 36.3865 36.3955 36.3703C36.4022 36.3541 36.4107 36.3432 36.4157 36.3382L39.2438 39.167ZM40.3871 36.407C40.3871 35.3684 39.9786 34.3817 39.244 33.6472L36.4156 36.4756C36.4107 36.4706 36.4022 36.4598 36.3955 36.4436C36.3888 36.4274 36.3871 36.4138 36.3871 36.407H40.3871ZM35.5291 35.4519C35.7815 35.1995 36.1272 35.0563 36.4841 35.0563V39.0563C37.1881 39.0563 37.8598 38.778 38.3575 38.2804L35.5291 35.4519ZM36.4841 35.0563C36.841 35.0563 37.1867 35.1994 37.4392 35.4519L34.6108 38.2804C35.1086 38.7781 35.7804 39.0563 36.4841 39.0563V35.0563ZM37.4392 35.4519C37.9671 35.9798 37.9671 36.8342 37.4392 37.362L34.6108 34.5336C33.5765 35.5678 33.5765 37.2461 34.6108 38.2804L37.4392 35.4519ZM37.4392 37.362C37.1872 37.6141 36.8417 37.7576 36.4841 37.7576V33.7576C35.7797 33.7576 35.1081 34.0363 34.6108 34.5336L37.4392 37.362ZM36.4841 37.7576C36.127 37.7576 35.7814 37.6142 35.5292 37.362L38.3576 34.5336C37.86 34.036 37.1883 33.7576 36.4841 33.7576V37.7576ZM35.5292 37.362C35.2768 37.1096 35.1336 36.764 35.1336 36.407H39.1336C39.1336 35.703 38.8553 35.0313 38.3576 34.5336L35.5292 37.362ZM35.1336 36.407C35.1336 36.0503 35.2766 35.7043 35.5296 35.4514L38.357 38.2809C38.8556 37.7826 39.1336 37.1104 39.1336 36.407H35.1336Z" fill="#F1E1D5" mask="url(#path-13-inside-6)"/>
</svg>
