<svg width="43" height="44" viewBox="0 0 43 44" fill="none" xmlns="http://www.w3.org/2000/svg">
<path d="M15.065 21.2497C13.4374 19.3687 11.2674 18.3333 8.95325 18.3333C6.63913 18.3333 4.46906 19.3687 2.84223 21.2497C-0.463035 25.0711 -0.463035 31.2876 2.84223 35.109L8.95325 42.1732L15.0643 35.109C18.3702 31.2876 18.3702 25.0711 15.065 21.2497ZM13.9914 34.1366L8.95397 39.96L3.9158 34.1366C1.0735 30.852 1.0735 25.5067 3.9158 22.2221C5.26672 20.6601 7.05623 19.7999 8.95325 19.7999C10.8503 19.7999 12.6405 20.6601 13.9907 22.2221C16.833 25.5067 16.833 30.8513 13.9914 34.1366Z" fill="#F1DBCE"/>
<path d="M34.9363 17.9718L39.5688 12.6287C42.0614 9.75407 42.0614 5.07833 39.5688 2.20367C38.3361 0.782467 36.6907 0 34.9355 0C33.1811 0 31.5357 0.782467 30.303 2.20367C27.8105 5.07833 27.8105 9.75407 30.303 12.6287L34.9363 17.9718ZM31.3752 3.17753C32.3319 2.07387 33.5961 1.46667 34.9355 1.46667C36.2757 1.46667 37.5399 2.07387 38.4967 3.17753C40.5234 5.51467 40.5234 9.31773 38.4967 11.6549L34.9363 15.7623L31.3752 11.6549C29.3484 9.31773 29.3484 5.51467 31.3752 3.17753Z" fill="#F1DBCE"/>
<path d="M37.6998 39.9792C37.3135 39.8905 36.9301 40.1383 36.8434 40.5336C36.761 40.9076 36.6012 41.2515 36.3682 41.5544C36.1239 41.8727 36.1769 42.3339 36.4886 42.584C36.6205 42.6896 36.776 42.7409 36.9308 42.7409C37.1437 42.7409 37.3537 42.6449 37.4948 42.4608C37.856 41.9915 38.114 41.4371 38.2416 40.8563C38.3283 40.4603 38.0861 40.0679 37.6998 39.9792Z" fill="#F1DBCE"/>
<path d="M22.928 22.7333C22.6177 22.7326 22.316 22.6761 22.0307 22.5646C21.6638 22.4216 21.2474 22.6101 21.1055 22.9885C20.965 23.3669 21.1507 23.7908 21.5197 23.9352C21.9684 24.1098 22.4407 24.1992 22.9266 24.2H23.1824C23.5787 24.2 23.8991 23.8722 23.8991 23.4666C23.8991 23.0611 23.5787 22.7333 23.1824 22.7333H22.928Z" fill="#F1DBCE"/>
<path d="M21.2296 18.0957C21.3593 18.0957 21.4898 18.0597 21.608 17.9849C21.9255 17.7825 22.2767 17.6586 22.65 17.6161C23.0435 17.5713 23.3273 17.2091 23.2843 16.8065C23.2413 16.4039 22.8894 16.1164 22.4931 16.1575C21.904 16.2242 21.3507 16.4193 20.8491 16.7397C20.5129 16.9539 20.4112 17.4063 20.6204 17.7503C20.7566 17.9732 20.9902 18.0957 21.2296 18.0957Z" fill="#F1DBCE"/>
<path d="M12.9469 42.5332H11.5135C11.1172 42.5332 10.7969 42.861 10.7969 43.2665C10.7969 43.6721 11.1172 43.9999 11.5135 43.9999H12.9469C13.3432 43.9999 13.6635 43.6721 13.6635 43.2665C13.6635 42.861 13.3425 42.5332 12.9469 42.5332Z" fill="#F1DBCE"/>
<path d="M25.7964 29.3333C25.7348 29.3333 25.6738 29.3347 25.6129 29.3377C25.2173 29.3538 24.9106 29.6955 24.9264 30.1003C24.9414 30.4949 25.2596 30.8036 25.6416 30.8036C25.6516 30.8036 25.6617 30.8036 25.6717 30.8029L27.0756 30.7999C27.472 30.7999 27.7923 30.4721 27.7923 30.0666C27.7923 29.6611 27.472 29.3333 27.0756 29.3333H25.7964Z" fill="#F1DBCE"/>
<path d="M25.4354 17.6H26.8687C27.2651 17.6 27.5854 17.2722 27.5854 16.8666C27.5854 16.4611 27.2651 16.1333 26.8687 16.1333H25.4354C25.0391 16.1333 24.7188 16.4611 24.7188 16.8666C24.7188 17.2722 25.0391 17.6 25.4354 17.6Z" fill="#F1DBCE"/>
<path d="M34.2401 29.3333C33.8438 29.3333 33.5234 29.6611 33.5234 30.0666C33.5234 30.4721 33.8438 30.7999 34.2401 30.7999H35.6734C36.0698 30.7999 36.3901 30.4721 36.3901 30.0666C36.3901 29.6611 36.0698 29.3333 35.6734 29.3333H34.2401Z" fill="#F1DBCE"/>
<path d="M36.8003 23.4667C36.8003 23.0612 36.4799 22.7334 36.0836 22.7334H34.6503C34.2539 22.7334 33.9336 23.0612 33.9336 23.4667C33.9336 23.8723 34.2539 24.2001 34.6503 24.2001H36.0836C36.4792 24.2001 36.8003 23.8723 36.8003 23.4667Z" fill="#F1DBCE"/>
<path d="M29.9432 30.7999H31.3766C31.7729 30.7999 32.0932 30.4721 32.0932 30.0666C32.0932 29.6611 31.7729 29.3333 31.3766 29.3333H29.9432C29.5469 29.3333 29.2266 29.6611 29.2266 30.0666C29.2266 30.4721 29.5476 30.7999 29.9432 30.7999Z" fill="#F1DBCE"/>
<path d="M31.1695 17.6C31.5658 17.6 31.8862 17.2722 31.8862 16.8666C31.8862 16.4611 31.5658 16.1333 31.1695 16.1333H29.7362C29.3399 16.1333 29.0195 16.4611 29.0195 16.8666C29.0195 17.2722 29.3399 17.6 29.7362 17.6H31.1695Z" fill="#F1DBCE"/>
<path d="M26.0526 22.7334C25.6563 22.7334 25.3359 23.0612 25.3359 23.4667C25.3359 23.8723 25.6563 24.2001 26.0526 24.2001H27.4859C27.8823 24.2001 28.2026 23.8723 28.2026 23.4667C28.2026 23.0612 27.8823 22.7334 27.4859 22.7334H26.0526Z" fill="#F1DBCE"/>
<path d="M32.5034 23.4667C32.5034 23.0612 32.183 22.7334 31.7867 22.7334H30.3534C29.9571 22.7334 29.6367 23.0612 29.6367 23.4667C29.6367 23.8723 29.9571 24.2001 30.3534 24.2001H31.7867C32.1823 24.2001 32.5034 23.8723 32.5034 23.4667Z" fill="#F1DBCE"/>
<path d="M42.5904 26.1302C42.5273 25.7298 42.1582 25.4563 41.7691 25.5223C41.3778 25.5861 41.1119 25.963 41.1749 26.3627C41.195 26.4932 41.2065 26.6259 41.205 26.7675C41.205 27.0139 41.1706 27.2573 41.1033 27.492C40.9922 27.8807 41.2093 28.2884 41.5899 28.4021C41.6573 28.4219 41.7246 28.4314 41.7913 28.4314C42.1016 28.4314 42.3875 28.2246 42.4793 27.9041C42.5846 27.5353 42.6384 27.1532 42.6384 26.7726C42.6398 26.5614 42.624 26.3451 42.5904 26.1302Z" fill="#F1DBCE"/>
<path d="M30.1461 42.5332H28.7128C28.3164 42.5332 27.9961 42.861 27.9961 43.2665C27.9961 43.6721 28.3164 43.9999 28.7128 43.9999H30.1461C30.5424 43.9999 30.8628 43.6721 30.8628 43.2665C30.8628 42.861 30.5417 42.5332 30.1461 42.5332Z" fill="#F1DBCE"/>
<path d="M25.8453 42.5332H24.412C24.0157 42.5332 23.6953 42.861 23.6953 43.2665C23.6953 43.6721 24.0157 43.9999 24.412 43.9999H25.8453C26.2416 43.9999 26.562 43.6721 26.562 43.2665C26.562 42.861 26.2409 42.5332 25.8453 42.5332Z" fill="#F1DBCE"/>
<path d="M33.73 36.6667C33.73 36.2612 33.4096 35.9333 33.0133 35.9333H31.5799C31.1836 35.9333 30.8633 36.2612 30.8633 36.6667C30.8633 37.0722 31.1836 37.4 31.5799 37.4H33.0133C33.4089 37.4 33.73 37.0722 33.73 36.6667Z" fill="#F1DBCE"/>
<path d="M29.4292 36.6667C29.4292 36.2612 29.1088 35.9333 28.7125 35.9333H27.2792C26.8828 35.9333 26.5625 36.2612 26.5625 36.6667C26.5625 37.0722 26.8828 37.4 27.2792 37.4H28.7125C29.1081 37.4 29.4292 37.0722 29.4292 36.6667Z" fill="#F1DBCE"/>
<path d="M34.3967 42.5332H33.0135C32.6172 42.5332 32.2969 42.861 32.2969 43.2665C32.2969 43.6721 32.6172 43.9999 33.0135 43.9999L34.4261 43.9991L34.4469 43.2658V43.9991C34.8432 43.9991 35.1385 43.6713 35.1385 43.2658C35.1385 42.861 34.793 42.5332 34.3967 42.5332Z" fill="#F1DBCE"/>
<path d="M36.9296 38.6606C37.0844 38.6606 37.2413 38.6093 37.3717 38.5037C37.6835 38.2529 37.7365 37.7916 37.4922 37.4741C37.1317 37.0055 36.6665 36.6183 36.1455 36.3535C35.7893 36.1724 35.3608 36.3213 35.1845 36.6835C35.0082 37.0465 35.1529 37.4865 35.507 37.6669C35.8388 37.8349 36.1355 38.082 36.3648 38.3812C36.5067 38.5645 36.7167 38.6606 36.9296 38.6606Z" fill="#F1DBCE"/>
<path d="M39.6639 29.1345C39.3565 29.2665 39.0311 29.3333 38.695 29.3333H38.5409C38.1446 29.3333 37.8242 29.6611 37.8242 30.0666C37.8242 30.4721 38.1446 30.7999 38.5409 30.7999H38.695C39.2224 30.7999 39.7349 30.6943 40.2179 30.4868C40.5834 30.3299 40.7547 29.9001 40.6013 29.5269C40.4487 29.1536 40.0258 28.9776 39.6639 29.1345Z" fill="#F1DBCE"/>
<path d="M20.0891 21.8935C20.4646 21.7667 20.6696 21.3523 20.5463 20.9673C20.4639 20.7099 20.4216 20.4408 20.4216 20.1695C20.4223 20.0587 20.4288 19.948 20.4417 19.8402C20.4911 19.4383 20.2131 19.0709 19.8203 19.0211C19.4154 18.9749 19.0685 19.2565 19.0198 19.6569C18.9997 19.8226 18.989 19.9913 18.9883 20.1658C18.9883 20.597 19.0542 21.0209 19.1839 21.4257C19.2835 21.7344 19.5638 21.9302 19.8648 21.9302C19.9393 21.9302 20.0153 21.9192 20.0891 21.8935Z" fill="#F1DBCE"/>
<path d="M17.2438 42.5332H15.8104C15.4141 42.5332 15.0938 42.861 15.0938 43.2665C15.0938 43.6721 15.4141 43.9999 15.8104 43.9999H17.2438C17.6401 43.9999 17.9604 43.6721 17.9604 43.2665C17.9604 42.861 17.6394 42.5332 17.2438 42.5332Z" fill="#F1DBCE"/>
<path d="M24.4522 37.1022C24.7246 37.1022 24.984 36.9431 25.1044 36.6739C25.2685 36.3051 25.1109 35.8702 24.7511 35.7023C24.415 35.5446 24.1104 35.3077 23.871 35.0159C23.6159 34.7057 23.1644 34.6653 22.8612 34.9264C22.5581 35.1867 22.5187 35.6495 22.7738 35.9597C23.1493 36.4165 23.6266 36.7891 24.1548 37.0355C24.2516 37.0802 24.3526 37.1022 24.4522 37.1022Z" fill="#F1DBCE"/>
<path d="M40.6675 23.2746C40.1558 22.971 39.5968 22.7928 39.007 22.7452C38.6136 22.7158 38.2674 23.0143 38.2366 23.4191C38.2058 23.8232 38.5003 24.1759 38.8952 24.2074C39.2693 24.2375 39.6241 24.3504 39.9487 24.5433C40.0619 24.6108 40.1859 24.6423 40.3078 24.6423C40.555 24.6423 40.7958 24.511 40.9284 24.2771C41.1269 23.9273 41.0101 23.4785 40.6675 23.2746Z" fill="#F1DBCE"/>
<path d="M21.5445 42.5332H20.1112C19.7149 42.5332 19.3945 42.861 19.3945 43.2665C19.3945 43.6721 19.7149 43.9999 20.1112 43.9999H21.5445C21.9409 43.9999 22.2612 43.6721 22.2612 43.2665C22.2612 42.861 21.9401 42.5332 21.5445 42.5332Z" fill="#F1DBCE"/>
<path d="M23.3314 32.8819C23.4023 32.505 23.5514 32.1566 23.775 31.8457C24.0093 31.5201 23.9413 31.061 23.6223 30.8205C23.3034 30.5814 22.8555 30.6504 22.6204 30.9767C22.27 31.4651 22.0349 32.0129 21.9231 32.6062C21.8486 33.0036 22.103 33.3879 22.4922 33.4649C22.5373 33.4737 22.5832 33.4781 22.6276 33.4781C22.9644 33.4766 23.2647 33.2324 23.3314 32.8819Z" fill="#F1DBCE"/>
<path d="M35.1096 11C37.2826 11 39.0513 9.19015 39.0513 6.96668C39.0513 4.74322 37.2826 2.93335 35.1096 2.93335C32.9367 2.93335 31.168 4.74322 31.168 6.96668C31.168 9.19015 32.9367 11 35.1096 11ZM35.1096 4.40002C36.4928 4.40002 37.618 5.55135 37.618 6.96668C37.618 8.38202 36.4928 9.53335 35.1096 9.53335C33.7265 9.53335 32.6013 8.38202 32.6013 6.96668C32.6013 5.55135 33.7272 4.40002 35.1096 4.40002Z" fill="#F1DBCE"/>
<path d="M8.95234 22.7334C6.58089 22.7334 4.65234 24.7068 4.65234 27.1334C4.65234 29.56 6.58089 31.5334 8.95234 31.5334C11.3238 31.5334 13.2523 29.56 13.2523 27.1334C13.2523 24.7068 11.3238 22.7334 8.95234 22.7334ZM8.95234 30.0667C7.37138 30.0667 6.08568 28.7511 6.08568 27.1334C6.08568 25.5157 7.37138 24.2001 8.95234 24.2001C10.5333 24.2001 11.819 25.5157 11.819 27.1334C11.819 28.7511 10.5333 30.0667 8.95234 30.0667Z" fill="#F1DBCE"/>
</svg>
