<svg width="57" height="59" viewBox="0 0 57 59" fill="none" xmlns="http://www.w3.org/2000/svg">
<path d="M36.6797 26.467C36.6797 33.3161 39.5488 38.6819 43.2124 38.6819C46.876 38.6819 49.7452 33.3161 49.7452 26.467C49.7452 19.618 46.876 14.2522 43.2124 14.2522C39.5488 14.2522 36.6797 19.618 36.6797 26.467ZM48.1866 26.467C48.1866 32.214 45.9088 37.0686 43.2124 37.0686C40.5161 37.0686 38.2383 32.214 38.2383 26.467C38.2383 20.7201 40.5161 15.8655 43.2124 15.8655C45.9088 15.8655 48.1866 20.7201 48.1866 26.467Z" fill="#F1DBCE"/>
<path d="M56.2129 -0.0185547H30.2111C30.0045 -0.0183107 29.8064 0.0667528 29.6603 0.217974C29.5142 0.369196 29.432 0.574226 29.4318 0.788086V4.79824C29.4318 4.81207 29.4362 4.8259 29.4362 4.83973C29.434 4.85191 29.434 4.86442 29.4362 4.8766L31.7207 28.8085H30.8034V28.0295C30.8025 27.095 30.4887 26.1897 29.9155 25.4678C29.3423 24.7459 28.545 24.2519 27.6595 24.07C27.525 21.0235 26.5311 18.0846 24.8005 15.6164L22.8723 12.8646C22.8014 12.7631 22.7085 12.6801 22.601 12.6225C22.4935 12.5649 22.3744 12.5341 22.2534 12.5328C22.1318 12.527 22.0108 12.5527 21.9012 12.6074C21.7916 12.6621 21.6968 12.7442 21.6255 12.8462L19.3098 15.976C18.5681 16.9711 17.6163 17.7776 16.5273 18.3336C15.4382 18.8896 14.2408 19.1806 13.0265 19.1841C11.7108 19.1856 10.4404 19.6812 9.45105 20.5789C8.46172 21.4767 7.82073 22.7155 7.64711 24.0654C6.75477 24.2402 5.94933 24.7318 5.36969 25.4554C4.79006 26.1791 4.47259 27.0895 4.47203 28.0295V28.8085H3.42555C3.21894 28.8087 3.02086 28.8938 2.87476 29.045C2.72867 29.1962 2.64649 29.4013 2.64625 29.6151V34.9251H0.771486C0.669082 34.9249 0.567639 34.9456 0.472985 34.986C0.37833 35.0265 0.292328 35.0859 0.219916 35.1608C0.147505 35.2358 0.0901117 35.3248 0.0510316 35.4228C0.0119515 35.5208 -0.00804533 35.6258 -0.00781045 35.7318V44.826C-0.00127489 49.855 1.62356 54.7383 4.61008 58.7049C4.6824 58.8024 4.77545 58.8815 4.88202 58.9358C4.98858 58.9902 5.10581 59.0184 5.22461 59.0183H30.0508C30.1696 59.0184 30.2868 58.9902 30.3934 58.9358C30.4999 58.8815 30.593 58.8024 30.6653 58.7049C31.8506 57.1295 32.8284 55.3981 33.5732 53.5562V56.331C33.574 57.0337 33.8441 57.7074 34.3241 58.2042C34.8041 58.7011 35.4549 58.9806 36.1337 58.9814H50.2101C50.8891 58.9813 51.5403 58.702 52.0205 58.205C52.5007 57.708 52.7705 57.0339 52.7706 56.331V48.4813C52.8118 48.3979 52.8375 48.3072 52.8463 48.2139L56.9877 4.8766V4.83973C56.9877 4.8259 56.9922 4.81207 56.9922 4.79824V0.788086C56.9919 0.574226 56.9098 0.369196 56.7637 0.217974C56.6176 0.0667528 56.4195 -0.0183107 56.2129 -0.0185547ZM6.03063 28.0295C6.03251 27.3867 6.28065 26.7709 6.72061 26.3172C7.16057 25.8636 7.75641 25.6091 8.37742 25.6096H14.9814C15.1881 25.6096 15.3863 25.5246 15.5325 25.3733C15.6786 25.222 15.7607 25.0169 15.7607 24.8029C15.7607 24.589 15.6786 24.3838 15.5325 24.2325C15.3863 24.0813 15.1881 23.9963 14.9814 23.9963H9.23687C9.41705 23.0934 9.89226 22.2824 10.5825 21.6998C11.2727 21.1171 12.1358 20.7985 13.0265 20.7974C14.4794 20.7931 15.912 20.445 17.2149 19.7795C18.5178 19.114 19.6563 18.1488 20.5434 16.9578L22.2266 14.69L23.5359 16.566C25.0605 18.7364 25.9467 21.3167 26.0875 23.9963H24.5823C24.3757 23.9963 24.1774 24.0813 24.0313 24.2325C23.8851 24.3838 23.803 24.589 23.803 24.8029C23.803 25.0169 23.8851 25.222 24.0313 25.3733C24.1774 25.5246 24.3757 25.6096 24.5823 25.6096H26.7466C26.772 25.6088 26.7973 25.6057 26.8223 25.6003C26.8457 25.6057 26.8695 25.6088 26.8935 25.6096H26.9069C27.5265 25.611 28.1203 25.8665 28.5584 26.32C28.9966 26.7735 29.2433 27.3881 29.2448 28.0295V28.8085H6.03063V28.0295ZM4.20484 33.4778H13.6855C13.8922 33.4778 14.0904 33.3928 14.2366 33.2415C14.3827 33.0902 14.4648 32.8851 14.4648 32.6711C14.4648 32.4572 14.3827 32.252 14.2366 32.1007C14.0904 31.9495 13.8922 31.8645 13.6855 31.8645H4.20484V30.4218H31.0705V31.8645H21.5898C21.3832 31.8645 21.1849 31.9495 21.0388 32.1007C20.8927 32.252 20.8105 32.4572 20.8105 32.6711C20.8105 32.8851 20.8927 33.0902 21.0388 33.2415C21.1849 33.3928 21.3832 33.4778 21.5898 33.4778H31.0705V34.9251H4.20484V33.4778ZM33.7246 44.826C33.7246 45.2455 33.7068 45.6742 33.6801 46.1028C33.6756 46.1628 33.6756 46.2273 33.6712 46.2872C33.64 46.7067 33.5999 47.1261 33.5465 47.5456C33.0906 51.1224 31.7533 54.5177 29.6634 57.405H5.60758C2.98096 53.7742 1.55802 49.362 1.55078 44.826V36.5384H33.7246V44.826ZM51.212 56.331C51.2117 56.606 51.106 56.8696 50.9182 57.064C50.7303 57.2584 50.4757 57.3678 50.2101 57.3682H36.1337C35.8681 57.3678 35.6135 57.2584 35.4256 57.064C35.2378 56.8696 35.1321 56.606 35.1318 56.331V52.1089H51.212V56.331ZM51.212 50.4956H35.1318V48.9422H51.212V50.4956ZM51.3634 47.3289H35.1451C35.1496 47.2736 35.1541 47.2229 35.1585 47.1676C35.1897 46.8588 35.2164 46.55 35.2342 46.2411C35.2387 46.1489 35.2476 46.0568 35.252 45.9646C35.2698 45.5866 35.2832 45.204 35.2832 44.826V35.7318C35.2834 35.6258 35.2634 35.5208 35.2244 35.4228C35.1853 35.3248 35.1279 35.2358 35.0555 35.1608C34.9831 35.0859 34.8971 35.0265 34.8024 34.986C34.7077 34.9456 34.6063 34.9249 34.5039 34.9251H33.8716L31.0705 5.60488H55.3534L51.3634 47.3289ZM55.4336 3.9916H30.9904V1.59473H55.4336V3.9916Z" fill="#F1DBCE"/>
<path d="M24.5801 43.9863C24.5801 43.7724 24.498 43.5672 24.3519 43.416C24.2057 43.2647 24.0075 43.1797 23.8008 43.1797C22.6614 43.1765 21.5392 43.4666 20.5349 44.0237C20.0743 42.7217 19.1879 41.6276 18.0296 40.9313C17.9109 40.86 17.7762 40.8225 17.639 40.8225C17.5019 40.8225 17.3672 40.86 17.2485 40.9313C16.0905 41.6279 15.2046 42.7221 14.7445 44.0241C13.7403 43.467 12.618 43.177 11.4786 43.1802C11.2719 43.1802 11.0737 43.2652 10.9275 43.4164C10.7814 43.5677 10.6993 43.7729 10.6993 43.9868V44.0947C10.6991 45.712 11.2293 47.2816 12.2031 48.5464C11.6269 48.9316 11.1473 49.4529 10.8039 50.0675C10.7353 50.1903 10.6992 50.3296 10.6992 50.4715C10.6992 50.6134 10.7353 50.7527 10.8039 50.8755C11.1371 51.4736 11.5993 51.984 12.1544 52.3668C12.7094 52.7496 13.3425 52.9946 14.004 53.0825C14.6656 53.1704 15.3379 53.099 15.9684 52.8738C16.5989 52.6485 17.1707 52.2756 17.639 51.784C18.1074 52.2756 18.6791 52.6485 19.3096 52.8737C19.9401 53.0989 20.6124 53.1703 21.2739 53.0823C21.9355 52.9943 22.5685 52.7493 23.1235 52.3665C23.6785 51.9836 24.1406 51.4732 24.4737 50.8751C24.5423 50.7523 24.5784 50.6131 24.5784 50.4713C24.5784 50.3295 24.5423 50.1902 24.4737 50.0675C24.1304 49.453 23.651 48.9316 23.075 48.5464C24.0492 47.2815 24.5798 45.7119 24.5801 44.0942V43.9863ZM20.8756 45.6886C21.509 45.2605 22.2235 44.9776 22.9712 44.8589C22.8486 45.7393 22.5259 46.5771 22.0297 47.3034C21.5335 48.0297 20.8779 48.6238 20.1168 49.0368C20.2009 48.9907 20.2708 48.7142 20.3082 48.6308C20.4244 48.3752 20.5255 48.1126 20.6111 47.8444C20.8265 47.1488 20.9156 46.4178 20.8738 45.6886H20.8756ZM17.639 42.5906C18.1609 42.9902 18.5849 43.5108 18.8772 44.1108C19.1694 44.7107 19.3216 45.3732 19.3216 46.0451C19.3216 46.717 19.1694 47.3795 18.8772 47.9795C18.5849 48.5794 18.1609 49.1001 17.639 49.4996C17.1171 49.1001 16.693 48.5795 16.4007 47.9795C16.1084 47.3796 15.9562 46.717 15.9562 46.0451C15.9562 45.3732 16.1084 44.7107 16.4007 44.1107C16.693 43.5108 17.1171 42.9901 17.639 42.5906ZM14.4047 45.6886C14.3616 46.4126 14.4487 47.1386 14.6617 47.8296C14.7502 48.1179 14.8607 48.3984 14.9921 48.6685C15.0537 48.7867 15.109 48.9083 15.1578 49.0327C14.3979 48.6194 13.7434 48.0256 13.248 47.2999C12.7526 46.5742 12.4304 45.7374 12.3078 44.858C13.056 44.9769 13.771 45.2601 14.4047 45.6886ZM14.5593 51.5047C14.1524 51.5037 13.7506 51.4106 13.3822 51.2318C13.0138 51.053 12.6877 50.793 12.4267 50.4699C12.6768 50.1605 12.9871 49.9092 13.3373 49.7324C14.1259 50.3739 15.038 50.8333 16.0123 51.0797C15.5756 51.3573 15.0731 51.5044 14.5606 51.5047H14.5593ZM20.7193 51.5047C20.206 51.5042 19.703 51.3563 19.2662 51.0774C20.2405 50.831 21.1526 50.3716 21.9412 49.7301C22.2915 49.9068 22.6019 50.1581 22.8519 50.4676C22.5911 50.7912 22.265 51.0518 21.8965 51.231C21.5279 51.4101 21.126 51.5036 20.7188 51.5047H20.7193Z" fill="#F1DBCE"/>
<path d="M21.7065 23.9963H20.1426C19.9359 23.9963 19.7377 24.0813 19.5915 24.2326C19.4454 24.3839 19.3633 24.589 19.3633 24.803C19.3633 25.0169 19.4454 25.2221 19.5915 25.3734C19.7377 25.5246 19.9359 25.6096 20.1426 25.6096H21.7065C21.9132 25.6096 22.1114 25.5246 22.2576 25.3734C22.4037 25.2221 22.4858 25.0169 22.4858 24.803C22.4858 24.589 22.4037 24.3839 22.2576 24.2326C22.1114 24.0813 21.9132 23.9963 21.7065 23.9963Z" fill="#F1DBCE"/>
</svg>
