<svg width="76" height="59" viewBox="0 0 76 59" fill="none" xmlns="http://www.w3.org/2000/svg">
<path d="M63.7212 41.0871L63.7212 41.0872C67.0951 42.0839 69.2506 43.1315 70.5686 44.0639C71.2277 44.5302 71.6833 44.9719 71.9763 45.3697C72.267 45.7643 72.4101 46.1331 72.4101 46.4486C72.4101 46.8908 72.1847 47.343 71.8008 47.7843C71.4142 48.2286 70.8461 48.6863 70.1085 49.1446C68.6325 50.0618 66.4422 51.0036 63.5616 51.852C57.7975 53.5496 49.2335 54.8841 38.0023 54.8841C34.2508 54.8841 30.5571 54.7221 27.0242 54.4029L27.0218 54.4027C26.841 54.3846 26.6585 54.4046 26.4846 54.4617C26.3106 54.5188 26.1482 54.6121 26.0069 54.7369C25.8655 54.8617 25.7481 55.0157 25.6621 55.1904C25.576 55.3651 25.5232 55.5566 25.5072 55.754C25.4911 55.9514 25.5122 56.15 25.569 56.3383C25.6258 56.5266 25.717 56.7003 25.8367 56.8497M63.7212 41.0871L25.8367 56.8497M63.7212 41.0871C63.3691 40.9833 63.0661 40.7343 62.8824 40.3896C62.6986 40.0446 62.6512 39.6348 62.7522 39.2514C62.8531 38.8683 63.0926 38.5475 63.4131 38.3562C63.7329 38.1652 64.1094 38.1173 64.4609 38.221L64.5316 37.9815L64.4609 38.221C68.0662 39.2847 70.7594 40.5194 72.5463 41.9068C74.3292 43.2909 75.1895 44.8088 75.1895 46.4516C75.1895 48.2491 74.086 49.8684 72.0617 51.2974C70.0387 52.7255 67.1341 53.9342 63.6297 54.9096C56.6242 56.8596 47.2886 57.8598 38.0004 57.8598C34.1705 57.8598 30.398 57.6914 26.7879 57.3647L26.7859 57.3645C26.6049 57.3496 26.4279 57.2969 26.265 57.2089C26.1022 57.1208 25.9564 56.999 25.8367 56.8497M63.7212 41.0871L25.6417 57.006L25.8367 56.8497" fill="#F1DBCE" stroke="white" stroke-width="0.5"/>
<path d="M19.6365 13.4699C17.1429 12.8535 14.618 12.3881 12.0742 12.0762C11.8318 12.0479 11.5865 12.0778 11.3565 12.1637C11.1265 12.2496 10.9178 12.3892 10.7458 12.5723C10.574 12.7551 10.4427 12.9761 10.3617 13.2193C10.2806 13.4625 10.2517 13.7217 10.277 13.9782L19.6365 13.4699ZM19.6365 13.4699C19.6359 13.4877 19.6353 13.5056 19.6347 13.5234L19.8845 13.5317L19.9455 13.2893C19.9282 13.2849 19.9108 13.2805 19.8935 13.2762C20.0055 10.2548 20.3275 7.24618 20.8567 4.2746C20.9055 4.02181 21.0068 3.78369 21.1534 3.57752C21.2999 3.37136 21.488 3.20233 21.704 3.08271C21.92 2.96309 22.1585 2.89589 22.4021 2.88598C22.6457 2.87607 22.8883 2.92371 23.1123 3.02543L19.6365 13.4699ZM38.1871 43.4918L37.9996 43.28L37.8124 43.4921C37.2633 44.1142 36.6507 44.6695 35.9861 45.1477C34.1255 46.4678 31.647 47.2584 29.1058 47.7172C26.5679 48.1754 23.9887 48.299 21.9433 48.299C19.6906 48.299 18.0967 48.1491 17.921 48.1325C17.7177 48.1122 17.5205 48.0442 17.3435 47.9328C17.1663 47.8211 17.0136 47.6683 16.8972 47.4846C16.7809 47.3009 16.7041 47.0912 16.6732 46.8706C16.6425 46.6507 16.6582 46.4263 16.7192 46.2139C17.3731 44.0703 18.1522 41.9717 19.052 39.9305L19.2416 39.5004L18.779 39.5836C13.3338 40.5625 9.56444 41.8273 7.14938 43.0542C5.9425 43.6674 5.0652 44.2754 4.48572 44.8406C3.91434 45.3979 3.59766 45.9484 3.59766 46.4455C3.59766 46.798 3.7806 47.2184 4.14985 47.6687C4.52327 48.124 5.1057 48.6331 5.95285 49.1671C7.64718 50.2353 10.427 51.4201 14.7951 52.476C15.151 52.5621 15.4642 52.7953 15.6627 53.1299C15.8615 53.4649 15.9271 53.8717 15.8433 54.2598C15.7595 54.6478 15.5343 54.9806 15.2223 55.1879C14.9109 55.3949 14.5369 55.4613 14.1814 55.3753L14.1814 55.3753C11.0975 54.6301 7.73535 53.562 5.1498 52.0822C2.55265 50.5959 0.816406 48.741 0.816406 46.4455C0.816406 43.8238 3.03983 41.7722 6.3005 40.1823C9.5407 38.6024 13.7005 37.5318 17.3555 36.8287L17.7412 36.7545L17.5107 36.4365C14.7857 32.6764 13.0524 27.2291 11.993 22.6169C10.9353 18.012 10.5567 14.2737 10.5259 13.9542L10.5258 13.9536C10.5039 13.7319 10.5289 13.508 10.5988 13.2984C10.6687 13.0888 10.7815 12.8994 10.928 12.7435L10.928 12.7435C11.0743 12.5878 11.2508 12.47 11.4439 12.3979C11.6368 12.3259 11.8419 12.3009 12.0445 12.3244C14.6621 12.6454 17.2597 13.1295 19.8236 13.7742L20.1241 13.8497L20.1344 13.54C20.237 10.4453 20.5606 7.36329 21.1025 4.32033C21.1447 4.10261 21.232 3.89843 21.3571 3.72238C21.4826 3.54593 21.6427 3.40245 21.8251 3.30141C22.0075 3.20041 22.2081 3.14408 22.4122 3.13577C22.6158 3.12749 22.819 3.16711 23.0073 3.2523C26.1619 4.74472 29.1831 6.53535 32.034 8.60251L32.2577 8.76472L32.3968 8.52593C33.7785 6.15337 35.2912 3.86916 36.9269 1.68521C37.058 1.51457 37.2226 1.37813 37.4078 1.28478C37.5934 1.19125 37.7956 1.14307 37.9998 1.14307C38.2041 1.14307 38.4063 1.19125 38.5919 1.28478C38.7771 1.37811 38.9416 1.51453 39.0727 1.68512C40.7086 3.86933 42.2212 6.15389 43.6028 8.52689L43.7419 8.7658L43.9657 8.60346C46.8165 6.53521 49.838 4.74422 52.9933 3.2523C53.1816 3.1671 53.3847 3.12748 53.5882 3.13577C53.7923 3.14407 53.9927 3.2004 54.1751 3.30141C54.3574 3.40245 54.5175 3.54592 54.6428 3.72235C54.7679 3.89843 54.8551 4.10263 54.8972 4.32034C55.4397 7.36318 55.7633 10.4452 55.8653 13.5399L55.8755 13.8497L56.1761 13.7742C58.7396 13.1296 61.3368 12.6456 63.9541 12.3245C64.1569 12.3027 64.362 12.3288 64.5548 12.4013C64.7481 12.474 64.9249 12.5918 65.0718 12.7473C65.2188 12.9028 65.332 13.092 65.4024 13.3016C65.4727 13.5112 65.4982 13.7351 65.4766 13.957C65.4428 14.3021 65.009 18.593 63.7633 23.6643C62.5144 28.7485 60.4616 34.564 57.2169 37.998C57.0053 38.2219 56.7835 38.4315 56.5554 38.6433L56.4222 38.7669L56.4987 38.9318C57.5908 41.2854 58.5211 43.7195 59.2823 46.2151C59.3437 46.4274 59.3597 46.6518 59.3291 46.8719C59.2984 47.0924 59.2218 47.3022 59.1055 47.486C58.9892 47.6697 58.8365 47.8225 58.6592 47.9341C58.4821 48.0456 58.2847 48.1134 58.0813 48.1335C57.9066 48.1501 56.308 48.3 54.0592 48.3C52.0133 48.3 49.4343 48.1764 46.8972 47.7184C44.3566 47.2599 41.8792 46.4698 40.02 45.1506C39.3533 44.6713 38.7385 44.115 38.1871 43.4918ZM55.9376 45.0466V44.7879L55.8615 44.7905C55.46 43.6694 54.9073 42.236 54.2233 40.72L54.1138 40.4773L53.8785 40.6019C50.7002 42.2849 47.2074 43.1941 43.6556 43.2637L43.5657 43.745C47.397 45.3139 52.7711 45.3957 55.6961 45.2964L55.6891 45.0903L55.9376 45.0475V45.0466ZM42.3763 40.3118C46.0309 40.2946 51.3336 39.6249 54.8292 36.3177V36.3433L55.2609 35.8868C57.5377 33.4786 59.1598 29.6073 60.2957 25.7932C61.4342 21.9704 62.0949 18.167 62.43 15.8636L62.4786 15.5298L62.1451 15.5805C57.5274 16.2818 53.0098 17.5856 48.6954 19.4619L48.4957 19.5488L48.5544 19.7585C49.0187 21.419 49.2679 23.1387 49.2951 24.8704C49.2943 31.184 45.2766 36.636 42.1937 39.8899L41.7913 40.3146L42.3763 40.3118ZM52.5228 7.13436L52.2659 7.15214L52.1593 6.94824C49.7862 8.18875 47.5028 9.61248 45.3276 11.2078L45.1548 11.3346L45.2536 11.5247C46.0883 13.1305 46.8342 14.7864 47.4874 16.484L47.5828 16.7317L47.8244 16.6217C49.4862 15.8651 51.1903 15.2175 52.9272 14.6824L53.1074 14.6269L53.1035 14.4384C53.0533 11.9933 52.8594 9.55394 52.5228 7.13436ZM38.2053 5.35261L37.9998 5.05602L37.7943 5.3526C35.8866 8.10586 32.3205 13.6749 30.5509 19.1037L30.548 19.1125L30.5458 19.1215C30.5241 19.2098 30.4949 19.2956 30.4586 19.378L30.454 19.3884L30.4504 19.399C29.8587 21.1551 29.5329 22.9988 29.4849 24.862L29.4848 24.862V24.8684C29.4848 28.1675 30.8807 31.2615 32.5766 33.8055C34.2741 36.3516 36.2862 38.3679 37.5515 39.5166L37.6369 39.5942L37.7514 39.5795C37.9006 39.5604 38.0519 39.5671 38.1992 39.5995L38.3253 39.6273L38.4209 39.5405C39.6799 38.3984 41.6986 36.3822 43.4042 33.8315C45.1082 31.2832 46.5139 28.1801 46.5139 24.8694C46.5139 21.4728 45.0757 17.5239 43.3304 13.975C41.5815 10.419 39.5079 7.23269 38.2053 5.35261ZM23.8404 6.94827L23.526 6.78383L23.4769 7.13522C23.139 9.55472 22.9438 11.9941 22.8924 14.4393L22.8884 14.6279L23.0688 14.6835C24.8053 15.218 26.5092 15.8653 28.1706 16.6217L28.412 16.7316L28.5074 16.4842C29.1626 14.7867 29.91 13.1308 30.746 11.5248L30.845 11.3346L30.672 11.2078C28.4965 9.61298 26.2132 8.1893 23.8404 6.94827ZM27.4481 19.7596L27.5068 19.5499L27.3071 19.463C22.9929 17.5855 18.4752 16.2814 13.8574 15.5805L13.5239 15.5298L13.5724 15.8636C13.9075 18.1676 14.5692 21.9709 15.7084 25.7936C16.845 29.6076 18.4676 33.4786 20.7435 35.8868C24.2212 39.5663 29.8176 40.2939 33.6262 40.3118L34.2116 40.3146L33.8087 39.8898C30.7231 36.636 26.7081 31.185 26.7073 24.8713C26.7342 23.1396 26.9834 21.4199 27.4481 19.7596ZM20.0764 44.964L19.9624 45.2857L20.3035 45.2974C23.2275 45.3976 28.6056 45.316 32.4295 43.7459L32.3394 43.2647C28.7876 43.1951 25.2948 42.2859 22.1165 40.6029L21.8808 40.478L21.7715 40.7214C21.0555 42.3156 20.4821 43.8194 20.0764 44.964Z" fill="#F1DBCE" stroke="white" stroke-width="0.5"/>
</svg>
