<svg width="58" height="60" viewBox="0 0 58 60" fill="none" xmlns="http://www.w3.org/2000/svg">
<g clip-path="url(#clip0)">
<path d="M50.75 10.8984C51.3756 10.8984 51.8828 10.3738 51.8828 9.72656V3.51562C51.8828 1.57711 50.3583 0 48.4844 0H3.39844C1.52454 0 0 1.57711 0 3.51562V56.4844C0 58.4229 1.52454 60 3.39844 60H48.4844C50.3583 60 51.8828 58.4229 51.8828 56.4844V53.2031C51.8828 52.5559 51.3756 52.0312 50.75 52.0312C50.1243 52.0312 49.6172 52.5559 49.6172 53.2031V56.4844C49.6172 57.1305 49.109 57.6562 48.4844 57.6562H3.39844C2.7738 57.6562 2.26562 57.1305 2.26562 56.4844V3.51562C2.26562 2.86945 2.7738 2.34375 3.39844 2.34375H48.4844C49.109 2.34375 49.6172 2.86945 49.6172 3.51562V9.72656C49.6172 10.3738 50.1243 10.8984 50.75 10.8984Z" fill="#F1DBCE"/>
<path d="M45.3139 5.625H6.57031C5.94466 5.625 5.4375 6.14965 5.4375 6.79688V31.2891C5.4375 31.9363 5.94466 32.4609 6.57031 32.4609C7.19597 32.4609 7.70313 31.9363 7.70313 31.2891V7.96875H44.1811V9.84375C44.1811 10.491 44.6883 11.0156 45.3139 11.0156C45.9395 11.0156 46.4467 10.491 46.4467 9.84375V6.79688C46.4467 6.14965 45.9395 5.625 45.3139 5.625Z" fill="#F1DBCE"/>
<path d="M7.37121 34.7965C7.16051 34.5785 6.86938 34.4531 6.57031 34.4531C6.27238 34.4531 5.98012 34.5785 5.76941 34.7965C5.55871 35.0145 5.4375 35.3168 5.4375 35.625C5.4375 35.9332 5.55871 36.2355 5.76941 36.4535C5.98012 36.6715 6.27238 36.7969 6.57031 36.7969C6.86938 36.7969 7.16051 36.6715 7.37121 36.4535C7.58305 36.2355 7.70313 35.9332 7.70313 35.625C7.70313 35.3168 7.58305 35.0145 7.37121 34.7965Z" fill="#F1DBCE"/>
<path d="M45.3139 49.4531C44.6882 49.4531 44.1811 49.9778 44.1811 50.625V52.0312H7.70313V40.1367C7.70313 39.4895 7.19597 38.9648 6.57031 38.9648C5.94466 38.9648 5.4375 39.4895 5.4375 40.1367V53.2031C5.4375 53.8504 5.94466 54.375 6.57031 54.375H45.3139C45.9395 54.375 46.4467 53.8504 46.4467 53.2031V50.625C46.4467 49.9778 45.9395 49.4531 45.3139 49.4531Z" fill="#F1DBCE"/>
<path d="M35.1061 41.4065C34.6637 40.9488 33.9465 40.9488 33.5041 41.4064L31.2652 43.7226L29.8735 42.2829C28.9948 41.374 27.5653 41.374 26.6866 42.2829L25.781 43.2197C25.3386 43.6773 25.3386 44.4193 25.781 44.8771C26.2234 45.3347 26.9407 45.3347 27.3831 44.8771L28.2801 43.9492L29.6717 45.3889C30.1111 45.8434 30.6881 46.0706 31.2652 46.0706C31.8422 46.0706 32.4193 45.8434 32.8586 45.3889L35.1061 43.0639C35.5484 42.6063 35.5484 41.8643 35.1061 41.4065Z" fill="#F1DBCE"/>
<path d="M57.4806 24.5839C57.9798 23.7782 58.1289 22.7859 57.8894 21.8615C57.65 20.9371 57.0414 20.1549 56.2196 19.7154C55.8632 19.5249 55.645 19.134 55.6637 18.7195C55.7066 17.7635 55.3561 16.8271 54.702 16.1504C54.048 15.4737 53.1431 15.1106 52.2186 15.1556C51.816 15.1757 51.44 14.9491 51.2558 14.5805C50.831 13.7304 50.0749 13.1008 49.1813 12.8531C48.2874 12.6052 47.3285 12.7595 46.5498 13.276C46.2121 13.5001 45.7757 13.4999 45.4381 13.276C44.6593 12.7594 43.7003 12.6053 42.8066 12.8531C41.9131 13.1008 41.1569 13.7304 40.7321 14.5805C40.5479 14.9492 40.169 15.1743 39.7693 15.1556C38.8448 15.1109 37.9401 15.4737 37.286 16.1504C36.6318 16.8271 36.2813 17.7635 36.3242 18.7194C36.3429 19.134 36.1246 19.5249 35.7683 19.7154C34.9466 20.1549 34.3379 20.937 34.0985 21.8615C33.9842 22.3025 33.9593 22.7589 34.0179 23.2032H14.2503C13.6247 23.2032 13.1175 23.7278 13.1175 24.3751C13.1175 25.0223 13.6247 25.5469 14.2503 25.5469H34.5967C34.5723 25.6113 34.5441 25.6744 34.5072 25.734C34.0079 26.5396 33.8589 27.532 34.0983 28.4563C34.1312 28.5833 34.1716 28.7072 34.2181 28.8282H14.25C13.6243 28.8282 13.1172 29.3528 13.1172 30.0001C13.1172 30.6473 13.6243 31.1719 14.25 31.1719H36.2566C36.3059 31.3059 36.3306 31.4504 36.3239 31.5984C36.2809 32.5544 36.6314 33.4907 37.2856 34.1675C37.9397 34.8441 38.8445 35.2074 39.769 35.1623C40.1692 35.142 40.5476 35.3687 40.7318 35.7373C40.8678 36.0097 41.0383 36.2589 41.236 36.4808V47.4253C41.236 47.8987 41.5114 48.3256 41.9339 48.5074C42.3563 48.6891 42.8432 48.59 43.1678 48.256L45.9938 45.3478L48.8198 48.256C49.0364 48.4789 49.3252 48.5971 49.619 48.5971C49.7654 48.5971 49.9131 48.5677 50.0537 48.5073C50.4762 48.3255 50.7516 47.8986 50.7516 47.4251V36.4806C50.9493 36.2589 51.1198 36.0096 51.2558 35.7372C51.44 35.3685 51.8184 35.1433 52.2186 35.1622C53.1436 35.2074 54.0479 34.8441 54.7019 34.1674C55.3561 33.4906 55.7066 32.5543 55.6637 31.5983C55.645 31.1838 55.8633 30.7928 56.2196 30.6023C57.0413 30.1628 57.65 29.3807 57.8894 28.4562C58.1289 27.5317 57.9798 26.5395 57.4806 25.7337C57.264 25.3846 57.264 24.9332 57.4806 24.5839ZM48.486 44.6065L46.7926 42.864C46.3507 42.4092 45.6367 42.4092 45.1948 42.864L43.5016 44.6065V37.5762C44.1794 37.6093 44.8586 37.426 45.438 37.0419C45.7757 36.8178 46.2121 36.8179 46.5497 37.0419C47.0847 37.3967 47.7048 37.5806 48.3304 37.5806C48.3823 37.5806 48.4341 37.5779 48.486 37.5753V44.6065ZM55.701 27.8498C55.6251 28.1429 55.4396 28.3811 55.1791 28.5204C54.039 29.1302 53.3407 30.381 53.4004 31.7074C53.4142 32.0105 53.3073 32.2956 53.0999 32.5103C52.8925 32.7249 52.6169 32.8351 52.3238 32.8212C51.041 32.7598 49.8325 33.4817 49.2431 34.6612C49.1085 34.9308 48.8782 35.1226 48.5947 35.2011C48.3115 35.2795 48.0192 35.2327 47.7724 35.0689C47.2321 34.7105 46.613 34.5315 45.9937 34.5315C45.3746 34.5315 44.7553 34.7106 44.215 35.0689C43.9681 35.2326 43.6759 35.2795 43.3926 35.2011C43.1092 35.1226 42.879 34.9307 42.7442 34.6612C42.1548 33.4818 40.9465 32.7592 39.6635 32.8212C39.3711 32.8352 39.0948 32.7249 38.8874 32.5103C38.6799 32.2956 38.5732 32.0105 38.5869 31.7072C38.6289 30.7712 38.2921 29.8737 37.6903 29.2117C37.6726 29.1917 37.6546 29.172 37.6356 29.1533C37.3965 28.9026 37.1196 28.687 36.8083 28.5204C36.5477 28.3811 36.3624 28.143 36.2865 27.8498C36.2106 27.5566 36.2559 27.2544 36.4143 26.999C37.107 25.8813 37.107 24.4368 36.4143 23.3191C36.256 23.0636 36.2106 22.7614 36.2865 22.4682C36.3624 22.1751 36.5478 21.9369 36.8084 21.7975C37.9484 21.1878 38.6466 19.9369 38.587 18.6106C38.5733 18.3074 38.6801 18.0223 38.8875 17.8076C39.095 17.5929 39.3711 17.4828 39.6636 17.4967C40.9465 17.5583 42.155 16.8363 42.7443 15.6568C42.879 15.3871 43.1093 15.1954 43.3927 15.1169C43.676 15.0385 43.9682 15.0852 44.215 15.2491C45.2956 15.9658 46.692 15.9658 47.7723 15.2491C48.0193 15.0854 48.3113 15.0383 48.5947 15.1169C48.8782 15.1954 49.1083 15.3872 49.2431 15.6568C49.8325 16.8361 51.0416 17.5586 52.3238 17.4967C52.617 17.4829 52.8925 17.5929 53.0999 17.8076C53.3074 18.0223 53.4142 18.3074 53.4004 18.6106C53.3409 19.9368 54.0389 21.1878 55.1792 21.7975C55.4397 21.9369 55.6251 22.175 55.701 22.4682C55.7769 22.7614 55.7315 23.0636 55.5732 23.319C54.8805 24.4367 54.8805 25.8812 55.5732 26.9989C55.7315 27.2544 55.777 27.5566 55.701 27.8498Z" fill="#F1DBCE"/>
<path d="M51.3786 21.9709C50.9362 21.5133 50.2189 21.5133 49.7765 21.9709L46.0166 25.8606L44.5198 24.3122C44.0775 23.8546 43.3602 23.8546 42.9177 24.3122C42.4753 24.7698 42.4753 25.5118 42.9177 25.9696L45.2155 28.3466C45.4367 28.5755 45.7266 28.6898 46.0165 28.6898C46.3064 28.6898 46.5964 28.5755 46.8175 28.3466L51.3786 23.6283C51.8209 23.1707 51.8209 22.4286 51.3786 21.9709Z" fill="#F1DBCE"/>
<path d="M13.8282 14.1715C13.6175 13.9535 13.3253 13.8281 13.0273 13.8281C12.7294 13.8281 12.4371 13.9535 12.2264 14.1715C12.0157 14.3895 11.8945 14.6918 11.8945 15C11.8945 15.3082 12.0157 15.6105 12.2264 15.8285C12.4371 16.0465 12.7294 16.1719 13.0273 16.1719C13.3253 16.1719 13.6175 16.0465 13.8282 15.8285C14.0389 15.6105 14.1602 15.3082 14.1602 15C14.1602 14.6918 14.0389 14.3895 13.8282 14.1715Z" fill="#F1DBCE"/>
<path d="M22.7709 13.8281H17.2578C16.6322 13.8281 16.125 14.3528 16.125 15C16.125 15.6472 16.6322 16.1719 17.2578 16.1719H22.7709C23.3965 16.1719 23.9037 15.6472 23.9037 15C23.9037 14.3528 23.3965 13.8281 22.7709 13.8281Z" fill="#F1DBCE"/>
<path d="M34.306 34.4531H21.3555C20.7298 34.4531 20.2227 34.9778 20.2227 35.625C20.2227 36.2722 20.7298 36.7969 21.3555 36.7969H34.3059C34.9315 36.7969 35.4387 36.2722 35.4387 35.625C35.4387 34.9778 34.9317 34.4531 34.306 34.4531Z" fill="#F1DBCE"/>
</g>
<defs>
<clipPath id="clip0">
<rect width="58" height="60" fill="white"/>
</clipPath>
</defs>
</svg>
