<svg width="47" height="52" viewBox="0 0 47 52" fill="none" xmlns="http://www.w3.org/2000/svg">
<path d="M38.5284 19.038C38.5455 18.6528 38.5547 18.2653 38.5547 17.875C38.5547 16.195 37.3193 14.8281 35.8008 14.8281H2.75391C1.2354 14.8281 0 16.195 0 17.875C0 23.877 2.08296 29.2708 4.09735 34.487C5.25372 37.4814 6.35289 40.3295 7.08204 43.2656H6.42578C4.90728 43.2656 3.67188 44.6325 3.67188 46.3125C3.67188 47.9925 4.90728 49.3594 6.42578 49.3594H32.1289C33.6474 49.3594 34.8828 47.9925 34.8828 46.3125C34.8828 44.6325 33.6474 43.2656 32.1289 43.2656H31.4728C31.6419 42.5847 31.8306 41.9085 32.0355 41.2344H36.9023C42.4702 41.2344 47 36.2227 47 30.0625C47 24.5814 43.3422 19.9101 38.5284 19.038ZM37.6347 25.0512C39.8126 25.4443 41.4922 27.5582 41.4922 30.0625C41.4922 32.8626 39.4332 35.1406 36.9023 35.1406H34.2051C34.2888 34.9235 34.3729 34.7057 34.4572 34.4871C35.6372 31.4317 36.8401 28.315 37.6347 25.0512ZM23.4079 43.2656C22.9009 43.2656 22.49 43.7204 22.49 44.2812C22.49 44.8421 22.9009 45.2969 23.4079 45.2969H32.1289C32.6351 45.2969 33.0469 45.7525 33.0469 46.3125C33.0469 46.8725 32.6351 47.3281 32.1289 47.3281H6.42578C5.91961 47.3281 5.50781 46.8725 5.50781 46.3125C5.50781 45.7525 5.91961 45.2969 6.42578 45.2969H15.1462C15.6532 45.2969 16.0642 44.8421 16.0642 44.2812C16.0642 43.7204 15.6532 43.2656 15.1462 43.2656H8.98177C8.21674 39.9853 6.98244 36.7879 5.78568 33.689C3.8439 28.6607 1.83594 23.4612 1.83594 17.875C1.83594 17.315 2.24774 16.8594 2.75391 16.8594H35.8008C36.3069 16.8594 36.7188 17.315 36.7188 17.875C36.7188 23.4612 34.7108 28.6607 32.769 33.689C31.5723 36.788 30.3377 39.9856 29.5726 43.2656H23.4079ZM36.9023 39.2031H32.6989C32.9326 38.5281 33.1781 37.852 33.4321 37.1719H36.9023C40.4456 37.1719 43.3281 33.9827 43.3281 30.0625C43.3281 26.6069 41.0438 23.6825 38.0589 23.072C38.1809 22.4105 38.2835 21.7425 38.3629 21.0672C42.2369 21.8406 45.1641 25.6275 45.1641 30.0625C45.1641 35.1026 41.4579 39.2031 36.9023 39.2031Z" fill="#F1DBCE"/>
<path d="M19.3231 25.2669C19.3047 25.2873 19.2794 25.3153 19.2356 25.2669V25.267C17.8483 23.7368 15.591 23.7368 14.204 25.267C13.2352 26.3353 12.9227 27.7251 13.3 29.286C14.0631 32.4419 17.4815 35.5088 19.0424 35.97C19.12 35.9929 19.1996 36.0044 19.2793 36.0044C19.359 36.0044 19.4386 35.9929 19.5162 35.97C21.0772 35.5088 24.4955 32.4421 25.2587 29.286C25.6361 27.7251 25.3235 26.3352 24.3549 25.267C22.9675 23.737 20.7103 23.7369 19.3231 25.2669ZM23.4851 28.761C22.9451 30.994 20.4281 33.3546 19.2794 33.9124C18.1308 33.3547 15.6137 30.9941 15.0738 28.761C14.8674 27.9072 15.0029 27.2541 15.5003 26.7055C15.8366 26.3347 16.2782 26.1492 16.7199 26.1492C17.1617 26.1492 17.6034 26.3346 17.9397 26.7055V26.7056C18.6911 27.534 19.8681 27.5341 20.6194 26.7055C21.2919 25.9638 22.3862 25.9638 23.0588 26.7055C23.556 27.2541 23.6914 27.9072 23.4851 28.761Z" fill="#F1DBCE"/>
<path d="M18.5184 11.2232C18.2399 11.6919 18.3576 12.3216 18.7811 12.6298C18.9366 12.7429 19.1115 12.797 19.2846 12.797C19.5832 12.797 19.8761 12.6359 20.0524 12.3393C21.6879 9.58703 20.6787 8.11235 20.0109 7.13643C19.4259 6.28168 19.1037 5.81084 20.0524 4.21438C20.331 3.74567 20.2133 3.11598 19.7897 2.80774C19.3662 2.4996 18.7969 2.6297 18.5183 3.09831C16.8575 5.89331 17.8743 7.37917 18.5472 8.3625C19.1428 9.23289 19.4417 9.66971 18.5184 11.2232Z" fill="#F1DBCE"/>
<path d="M11.1747 11.2232C10.8962 11.6919 11.0138 12.3216 11.4374 12.6298C11.5928 12.7429 11.7678 12.797 11.9408 12.797C12.2394 12.797 12.5324 12.6359 12.7087 12.3393C14.3441 9.58703 13.335 8.11235 12.6672 7.13643C12.0822 6.28168 11.7601 5.81074 12.7087 4.21438C12.9872 3.74567 12.8695 3.11598 12.446 2.80774C12.0224 2.4996 11.4531 2.6297 11.1746 3.09831C9.5137 5.89331 10.5305 7.37917 11.2034 8.36239C11.7991 9.23289 12.0981 9.66971 11.1747 11.2232Z" fill="#F1DBCE"/>
<path d="M25.8622 11.2232C25.5837 11.6919 25.7013 12.3216 26.1249 12.6298C26.2803 12.7428 26.4553 12.797 26.6283 12.797C26.927 12.797 27.2198 12.636 27.3962 12.3392C29.0317 9.58698 28.0225 8.1123 27.3547 7.13638C26.7698 6.28163 26.4475 5.81069 27.3962 4.21433C27.6747 3.74562 27.5571 3.11593 27.1335 2.80769C26.7099 2.49955 26.1408 2.62985 25.8622 3.09826C24.2012 5.89326 25.218 7.37912 25.8909 8.36234C26.4866 9.23283 26.7855 9.66965 25.8622 11.2232Z" fill="#F1DBCE"/>
<path d="M19.2776 43.2656H19.277C18.77 43.2656 18.3594 43.7204 18.3594 44.2812C18.3594 44.8421 18.7706 45.2969 19.2776 45.2969C19.7846 45.2969 20.1956 44.8421 20.1956 44.2812C20.1956 43.7204 19.7846 43.2656 19.2776 43.2656Z" fill="#F1DBCE"/>
</svg>
