<svg width="20" height="20" viewBox="0 0 20 20" fill="none" xmlns="http://www.w3.org/2000/svg">
<g clip-path="url(#clip0)">
<path d="M10.5488 15.1731L19.7738 5.92252C20.0759 5.61944 20.0754 5.12874 19.7723 4.82616C19.4692 4.52382 18.9782 4.5246 18.6759 4.82772L9.99997 13.5277L1.32406 4.82741C1.02172 4.52433 0.531057 4.52355 0.227934 4.82585C0.0759811 4.97753 3.8147e-06 5.17624 3.8147e-06 5.37495C3.8147e-06 5.57315 0.0754738 5.77108 0.226372 5.92249L9.45114 15.1731C9.59637 15.3191 9.79403 15.401 9.99997 15.401C10.2059 15.401 10.4033 15.3189 10.5488 15.1731Z" fill="black"/>
</g>
<defs>
<clipPath id="clip0">
<rect width="20" height="20" fill="white" transform="translate(20) rotate(90)"/>
</clipPath>
</defs>
</svg>
