<svg width="66" height="66" viewBox="0 0 66 66" fill="none" xmlns="http://www.w3.org/2000/svg">
<circle cx="33.0098" cy="32.6426" r="32.1426" fill="#F1E1D5" stroke="white"/>
<g clip-path="url(#clip0)">
<path d="M39.4119 17.8047H25.1219C20.4711 17.8047 16.6875 21.5883 16.6875 26.2391V40.5293C16.6875 45.1799 20.4711 48.9635 25.1219 48.9635H39.4121C44.0627 48.9635 47.8463 45.1799 47.8463 40.5293V26.2391C47.8463 21.5883 44.0627 17.8047 39.4119 17.8047V17.8047ZM46.0196 40.5293C46.0196 44.1727 43.0555 47.1368 39.4119 47.1368H25.1219C21.4783 47.1368 18.5142 44.1727 18.5142 40.5293V26.2391C18.5142 22.5955 21.4783 19.6313 25.1219 19.6313H39.4121C43.0555 19.6313 46.0196 22.5955 46.0196 26.2391V40.5293Z" fill="white"/>
<path d="M32.2658 24.8633C27.568 24.8633 23.7461 28.6851 23.7461 33.383C23.7461 38.0809 27.568 41.9028 32.2658 41.9028C36.9637 41.9028 40.7856 38.0809 40.7856 33.383C40.7856 28.6851 36.9637 24.8633 32.2658 24.8633ZM32.2658 40.0761C28.5754 40.0761 25.5728 37.0737 25.5728 33.383C25.5728 29.6926 28.5754 26.6899 32.2658 26.6899C35.9565 26.6899 38.9589 29.6926 38.9589 33.383C38.9589 37.0737 35.9565 40.0761 32.2658 40.0761Z" fill="white"/>
<path d="M40.9901 21.8379C39.6018 21.8379 38.4727 22.9673 38.4727 24.3554C38.4727 25.7437 39.6018 26.8731 40.9901 26.8731C42.3784 26.8731 43.5079 25.7437 43.5079 24.3554C43.5079 22.9671 42.3784 21.8379 40.9901 21.8379ZM40.9901 25.0462C40.6093 25.0462 40.2993 24.7362 40.2993 24.3554C40.2993 23.9743 40.6093 23.6646 40.9901 23.6646C41.3712 23.6646 41.6812 23.9743 41.6812 24.3554C41.6812 24.7362 41.3712 25.0462 40.9901 25.0462Z" fill="white"/>
</g>
<defs>
<clipPath id="clip0">
<rect width="31.1588" height="31.1588" fill="white" transform="translate(16.6875 17.8047)"/>
</clipPath>
</defs>
</svg>
