<svg width="66" height="66" viewBox="0 0 66 66" fill="none" xmlns="http://www.w3.org/2000/svg">
<circle cx="33.1895" cy="32.6426" r="32.1426" fill="#F1E1D5" stroke="white"/>
<path d="M47.8885 19.4675L47.8879 19.4678L16.5842 32.3429C15.9971 32.5858 15.5776 33.1785 15.4995 33.8985C15.4221 34.6154 15.7004 35.3051 16.2129 35.6991L16.2134 35.6994L20.688 39.1759L20.688 39.1759C21.0895 39.488 21.6021 39.5206 22.0303 39.2634L22.0303 39.2634L31.7366 33.4378L31.8529 33.5998L24.288 40.0286C24.288 40.0286 24.288 40.0287 24.288 40.0287C23.9572 40.3099 23.7559 40.7626 23.7559 41.2403V47.1954C23.7559 47.7789 24.0372 48.3073 24.4806 48.5793C24.9223 48.8497 25.4542 48.8235 25.8751 48.5077L47.8885 19.4675ZM47.8885 19.4675C48.3344 19.2809 48.8405 19.4334 49.1503 19.8629C49.4628 20.2968 49.5004 20.9105 49.2425 21.3891L49.2423 21.3895L35.08 47.9686C35.0799 47.9688 35.0798 47.969 35.0797 47.9692C34.8369 48.4109 34.4438 48.7209 34.0049 48.8251C33.8947 48.8511 33.783 48.8642 33.6718 48.8642C33.3428 48.8642 33.0154 48.7517 32.7395 48.5365L32.7393 48.5364L29.3963 45.942L29.3358 45.8951L29.2747 45.9412L25.8754 48.5075L47.8885 19.4675ZM33.5358 46.6518L33.6295 46.7245L33.6854 46.6198L46.5923 22.3972L46.723 22.152L46.466 22.2577L17.6394 34.1138L17.4799 34.1794L17.6161 34.2853L21.4007 37.2258L21.4548 37.2678L21.5136 37.2325L37.5623 27.6003L37.5109 27.5146L37.5623 27.6003C38.1669 27.2374 38.9026 27.4537 39.2762 28.1264C39.6522 28.8041 39.5075 29.6739 38.9497 30.148L25.5918 41.5001L25.5565 41.5301V41.5763V46.0655V46.2662L25.7168 46.1453L28.6191 43.9542L28.6191 43.9542C28.8401 43.7872 29.0906 43.705 29.3394 43.705C29.5937 43.705 29.8498 43.7908 30.0737 43.9649L30.0737 43.9649L33.5358 46.6518Z" fill="white" stroke="#F1E1D5" stroke-width="0.2"/>
</svg>
