<?xml version="1.0" encoding="UTF-8" standalone="no"?>
<svg
   xmlns:dc="http://purl.org/dc/elements/1.1/"
   xmlns:cc="http://creativecommons.org/ns#"
   xmlns:rdf="http://www.w3.org/1999/02/22-rdf-syntax-ns#"
   xmlns:svg="http://www.w3.org/2000/svg"
   xmlns="http://www.w3.org/2000/svg"
   xmlns:sodipodi="http://sodipodi.sourceforge.net/DTD/sodipodi-0.dtd"
   xmlns:inkscape="http://www.inkscape.org/namespaces/inkscape"
   inkscape:version="1.0 (4035a4fb49, 2020-05-01)"
   sodipodi:docname="Group 9.svg"
   id="svg6"
   version="1.1"
   fill="none"
   viewBox="0 0 66 66"
   height="66"
   width="66">
  <metadata
     id="metadata12">
    <rdf:RDF>
      <cc:Work
         rdf:about="">
        <dc:format>image/svg+xml</dc:format>
        <dc:type
           rdf:resource="http://purl.org/dc/dcmitype/StillImage" />
      </cc:Work>
    </rdf:RDF>
  </metadata>
  <defs
     id="defs10" />
  <sodipodi:namedview
     inkscape:current-layer="svg6"
     inkscape:window-maximized="1"
     inkscape:window-y="-8"
     inkscape:window-x="-8"
     inkscape:cy="44.579798"
     inkscape:cx="81.116358"
     inkscape:zoom="4.5533391"
     showgrid="false"
     id="namedview8"
     inkscape:window-height="1017"
     inkscape:window-width="1920"
     inkscape:pageshadow="2"
     inkscape:pageopacity="0"
     guidetolerance="10"
     gridtolerance="10"
     objecttolerance="10"
     borderopacity="1"
     bordercolor="#666666"
     pagecolor="#ffffff" />
  <g
     style="opacity:1"
     id="g15">
    <path
       id="path17"
       d="m 64.964901,32.642601 c 0,17.751868 -14.390733,32.142601 -32.142601,32.142601 -17.751868,0 -32.14260106,-14.390733 -32.14260106,-32.142601 C 0.67969894,14.890733 15.070432,0.49999997 32.8223,0.5 c 17.751868,0 32.142601,14.390733 32.142601,32.142601"
       style="color:#000000;font-style:normal;font-variant:normal;font-weight:normal;font-stretch:normal;font-size:medium;line-height:normal;font-family:sans-serif;font-variant-ligatures:normal;font-variant-position:normal;font-variant-caps:normal;font-variant-numeric:normal;font-variant-alternates:normal;font-variant-east-asian:normal;font-feature-settings:normal;font-variation-settings:normal;text-indent:0;text-align:start;text-decoration:none;text-decoration-line:none;text-decoration-style:solid;text-decoration-color:#000000;letter-spacing:normal;word-spacing:normal;text-transform:none;writing-mode:lr-tb;direction:ltr;text-orientation:mixed;dominant-baseline:auto;baseline-shift:baseline;text-anchor:start;white-space:normal;shape-padding:0;shape-margin:0;inline-size:0;clip-rule:nonzero;display:inline;overflow:visible;visibility:visible;isolation:auto;mix-blend-mode:normal;color-interpolation:sRGB;color-interpolation-filters:linearRGB;solid-color:#000000;solid-opacity:1;vector-effect:none;fill:#f1e1d5;fill-opacity:1;fill-rule:nonzero;stroke:none;stroke-width:1;stroke-linecap:butt;stroke-linejoin:miter;stroke-miterlimit:4;stroke-dasharray:none;stroke-dashoffset:0;stroke-opacity:1.0;color-rendering:auto;image-rendering:auto;shape-rendering:auto;text-rendering:auto;enable-background:accumulate;stop-color:#000000;stop-opacity:1;" />
    <path
       id="path19"
       d="M 32.822266 0 C 14.800177 -3.3641489e-08 0.1796875 14.62049 0.1796875 32.642578 C 0.1796875 50.664667 14.800177 65.285156 32.822266 65.285156 C 50.844354 65.285156 65.464844 50.664667 65.464844 32.642578 C 65.464844 14.62049 50.844354 1.4210855e-14 32.822266 0 z M 32.822266 1 C 50.303914 1 64.464844 15.16093 64.464844 32.642578 C 64.464844 50.124226 50.303914 64.285156 32.822266 64.285156 C 15.340617 64.285156 1.1796875 50.124226 1.1796875 32.642578 C 1.1796875 15.16093 15.340617 0.99999997 32.822266 1 z "
       style="color:#000000;font-style:normal;font-variant:normal;font-weight:normal;font-stretch:normal;font-size:medium;line-height:normal;font-family:sans-serif;font-variant-ligatures:normal;font-variant-position:normal;font-variant-caps:normal;font-variant-numeric:normal;font-variant-alternates:normal;font-variant-east-asian:normal;font-feature-settings:normal;font-variation-settings:normal;text-indent:0;text-align:start;text-decoration:none;text-decoration-line:none;text-decoration-style:solid;text-decoration-color:#000000;letter-spacing:normal;word-spacing:normal;text-transform:none;writing-mode:lr-tb;direction:ltr;text-orientation:mixed;dominant-baseline:auto;baseline-shift:baseline;text-anchor:start;white-space:normal;shape-padding:0;shape-margin:0;inline-size:0;clip-rule:nonzero;display:inline;overflow:visible;visibility:visible;isolation:auto;mix-blend-mode:normal;color-interpolation:sRGB;color-interpolation-filters:linearRGB;solid-color:#000000;solid-opacity:1;vector-effect:none;fill:#ffffff;fill-opacity:1;fill-rule:nonzero;stroke:none;stroke-width:1;stroke-linecap:butt;stroke-linejoin:miter;stroke-miterlimit:4;stroke-dasharray:none;stroke-dashoffset:0;stroke-opacity:1.0;color-rendering:auto;image-rendering:auto;shape-rendering:auto;text-rendering:auto;enable-background:accumulate;stop-color:#000000;stop-opacity:1;" />
  </g>
  <g
     style="opacity:1"
     id="g21">
    <path
       id="path23"
       d="m 51.2108,41.4947 c -0.9253,-1.1215 -1.9706,-2.1228 -2.9817,-3.0911 -0.3552,-0.3404 -0.7228,-0.6923 -1.0767,-1.0418 -1e-4,-1e-4 -2e-4,-2e-4 -3e-4,-2e-4 -0.476,-0.4696 -0.7091,-0.803 -0.7334,-1.0491 -0.024,-0.242 0.1396,-0.601 0.5157,-1.1317 0.5624,-0.7982 1.1618,-1.5978 1.7417,-2.371 0.5155,-0.6873 1.0484,-1.398 1.5592,-2.1128 l 0.1146,-0.1605 c 0.9966,-1.3949 2.027,-2.8373 2.5792,-4.595 0.1577,-0.504 0.3214,-1.2498 -0.0736,-1.9045 -0.3951,-0.6548 -1.1276,-0.8489 -1.6439,-0.9378 -0.2522,-0.0437 -0.4915,-0.0473 -0.7141,-0.0473 l -6.4644,-0.0058 c -1.1176,-0.0188 -1.893,0.5169 -2.3155,1.5927 -0.3382,0.8592 -0.7376,1.855 -1.2002,2.7995 -0.8853,1.8236 -2.0102,3.9238 -3.6406,5.6738 L 36.8044,33.19 c -0.111,0.1199 -0.2924,0.3158 -0.3855,0.3607 -0.1767,-0.1122 -0.3805,-0.7542 -0.3712,-1.0906 3e-4,-0.0083 4e-4,-0.0165 4e-4,-0.0247 l -0.0058,-7.5539 c 0,-0.0384 -0.0026,-0.0768 -0.0077,-0.1148 -0.145,-1.0777 -0.4276,-2.158 -2.1142,-2.4946 -0.0541,-0.0109 -0.1091,-0.0162 -0.1641,-0.0162 h -6.7244 c -1.2651,0 -1.9342,0.5858 -2.4707,1.221 -0.1553,0.1852 -0.5679,0.6769 -0.3577,1.278 0.2127,0.6083 0.8465,0.7297 1.0545,0.7695 0.7328,0.1406 1.1118,0.5595 1.2291,1.3602 0.2319,1.5559 0.2603,3.2202 0.0896,5.2353 -0.0477,0.5411 -0.1362,0.9523 -0.2791,1.2942 -0.0396,0.0947 -0.0743,0.1534 -0.0986,0.1879 -0.0387,-0.0158 -0.0989,-0.046 -0.1823,-0.1038 -0.515,-0.3563 -0.9031,-0.9103 -1.2783,-1.4458 -1.499,-2.1403 -2.7599,-4.5042 -3.8552,-7.2277 -0.4511,-1.1161 -1.299,-1.7395 -2.3861,-1.7556 -2.0711,-0.0349 -3.9865,-0.034 -5.8539,0.0027 -0.8808,0.0155 -1.4984,0.2958 -1.8361,0.8335 -0.338,0.5387 -0.3257,1.2254 0.0369,2.0416 2.5919,5.8286 4.9453,10.0687 7.6305,13.7484 1.8908,2.5905 3.794,4.3888 5.9897,5.6592 2.3069,1.3347 4.9085,1.9888 7.9268,1.9887 0.3432,0 0.6924,-0.0085 1.0463,-0.0256 1.8621,-0.0857 2.6197,-0.8348 2.7024,-2.6689 0.0464,-0.9694 0.153,-1.7546 0.5232,-2.4369 0.1035,-0.191 0.2203,-0.319 0.3124,-0.3425 0.0978,-0.0247 0.2714,0.0359 0.4644,0.1627 0.3529,0.2317 0.6567,0.546 0.9065,0.8218 0.2533,0.2804 0.5092,0.57 0.7568,0.8501 0.527,0.5963 1.072,1.2129 1.6429,1.8011 1.2914,1.3312 2.7801,1.9417 4.4265,1.8138 l 5.916,0.0028 h 3e-4 c 0.0188,0 0.0376,-6e-4 0.0563,-0.0019 0.6824,-0.0459 1.2724,-0.428 1.6188,-1.0484 0.4172,-0.7471 0.4109,-1.6934 -0.0172,-2.5324 -0.4466,-0.8722 -1.0261,-1.623 -1.5358,-2.2442 z m 0.0774,3.934 c -0.0816,0.1461 -0.1822,0.1727 -0.2341,0.1791 L 45.1394,45.605 h -6e-4 c -0.0234,0 -0.0467,9e-4 -0.0699,0.003 -1.1652,0.0981 -2.1557,-0.3161 -3.1135,-1.3034 -0.5432,-0.5597 -1.0748,-1.1611 -1.5888,-1.7427 -0.2505,-0.2834 -0.5095,-0.5765 -0.7697,-0.8646 -0.3227,-0.3564 -0.7216,-0.766 -1.2341,-1.1026 -0.7674,-0.5037 -1.4033,-0.4885 -1.8015,-0.387 -0.3941,0.1004 -0.9542,0.3869 -1.3842,1.1804 -0.557,1.0267 -0.6799,2.1343 -0.7299,3.1806 -0.0289,0.6399 -0.1359,0.809 -0.1806,0.8519 -0.0586,0.0563 -0.2543,0.1553 -0.9074,0.1854 -3.1386,0.1493 -5.7725,-0.4192 -8.0534,-1.7389 -1.9842,-1.1481 -3.7216,-2.7972 -5.4676,-5.1893 -2.6109,-3.5776 -4.9082,-7.7206 -7.4484,-13.4332 -0.0921,-0.2069 -0.1205,-0.3361 -0.1287,-0.4052 0.0648,-0.0215 0.1914,-0.0499 0.4134,-0.054 1.8484,-0.0362 3.7439,-0.0372 5.7963,-0.0026 0.281,0.0042 0.6009,0.0895 0.8432,0.689 1.1444,2.8457 2.4663,5.3223 4.0416,7.5714 0.4182,0.5969 0.9388,1.34 1.704,1.8695 0.7008,0.4853 1.2695,0.4621 1.6232,0.3572 0.354,-0.1049 0.8452,-0.3965 1.176,-1.1886 0.2134,-0.5106 0.3425,-1.0856 0.4064,-1.8121 0.1825,-2.1554 0.1501,-3.9474 -0.1018,-5.6377 -0.1776,-1.211 -0.7959,-2.0858 -1.7699,-2.5325 0.173,-0.0911 0.3679,-0.1291 0.6386,-0.1291 h 6.6365 c 0.3733,0.0847 0.4473,0.1842 0.4726,0.2182 0.1075,0.1446 0.169,0.4867 0.2066,0.7539 l 0.0056,7.4842 c -0.0149,0.7175 0.3299,2.3087 1.5038,2.745 0.0097,0.0036 0.0194,0.007 0.0291,0.0102 1.0688,0.3532 1.7757,-0.4098 2.1553,-0.8198 l 0.0676,-0.0727 c 1.7859,-1.917 2.9886,-4.1568 3.9282,-6.0923 0.4897,-0.9994 0.9044,-2.0332 1.2551,-2.9244 0.1755,-0.4469 0.3352,-0.5205 0.7162,-0.5123 0.0052,1e-4 0.0104,1e-4 0.0157,1e-4 l 6.4726,0.0058 c 0.1505,0 0.3076,0.0018 0.4295,0.0229 0.3084,0.0531 0.4355,0.1178 0.4773,0.1446 0.0044,0.0497 0.0034,0.1925 -0.0899,0.4906 -0.4695,1.4947 -1.3768,2.7646 -2.3373,4.1091 l -0.1148,0.1607 c -0.4991,0.6984 -1.0261,1.4011 -1.5356,2.0807 -0.5874,0.7832 -1.1946,1.5929 -1.7703,2.4101 -1.2308,1.7367 -1.1226,2.8891 0.4134,4.4042 0.363,0.3583 0.735,0.7148 1.0949,1.0594 1.0204,0.9775 1.9842,1.9006 2.8444,2.943 0.4503,0.549 0.9608,1.2083 1.3328,1.9349 0.1941,0.3804 0.1465,0.724 0.0468,0.9027 z"
       style="color:#000000;font-style:normal;font-variant:normal;font-weight:normal;font-stretch:normal;font-size:medium;line-height:normal;font-family:sans-serif;font-variant-ligatures:normal;font-variant-position:normal;font-variant-caps:normal;font-variant-numeric:normal;font-variant-alternates:normal;font-variant-east-asian:normal;font-feature-settings:normal;font-variation-settings:normal;text-indent:0;text-align:start;text-decoration:none;text-decoration-line:none;text-decoration-style:solid;text-decoration-color:#000000;letter-spacing:normal;word-spacing:normal;text-transform:none;writing-mode:lr-tb;direction:ltr;text-orientation:mixed;dominant-baseline:auto;baseline-shift:baseline;text-anchor:start;white-space:normal;shape-padding:0;shape-margin:0;inline-size:0;clip-rule:nonzero;display:inline;overflow:visible;visibility:visible;isolation:auto;mix-blend-mode:normal;color-interpolation:sRGB;color-interpolation-filters:linearRGB;solid-color:#000000;solid-opacity:1;vector-effect:none;fill:#ffffff;fill-opacity:1;fill-rule:nonzero;stroke-width:1;stroke-linecap:butt;stroke-linejoin:miter;stroke-miterlimit:4;stroke-dasharray:none;stroke-dashoffset:0;stroke-opacity:1.0;color-rendering:auto;image-rendering:auto;shape-rendering:auto;text-rendering:auto;enable-background:accumulate;stop-color:#000000;stop-opacity:1;stroke:none;" />
    <path
       id="path25"
       d="M 27.03125 21.755859 C 25.611801 21.755859 24.750639 22.478308 24.179688 23.154297 L 24.177734 23.154297 L 24.177734 23.15625 C 24.022627 23.34122 23.426881 24.046179 23.732422 24.919922 C 24.040426 25.800783 24.955873 25.975789 25.164062 26.015625 C 25.455883 26.071616 25.615223 26.163307 25.732422 26.292969 C 25.849621 26.42263 25.94292 26.620724 25.992188 26.957031 L 25.992188 26.958984 C 26.217301 28.469351 26.246477 30.090745 26.078125 32.078125 C 26.054232 32.348182 25.993386 32.490012 25.949219 32.685547 C 25.678621 32.407557 25.409351 32.138011 25.148438 31.765625 C 23.673096 29.659106 22.430762 27.33185 21.347656 24.638672 L 21.347656 24.636719 C 20.839488 23.379423 19.779322 22.588017 18.505859 22.568359 L 18.503906 22.568359 C 16.428262 22.533405 14.506144 22.535449 12.632812 22.572266 C 11.651009 22.59001 10.824605 22.935231 10.382812 23.638672 C 9.9402395 24.344039 9.9835772 25.242933 10.386719 26.150391 C 12.987696 31.999404 15.359302 36.275165 18.070312 39.990234 C 19.990345 42.620784 21.94856 44.477001 24.212891 45.787109 C 26.599542 47.167951 29.300078 47.843852 32.390625 47.84375 C 32.742081 47.84375 33.099179 47.833886 33.460938 47.816406 C 34.455712 47.770623 35.252522 47.541533 35.806641 46.994141 C 36.36076 46.446748 36.594365 45.654499 36.638672 44.671875 C 36.68394 43.726125 36.788859 43.027502 37.101562 42.451172 L 37.101562 42.449219 C 37.108476 42.436461 37.112335 42.435216 37.119141 42.423828 C 37.137543 42.434291 37.145514 42.435749 37.166016 42.449219 C 37.455175 42.639069 37.733552 42.923373 37.974609 43.189453 C 38.225403 43.467079 38.480872 43.755007 38.728516 44.035156 C 39.255528 44.63147 39.804953 45.25412 40.386719 45.853516 C 41.75864 47.267718 43.418841 47.955625 45.210938 47.816406 L 45.171875 47.818359 L 51.087891 47.822266 C 51.116704 47.822266 51.147223 47.820432 51.177734 47.818359 C 52.026266 47.761285 52.779561 47.270726 53.201172 46.515625 C 53.707044 45.609736 53.687782 44.484528 53.191406 43.511719 C 52.717888 42.586947 52.114789 41.807993 51.597656 41.177734 L 51.595703 41.175781 C 50.645737 40.024385 49.58535 39.011298 48.574219 38.042969 C 48.219542 37.70307 47.855393 37.352959 47.505859 37.007812 L 47.503906 37.005859 C 47.054037 36.562039 46.91393 36.242553 46.916016 36.263672 C 46.918831 36.292058 46.987653 35.970422 47.341797 35.470703 L 47.341797 35.46875 L 47.34375 35.46875 C 47.900361 34.678766 48.496322 33.882509 49.076172 33.109375 C 49.5917 32.422038 50.127286 31.709368 50.642578 30.988281 L 50.755859 30.828125 L 50.755859 30.826172 C 51.752213 29.431624 52.824365 27.943988 53.40625 26.091797 L 53.40625 26.089844 C 53.576481 25.545796 53.796534 24.630126 53.283203 23.779297 C 52.769457 22.927864 51.855178 22.703554 51.296875 22.607422 C 50.996801 22.555427 50.726038 22.552734 50.498047 22.552734 L 44.041016 22.546875 C 42.759818 22.525323 41.729898 23.238101 41.251953 24.455078 C 40.914667 25.311955 40.519901 26.296828 40.068359 27.21875 L 40.068359 27.220703 C 39.20588 28.997296 38.113211 31.001807 36.585938 32.671875 C 36.574446 32.603311 36.546441 32.504453 36.546875 32.478516 L 36.546875 32.474609 C 36.547336 32.460211 36.548828 32.446699 36.548828 32.435547 L 36.542969 24.880859 C 36.542969 24.81989 36.537324 24.759028 36.529297 24.699219 C 36.454017 24.139707 36.343326 23.518669 35.970703 22.962891 C 35.598353 22.40752 34.957132 21.968824 34.019531 21.78125 L 34.017578 21.78125 C 33.930558 21.763854 33.842341 21.755859 33.755859 21.755859 L 27.03125 21.755859 z M 27.03125 22.755859 L 33.755859 22.755859 C 33.778738 22.755859 33.801723 22.75758 33.822266 22.761719 C 34.570143 22.910975 34.914048 23.181584 35.140625 23.519531 C 35.367202 23.857478 35.469343 24.315797 35.539062 24.833984 C 35.541236 24.850176 35.542969 24.865029 35.542969 24.880859 L 35.548828 32.435547 C 35.548828 32.439682 35.548844 32.440978 35.548828 32.441406 L 35.548828 32.443359 L 35.548828 32.445312 C 35.541147 32.723151 35.603364 32.986687 35.689453 33.246094 C 35.732498 33.375797 35.782457 33.49993 35.845703 33.617188 C 35.908949 33.734445 35.960778 33.852257 36.150391 33.972656 L 36.384766 34.121094 L 36.636719 34.001953 C 36.825096 33.911103 36.871948 33.837479 36.955078 33.755859 C 37.037476 33.674958 37.114509 33.591112 37.169922 33.53125 L 37.171875 33.529297 L 37.242188 33.453125 C 38.929962 31.641541 40.074794 29.4955 40.966797 27.658203 L 40.966797 27.65625 C 41.440098 26.689687 41.844677 25.683287 42.183594 24.822266 C 42.550649 23.887643 43.071388 23.530827 44.025391 23.546875 L 44.029297 23.546875 L 50.498047 23.552734 C 50.715256 23.552734 50.922627 23.556392 51.126953 23.591797 C 51.60125 23.673465 52.15128 23.836754 52.427734 24.294922 C 52.704404 24.753493 52.596341 25.329016 52.451172 25.792969 C 51.928692 27.454853 50.939602 28.851693 49.943359 30.246094 L 49.828125 30.40625 C 49.321817 31.114764 48.790863 31.822503 48.275391 32.509766 C 47.695441 33.283032 47.093579 34.086162 46.525391 34.892578 L 46.527344 34.892578 C 46.129288 35.454259 45.87106 35.848942 45.921875 36.361328 C 45.972476 36.873789 46.298122 37.220787 46.798828 37.714844 L 46.800781 37.716797 L 46.947266 37.861328 L 46.949219 37.861328 C 47.260021 38.165802 47.576607 38.470225 47.882812 38.763672 L 47.882812 38.765625 C 48.893882 39.733896 49.923585 40.720897 50.824219 41.8125 C 51.326486 42.424642 51.8811 43.147168 52.300781 43.966797 C 52.660605 44.671988 52.656653 45.439033 52.328125 46.027344 C 52.056935 46.513042 51.627597 46.785587 51.111328 46.820312 L 51.109375 46.820312 C 51.103186 46.820743 51.096052 46.822266 51.087891 46.822266 L 45.152344 46.818359 L 45.132812 46.820312 C 43.632109 46.936894 42.316348 46.404447 41.105469 45.15625 C 40.545435 44.579245 40.005503 43.969333 39.478516 43.373047 C 39.230959 43.092996 38.972603 42.802705 38.716797 42.519531 L 38.716797 42.517578 C 38.458471 42.232365 38.131104 41.886581 37.714844 41.613281 C 37.591396 41.532177 37.469559 41.467959 37.337891 41.421875 C 37.206222 41.375791 37.064638 41.331445 36.853516 41.384766 L 36.851562 41.384766 C 36.643853 41.437764 36.543623 41.541418 36.453125 41.640625 C 36.362627 41.739832 36.289652 41.849022 36.222656 41.972656 C 35.794959 42.760926 35.688157 43.63195 35.640625 44.625 L 35.640625 44.626953 C 35.602232 45.478429 35.414397 45.976096 35.103516 46.283203 C 34.792635 46.59031 34.281388 46.778442 33.414062 46.818359 C 33.068021 46.83508 32.725569 46.84375 32.390625 46.84375 C 29.444572 46.843848 26.941993 46.210433 24.714844 44.921875 C 22.587774 43.691184 20.740474 41.950841 18.878906 39.400391 C 16.219517 35.75606 13.883604 31.552328 11.300781 25.744141 C 10.978723 25.019198 10.997042 24.543908 11.230469 24.171875 C 11.463765 23.800412 11.873461 23.585972 12.652344 23.572266 C 14.513189 23.535694 16.422519 23.533549 18.488281 23.568359 L 18.490234 23.568359 C 19.390096 23.581686 20.026151 24.037461 20.419922 25.011719 C 21.527416 27.765541 22.805466 30.165763 24.328125 32.339844 C 24.703051 32.874952 25.115364 33.480848 25.732422 33.908203 C 25.841389 33.983722 25.932638 34.032964 26.009766 34.064453 L 26.378906 34.214844 L 26.607422 33.890625 C 26.656434 33.82104 26.708429 33.730188 26.759766 33.607422 C 26.929347 33.201684 27.023714 32.736979 27.074219 32.164062 L 27.074219 32.162109 C 27.247204 30.120035 27.220867 28.413426 26.982422 26.8125 L 26.982422 26.810547 C 26.914244 26.346946 26.75904 25.93577 26.474609 25.621094 C 26.189783 25.30598 25.792542 25.117812 25.351562 25.033203 C 25.143752 24.993439 24.793177 24.925583 24.675781 24.589844 C 24.560922 24.261387 24.787867 23.984258 24.943359 23.798828 C 25.445408 23.204417 25.920499 22.755859 27.03125 22.755859 z M 27.03125 23.470703 C 26.713758 23.470703 26.419423 23.519723 26.160156 23.65625 L 25.261719 24.130859 L 26.185547 24.552734 C 27.00759 24.929743 27.509528 25.622764 27.667969 26.703125 L 27.667969 26.705078 C 27.913196 28.350603 27.947693 30.099335 27.767578 32.226562 C 27.706748 32.91629 27.587791 33.435607 27.398438 33.888672 L 27.396484 33.888672 C 27.116697 34.558623 26.773808 34.722033 26.541016 34.791016 C 26.30812 34.860088 25.934333 34.910928 25.34375 34.501953 C 24.671289 34.036626 24.183832 33.352769 23.765625 32.755859 C 22.213869 30.540373 20.909482 28.100366 19.777344 25.285156 C 19.630635 24.922168 19.431644 24.653414 19.183594 24.488281 C 18.935543 24.323149 18.666757 24.286017 18.478516 24.283203 C 16.420766 24.248513 14.518973 24.248829 12.664062 24.285156 C 12.404417 24.290154 12.227727 24.324022 12.103516 24.365234 L 11.716797 24.494141 L 11.763672 24.898438 C 11.779197 25.029268 11.825574 25.204603 11.933594 25.447266 C 14.482801 31.180122 16.796667 35.359393 19.433594 38.972656 C 21.2082 41.403949 23.000355 43.112101 25.054688 44.300781 C 27.426134 45.67287 30.170778 46.258262 33.382812 46.105469 C 34.081691 46.073259 34.364801 46.019978 34.613281 45.78125 C 34.843966 45.559855 34.916035 45.283299 34.947266 44.591797 C 34.996204 43.567712 35.117362 42.548265 35.617188 41.626953 C 35.984553 40.949035 36.402134 40.763608 36.685547 40.691406 C 36.971865 40.618425 37.430278 40.582033 38.087891 41.013672 L 38.087891 41.011719 C 38.544327 41.311498 38.913532 41.687482 39.226562 42.033203 C 39.484321 42.3186 39.741655 42.609142 39.992188 42.892578 C 40.506209 43.474203 41.041381 44.081184 41.595703 44.652344 C 42.624796 45.713133 43.80528 46.215427 45.111328 46.105469 L 45.113281 46.105469 C 45.119321 46.104922 45.128092 46.105469 45.138672 46.105469 L 51.083984 46.107422 L 51.115234 46.103516 C 51.25626 46.086125 51.570299 45.948158 51.724609 45.671875 C 51.924183 45.314164 51.952043 44.817283 51.6875 44.298828 L 51.685547 44.298828 C 51.284897 43.516269 50.75219 42.830933 50.294922 42.273438 C 49.410258 41.201392 48.430534 40.264588 47.410156 39.287109 C 47.050366 38.942614 46.679776 38.587231 46.320312 38.232422 C 45.593255 37.515257 45.272364 36.953365 45.222656 36.423828 C 45.172948 35.894292 45.381655 35.2928 45.962891 34.472656 L 45.964844 34.472656 C 46.534769 33.663654 47.139175 32.857402 47.726562 32.074219 C 48.236028 31.394664 48.765871 30.689157 49.269531 29.984375 L 49.382812 29.824219 C 50.343304 28.479731 51.29059 27.167375 51.791016 25.574219 C 51.897607 25.233651 51.91475 25.028804 51.902344 24.888672 L 51.880859 24.644531 L 51.673828 24.511719 C 51.55215 24.433705 51.364412 24.357601 51.011719 24.296875 C 50.824101 24.2644 50.652082 24.265608 50.498047 24.265625 L 50.496094 24.265625 L 44.025391 24.259766 L 44.023438 24.259766 C 44.019904 24.259766 44.020157 24.259768 44.019531 24.259766 L 44.017578 24.259766 C 43.793789 24.255054 43.533294 24.270237 43.294922 24.429688 C 43.055939 24.589546 42.92937 24.827056 42.826172 25.089844 L 42.828125 25.089844 C 42.47836 25.978667 42.06672 26.999348 41.587891 27.976562 L 41.587891 27.978516 C 40.655313 29.89955 39.473952 32.090472 37.744141 33.947266 L 37.744141 33.949219 L 37.675781 34.021484 L 37.673828 34.021484 C 37.484099 34.226408 37.248932 34.472633 36.980469 34.621094 C 36.712006 34.769554 36.444337 34.839669 36.042969 34.707031 C 36.039155 34.705773 36.035287 34.704623 36.03125 34.703125 C 35.615374 34.548558 35.316831 34.1727 35.119141 33.708984 C 34.921451 33.245269 34.847887 32.708538 34.853516 32.4375 L 34.853516 32.431641 L 34.847656 24.90625 L 34.84375 24.873047 C 34.823811 24.731355 34.796183 24.565235 34.755859 24.400391 C 34.715536 24.235547 34.68212 24.077799 34.542969 23.890625 L 34.542969 23.888672 C 34.530394 23.871772 34.415168 23.740447 34.287109 23.666016 C 34.159051 23.591584 34.000196 23.532543 33.779297 23.482422 L 33.724609 23.470703 L 27.03125 23.470703 z M 27.591797 24.470703 L 33.599609 24.470703 C 33.680851 24.492884 33.732545 24.510976 33.75 24.519531 C 33.74919 24.525847 33.764273 24.553301 33.785156 24.638672 C 33.809619 24.738677 33.830626 24.863671 33.847656 24.980469 L 33.853516 32.416016 C 33.844244 32.862477 33.934759 33.479275 34.199219 34.099609 C 34.463679 34.719944 34.925569 35.358892 35.683594 35.640625 C 35.698957 35.646327 35.714883 35.651108 35.730469 35.65625 C 36.397052 35.875776 37.018256 35.743058 37.464844 35.496094 C 37.911931 35.248854 38.218333 34.906248 38.408203 34.701172 L 38.474609 34.628906 C 40.316148 32.652183 41.539801 30.36567 42.486328 28.416016 L 42.486328 28.414062 C 42.986529 27.393019 43.406373 26.348157 43.757812 25.455078 C 43.830115 25.270965 43.871571 25.248335 43.851562 25.261719 C 43.831554 25.275102 43.841223 25.25639 43.998047 25.259766 L 44 25.259766 C 44.011607 25.259989 44.018137 25.259766 44.023438 25.259766 L 50.496094 25.265625 C 50.638477 25.265625 50.773433 25.27212 50.832031 25.28125 C 50.392659 26.674188 49.528988 27.900241 48.570312 29.242188 L 48.455078 29.402344 C 47.960539 30.094362 47.435315 30.794964 46.925781 31.474609 C 46.338369 32.257826 45.727959 33.071087 45.146484 33.896484 C 44.498006 34.812117 44.145941 35.656761 44.226562 36.515625 C 44.307255 37.375238 44.810198 38.147377 45.619141 38.945312 C 45.985354 39.306765 46.35907 39.665377 46.71875 40.009766 C 47.739172 40.987287 48.687701 41.897402 49.523438 42.910156 C 49.96634 43.450234 50.45394 44.084077 50.796875 44.753906 C 50.898155 44.952397 50.854967 45.055012 50.841797 45.107422 L 45.138672 45.105469 C 45.103678 45.105469 45.066208 45.105993 45.027344 45.109375 C 44.002992 45.195617 43.20096 44.870842 42.314453 43.957031 C 41.782375 43.408791 41.256166 42.812044 40.742188 42.230469 C 40.49172 41.947105 40.231391 41.652131 39.96875 41.361328 L 39.966797 41.361328 C 39.634428 40.994249 39.205282 40.551156 38.636719 40.177734 L 38.636719 40.175781 C 37.759532 39.60002 36.947582 39.592638 36.4375 39.722656 C 35.932713 39.851255 35.230916 40.241308 34.738281 41.150391 C 34.124107 42.282478 33.998327 43.476407 33.947266 44.544922 L 33.947266 44.546875 C 33.920696 45.135173 33.778637 45.196142 33.919922 45.060547 C 34.051202 44.934419 33.943259 45.079432 33.335938 45.107422 C 30.270772 45.253229 27.746994 44.700905 25.556641 43.433594 C 23.642573 42.326074 21.959581 40.73572 20.242188 38.382812 C 17.699443 34.898603 15.446852 30.834165 12.964844 25.285156 C 14.721722 25.254087 16.51546 25.250373 18.462891 25.283203 C 18.555649 25.28459 18.586182 25.29187 18.628906 25.320312 C 18.671631 25.348755 18.754019 25.421692 18.849609 25.658203 C 20.006271 28.534394 21.346469 31.047364 22.945312 33.330078 C 23.363506 33.926969 23.917451 34.730545 24.775391 35.324219 C 25.586408 35.885844 26.349715 35.890728 26.824219 35.75 C 27.299426 35.609183 27.9385 35.187687 28.320312 34.273438 C 28.557547 33.70581 28.696639 33.074615 28.763672 32.3125 L 28.763672 32.310547 C 28.948557 30.126975 28.916776 28.293669 28.658203 26.558594 C 28.532203 25.69944 28.120109 25.02901 27.591797 24.470703 z "
       style="color:#000000;font-style:normal;font-variant:normal;font-weight:normal;font-stretch:normal;font-size:medium;line-height:normal;font-family:sans-serif;font-variant-ligatures:normal;font-variant-position:normal;font-variant-caps:normal;font-variant-numeric:normal;font-variant-alternates:normal;font-variant-east-asian:normal;font-feature-settings:normal;font-variation-settings:normal;text-indent:0;text-align:start;text-decoration:none;text-decoration-line:none;text-decoration-style:solid;text-decoration-color:#000000;letter-spacing:normal;word-spacing:normal;text-transform:none;writing-mode:lr-tb;direction:ltr;text-orientation:mixed;dominant-baseline:auto;baseline-shift:baseline;text-anchor:start;white-space:normal;shape-padding:0;shape-margin:0;inline-size:0;clip-rule:nonzero;display:inline;overflow:visible;visibility:visible;isolation:auto;mix-blend-mode:normal;color-interpolation:sRGB;color-interpolation-filters:linearRGB;solid-color:#000000;solid-opacity:1;vector-effect:none;fill-opacity:1;fill-rule:nonzero;stroke-width:1;stroke-linecap:butt;stroke-linejoin:miter;stroke-miterlimit:4;stroke-dasharray:none;stroke-dashoffset:0;stroke-opacity:1.0;color-rendering:auto;image-rendering:auto;shape-rendering:auto;text-rendering:auto;enable-background:accumulate;stop-color:#000000;stop-opacity:1;stroke:none;" />
  </g>
</svg>
