<svg viewBox="0 0 44 44" fill="none" xmlns="http://www.w3.org/2000/svg">
<path d="M22 0C9.85059 0 0 9.84844 0 22C0 34.1516 9.85059 44 22 44C34.1494 44 44 34.1494 44 22C44 9.85059 34.1494 0 22 0ZM35.3203 22.1719C35.3203 23.1881 35.3182 24.2344 35.2623 25.2656C35.2043 26.3119 35.0883 27.3496 34.8584 28.3465C34.6844 29.0898 34.2912 29.7365 33.7563 30.2178C33.2191 30.7012 32.5381 31.0191 31.7947 31.1008C30.1748 31.2812 28.5398 31.3715 26.9006 31.4166C25.2721 31.4617 23.635 31.4617 22.0021 31.4617C20.3693 31.4617 18.7322 31.4617 17.1037 31.4166C15.4645 31.3715 13.8295 31.2812 12.2074 31.1008C11.4641 31.0191 10.783 30.7012 10.2459 30.2178C9.71094 29.7365 9.31992 29.0898 9.1459 28.3465C8.91387 27.3496 8.79785 26.3098 8.73984 25.2656C8.68184 24.215 8.68184 23.1795 8.68184 22.174C8.68184 21.1664 8.68398 20.1309 8.74199 19.0803C8.80215 18.034 8.91816 16.9941 9.1502 15.9973C9.32207 15.2539 9.71524 14.6072 10.248 14.126C10.7852 13.6404 11.4662 13.3246 12.2117 13.2408C13.8316 13.0604 15.4666 12.9701 17.108 12.925C18.7387 12.8799 20.3736 12.8799 22.0064 12.8799C23.6393 12.8799 25.2764 12.8799 26.9049 12.925C28.5441 12.9701 30.1791 13.0604 31.799 13.2408C32.5445 13.3225 33.2256 13.6404 33.7627 14.1238C34.2977 14.6051 34.6908 15.2518 34.8627 15.9951C35.3203 17.9652 35.3203 20.1029 35.3203 22.1182H35.3225V22.1719H35.3203Z" fill="#F1E1D5"/>
<path d="M22.5238 19.3271C21.2713 18.6805 20.0209 18.0316 18.7662 17.3828L18.3516 17.168V17.6299V26.1807V26.6426L18.7641 26.4299C20.1498 25.7188 21.5291 25.0098 22.9084 24.3008L27.0527 22.1695L27.5361 21.9225L27.0548 21.6732C25.5359 20.8869 24.0299 20.107 22.5238 19.3271Z" fill="#F1E1D5"/>
</svg>
