<svg width="23" height="23" viewBox="0 0 23 23" fill="none" xmlns="http://www.w3.org/2000/svg">
<path d="M16.1982 0.856201H6.31919C3.10397 0.856201 0.488281 3.47189 0.488281 6.68711V16.5663C0.488281 19.7814 3.10397 22.3971 6.31919 22.3971H16.1984C19.4134 22.3971 22.0291 19.7814 22.0291 16.5663V6.68711C22.0291 3.47189 19.4134 0.856201 16.1982 0.856201ZM20.7663 16.5663C20.7663 19.085 18.7171 21.1342 16.1982 21.1342H6.31919C3.8003 21.1342 1.7511 19.085 1.7511 16.5663V6.68711C1.7511 4.16822 3.8003 2.11902 6.31919 2.11902H16.1984C18.7171 2.11902 20.7663 4.16822 20.7663 6.68711V16.5663Z" fill="white"/>
<path d="M11.2577 5.73689C8.00996 5.73689 5.36781 8.37904 5.36781 11.6268C5.36781 14.8746 8.00996 17.5167 11.2577 17.5167C14.5055 17.5167 17.1476 14.8746 17.1476 11.6268C17.1476 8.37904 14.5055 5.73689 11.2577 5.73689ZM11.2577 16.2539C8.70645 16.2539 6.63062 14.1782 6.63062 11.6268C6.63062 9.07553 8.70645 6.9997 11.2577 6.9997C13.8092 6.9997 15.8848 9.07553 15.8848 11.6268C15.8848 14.1782 13.8092 16.2539 11.2577 16.2539Z" fill="white"/>
<path d="M17.2892 3.64504C16.3294 3.64504 15.5488 4.42584 15.5488 5.38544C15.5488 6.34521 16.3294 7.12601 17.2892 7.12601C18.249 7.12601 19.0298 6.34521 19.0298 5.38544C19.0298 4.42568 18.249 3.64504 17.2892 3.64504ZM17.2892 5.86303C17.0259 5.86303 16.8116 5.64872 16.8116 5.38544C16.8116 5.122 17.0259 4.90786 17.2892 4.90786C17.5526 4.90786 17.7669 5.122 17.7669 5.38544C17.7669 5.64872 17.5526 5.86303 17.2892 5.86303Z" fill="white"/>
</svg>
