<svg width="30" height="30" viewBox="0 0 30 30" fill="none" xmlns="http://www.w3.org/2000/svg">
<path d="M5.21334 20.7315L3.97634 17.845C3.5914 16.9732 2.57262 16.5786 1.70084 16.9635C0.829062 17.3484 0.4344 18.3672 0.819343 19.239C3.09784 24.2515 3.20884 24.7945 4.21934 25.804L8.26934 29.854C8.36309 29.9478 8.49025 30.0005 8.62284 30.0005H14.0433C14.3195 30.0005 14.5433 29.7767 14.5433 29.5005C14.6106 28.4867 14.555 27.4685 14.3778 26.468C14.8205 26.51 15.2662 26.51 15.7088 26.468C15.4933 27.383 15.5433 27.945 15.5433 29.5C15.5433 29.7762 15.7672 30 16.0433 30H21.4658C21.5984 30 21.7256 29.9473 21.8193 29.8535L25.8693 25.8035C26.8783 24.794 26.9588 24.318 29.2693 19.2385C29.5184 18.6746 29.4476 18.0206 29.0837 17.523C28.7198 17.0254 28.1181 16.7597 27.5052 16.826C26.8923 16.8923 26.3614 17.2806 26.1123 17.8445L24.8733 20.7315C24.2929 20.33 23.5716 20.1881 22.8823 20.34C23.1137 19.7726 23.3101 19.1915 23.4703 18.6C24.4628 18.4 26.8673 17.5285 26.8673 13.75C26.8673 12.4695 26.6443 10.8915 25.3708 10.7175C27.1709 7.93152 27.8902 4.5835 27.3933 1.30401L27.1933 0.391506C27.1423 0.161868 26.9381 -0.00112934 26.7028 5.89297e-06H3.38384C3.14954 4.6103e-05 2.94669 0.162785 2.89584 0.391506L2.68584 1.34151C2.19784 4.61156 2.92021 7.9473 4.71734 10.7225C3.45634 10.9105 3.23784 12.484 3.23784 13.752C3.23784 17.532 5.64434 18.402 6.63784 18.602C6.79903 19.1951 6.99623 19.7779 7.22834 20.347C6.53251 20.1854 5.80079 20.3251 5.21334 20.7315ZM13.5433 29H8.82784L4.92784 25.097C4.11134 24.2825 4.11234 24.0665 1.72984 18.825C1.62516 18.5879 1.65495 18.3129 1.80797 18.1037C1.961 17.8945 2.21402 17.7828 2.47172 17.8107C2.72943 17.8386 2.95266 18.0019 3.05734 18.239C5.08284 22.966 4.29534 21.8145 8.26734 25.789C8.39288 25.919 8.57878 25.9711 8.7536 25.9254C8.92841 25.8796 9.06493 25.7431 9.11069 25.5683C9.15645 25.3934 9.10432 25.2075 8.97434 25.082C6.23534 22.3435 6.10584 22.2675 5.68834 21.628C6.24824 21.1632 7.0595 21.1619 7.62084 21.625C8.66225 22.5799 9.86536 23.3418 11.1738 23.875C12.3433 24.2635 13.5433 25.779 13.5433 27.9V29ZM14.0218 25.4125C13.5574 24.2697 12.6412 23.3696 11.4903 22.9255C10.5078 22.528 9.59601 21.9742 8.79034 21.2855C7.07234 18.2415 6.85134 14.573 6.84884 11.0775C7.90834 9.21051 10.6873 4.90401 15.0433 2.27651C19.4088 4.92351 22.1933 9.23651 23.2563 11.1085C23.2483 14.6585 23.0363 18.1585 21.3403 21.252C20.5227 21.955 19.5961 22.5202 18.5968 22.9255C17.445 23.3705 16.5283 24.2719 16.0638 25.416C15.387 25.5192 14.6983 25.518 14.0218 25.4125ZM24.3983 21.6255C23.9828 22.2625 23.8623 22.3295 21.1123 25.0795C20.9229 25.2757 20.9256 25.5876 21.1184 25.7804C21.3113 25.9733 21.6232 25.976 21.8193 25.7865C25.7533 21.853 25.0028 22.9685 27.0293 18.239C27.134 18.0019 27.3573 17.8386 27.615 17.8107C27.8727 17.7828 28.1257 17.8945 28.2787 18.1037C28.4317 18.3129 28.4615 18.5879 28.3568 18.825C26.0098 23.9885 25.9953 24.2625 25.1618 25.097L21.2588 29H16.5433V27.9C16.5263 26.8146 16.877 25.7553 17.5383 24.8945C18.7108 23.4285 19.0848 24.471 22.4658 21.625C23.0266 21.1612 23.8378 21.1614 24.3983 21.6255ZM25.8673 13.75C25.8673 16.2675 24.6468 17.1685 23.7393 17.4915C24.0772 15.7112 24.2459 13.903 24.2433 12.091C24.7058 11.7625 25.1158 11.6255 25.3433 11.7355C25.4658 11.7945 25.8673 12.1155 25.8673 13.75ZM26.3028 1.00001C26.9651 4.34191 26.2238 7.80909 24.2528 10.588C24.2053 6.85351 23.2188 4.29501 21.2358 2.77801C21.0164 2.61025 20.7026 2.65211 20.5348 2.87151C20.3671 3.0909 20.4089 3.40475 20.6283 3.57251C22.0738 4.67801 22.9023 6.48701 23.1608 9.04751C21.1558 6.00251 18.0593 2.75901 14.8283 1.00001H26.3028ZM3.78484 1.00001H10.6043C9.48876 1.73893 8.49374 2.64541 7.65434 3.68751C7.48175 3.90317 7.51668 4.21792 7.73234 4.39051C7.94801 4.5631 8.26276 4.52817 8.43534 4.31251C9.55295 2.93246 10.9608 1.8155 12.5588 1.04101C13.0668 1.24064 13.5639 1.46661 14.0483 1.71801C9.85134 4.42001 7.17084 8.45651 5.91284 10.7C3.88021 7.90565 3.10864 4.38864 3.78484 1.00001ZM4.23784 13.75C4.23784 12.1135 4.63784 11.7925 4.76284 11.7335C4.98584 11.626 5.40434 11.765 5.86284 12.089C5.86033 13.9019 6.02925 15.7109 6.36734 17.492C5.45984 17.171 4.23784 16.2705 4.23784 13.75Z" fill="#444444" fill-opacity="0.5"/>
<path d="M9.26605 10.8678C9.78743 10.6058 10.3919 10.5629 10.9451 10.7488L12.8846 11.3953C13.0543 11.4518 13.2412 11.4134 13.3749 11.2947C13.5086 11.1759 13.5689 10.9949 13.5329 10.8197C13.4969 10.6445 13.3703 10.5018 13.2006 10.4453L11.2611 9.80035C10.4565 9.53009 9.57731 9.59256 8.81905 9.97385C8.65781 10.0529 8.55131 10.2123 8.54005 10.3915C8.52879 10.5707 8.61448 10.7422 8.76456 10.8407C8.91464 10.9393 9.10606 10.9499 9.26605 10.8683V10.8678Z" fill="#444444" fill-opacity="0.5"/>
<path d="M17.0448 11.4213C17.1613 11.4213 17.0448 11.4488 19.1448 10.7493C19.6979 10.5629 20.3025 10.6058 20.8238 10.8683C20.9838 10.9498 21.1752 10.9393 21.3253 10.8407C21.4754 10.7421 21.561 10.5707 21.5498 10.3915C21.5385 10.2122 21.432 10.0528 21.2708 9.97383C20.5123 9.59256 19.633 9.5301 18.8283 9.80033L16.8893 10.4468C16.6569 10.524 16.5146 10.7583 16.5532 11.0001C16.5918 11.242 16.7999 11.4203 17.0448 11.4213Z" fill="#444444" fill-opacity="0.5"/>
<path d="M13.0155 13.3386C12.9268 13.0776 12.6437 12.9376 12.3825 13.0256C12.365 13.0311 10.66 13.5871 9.34297 12.5991C9.14493 12.4515 8.86878 12.4706 8.69297 12.6441C8.51741 12.8257 8.29068 12.9496 8.04297 12.9991C7.76683 12.9991 7.54297 13.223 7.54297 13.4991C7.54297 13.7753 7.76683 13.9991 8.04297 13.9991C8.41634 13.9791 8.77505 13.8472 9.07247 13.6206C9.14797 13.6656 9.22247 13.7056 9.29947 13.7441C9.23243 13.8459 9.1451 13.9327 9.04297 13.9991C8.76683 13.9991 8.54297 14.223 8.54297 14.4991C8.54297 15.1136 9.46647 15.3491 10.2795 14.0896C11.0851 14.2542 11.9191 14.2138 12.705 13.9721C12.9652 13.8824 13.104 13.5992 13.0155 13.3386Z" fill="#444444" fill-opacity="0.5"/>
<path d="M20.7437 12.6C19.4332 13.5825 17.7397 13.0385 17.7047 13.0265C17.4433 12.9373 17.1591 13.0768 17.0699 13.3382C16.9807 13.5996 17.1203 13.8838 17.3817 13.973C18.1675 14.215 19.0016 14.2554 19.8072 14.0905C20.0612 14.485 20.4967 15 21.0437 15C21.3222 15.0014 21.55 14.7785 21.5547 14.5C21.5575 14.3683 21.5072 14.2411 21.4151 14.147C21.3229 14.053 21.1968 13.9999 21.0652 14C20.9544 13.9364 20.8599 13.8479 20.7892 13.7415C20.8642 13.703 20.9392 13.664 21.0142 13.619C21.3113 13.8465 21.67 13.9792 22.0437 14C22.3198 14 22.5437 13.7761 22.5437 13.5C22.5437 13.2238 22.3198 13 22.0437 13C21.7973 12.9503 21.5719 12.827 21.3972 12.6465C21.2212 12.4705 20.9427 12.4507 20.7437 12.6Z" fill="#444444" fill-opacity="0.5"/>
<path d="M13.2656 17.4161C14.3413 18.1358 15.7449 18.1358 16.8206 17.4161C16.9692 17.317 17.0536 17.1461 17.0421 16.9678C17.0306 16.7895 16.9248 16.6309 16.7646 16.5518C16.6044 16.4727 16.4142 16.485 16.2656 16.5841C15.5256 17.0787 14.5606 17.0787 13.8206 16.5841C13.5908 16.4309 13.2803 16.4929 13.1271 16.7226C12.9738 16.9524 13.0358 17.2629 13.2656 17.4161Z" fill="#444444" fill-opacity="0.5"/>
<path d="M18.043 20.4C18.0414 20.2325 17.9708 20.0731 17.8477 19.9594C17.7246 19.8458 17.56 19.7881 17.393 19.8C16.9785 19.8 15.7515 19 15.043 19C14.325 19 13.115 19.8 12.6955 19.8C12.528 19.7876 12.3629 19.845 12.2392 19.9586C12.1156 20.0723 12.0446 20.2321 12.043 20.4C12.043 21.1055 13.4555 22 15.043 22C16.6305 22 18.043 21.105 18.043 20.4ZM15.043 20C15.5811 20.1576 16.104 20.3631 16.6055 20.614C15.6273 21.1285 14.4586 21.1285 13.4805 20.614C13.9817 20.3626 14.5047 20.1571 15.043 20Z" fill="#444444" fill-opacity="0.5"/>
<path d="M15.543 23H14.543C14.2668 23 14.043 23.2239 14.043 23.5C14.043 23.7761 14.2668 24 14.543 24H15.543C15.8191 24 16.043 23.7761 16.043 23.5C16.043 23.2239 15.8191 23 15.543 23Z" fill="#444444" fill-opacity="0.5"/>
<path d="M6.54331 6C6.81964 6 7.04365 5.77614 7.04365 5.5C7.04365 5.22386 6.81964 5 6.54331 5C6.26698 5 6.04297 5.22386 6.04297 5.5C6.04297 5.77614 6.26698 6 6.54331 6Z" fill="#444444" fill-opacity="0.5"/>
</svg>
