<svg width="34" height="31" viewBox="0 0 34 31" fill="none" xmlns="http://www.w3.org/2000/svg">
<path d="M29.7569 17.4375H29.2031V18.4062H29.7569C29.9038 18.4062 30.0446 18.4573 30.1485 18.5481C30.2524 18.639 30.3107 18.7622 30.3107 18.8906V19.375H31.4183V18.8906C31.4183 18.5052 31.2432 18.1356 30.9317 17.8631C30.6201 17.5906 30.1975 17.4375 29.7569 17.4375Z" fill="#444444" fill-opacity="0.5"/>
<path d="M25.3275 19.375C24.7067 19.375 23.6662 19.2491 23.6662 18.4062H22.5586C22.5586 19.2999 23.2841 20.3438 25.3275 20.3438C27.371 20.3438 28.0965 19.2999 28.0965 18.4062H26.9889C26.9889 19.2491 25.9483 19.375 25.3275 19.375Z" fill="#444444" fill-opacity="0.5"/>
<path d="M33.6332 15.5003C33.6332 14.9864 33.3998 14.4936 32.9844 14.1303C32.569 13.7669 32.0055 13.5628 31.418 13.5628H31.3737C31.405 13.4028 31.4198 13.2407 31.418 13.0784C31.4169 12.1795 31.0081 11.3176 30.2813 10.682C29.5546 10.0464 28.5693 9.6888 27.5415 9.68777C26.9713 9.69017 26.4094 9.80821 25.9001 10.0326C25.3909 10.257 24.948 10.5817 24.6064 10.9811C24.4028 10.8917 24.1894 10.8203 23.9696 10.7679L25.0218 9.16949L26.1293 7.49355L26.6831 6.65074C26.7924 6.48604 26.8635 6.30411 26.8924 6.11534C26.9212 5.92658 26.9071 5.7347 26.8511 5.55069C26.795 5.36668 26.698 5.19414 26.5656 5.04296C26.4332 4.89178 26.268 4.76492 26.0795 4.66965L22.718 2.97433L22.9949 2.55293C23.0324 2.49815 23.0567 2.43721 23.0663 2.37389C23.0758 2.31057 23.0703 2.24621 23.0503 2.1848C23.0134 2.0607 22.9218 1.95445 22.7955 1.88933L20.8739 0.920583C20.7467 0.857434 20.5962 0.840836 20.4551 0.874411C20.314 0.907987 20.1938 0.98901 20.1207 1.0998L12.7608 12.2501L6.92944 13.6209C6.85855 13.6355 6.79192 13.6629 6.73376 13.7013C6.67561 13.7396 6.62721 13.7881 6.59162 13.8437L0.223039 23.4925C0.186423 23.5477 0.162673 23.6088 0.153157 23.6722C0.143641 23.7355 0.148547 23.7999 0.167592 23.8616C0.186638 23.9232 0.219446 23.981 0.264129 24.0316C0.308811 24.0821 0.364484 24.1244 0.427941 24.1561L2.34405 25.1248C2.42928 25.1648 2.52423 25.1864 2.62095 25.1878C2.66942 25.1877 2.71773 25.1828 2.76494 25.1732C2.90706 25.1386 3.02821 25.057 3.10275 24.9456L8.80125 16.3092L14.6327 14.9432C14.7718 14.9086 14.8906 14.8289 14.9649 14.7204L15.5187 13.8776L18.1548 15.2096C18.1368 15.3057 18.1276 15.4029 18.1271 15.5003C18.1293 15.791 18.2069 16.0776 18.3541 16.3382C17.9357 16.6554 17.6001 17.0474 17.3698 17.4878C17.1396 17.9282 17.0201 18.4067 17.0195 18.8909V19.3171C17.0186 20.6933 17.2864 22.0595 17.8114 23.3568L20.1263 29.0821C20.242 29.3753 20.4651 29.627 20.7608 29.7981C21.0566 29.9692 21.4086 30.0503 21.7624 30.0288C22.1162 30.0073 22.452 29.8844 22.7178 29.6791C22.9837 29.4738 23.1647 29.1976 23.233 28.8932L24.8113 25.2943C24.8521 25.204 24.9231 25.1265 25.0149 25.0718C25.1068 25.0172 25.2153 24.988 25.3263 24.988C25.4374 24.988 25.5459 25.0172 25.6378 25.0718C25.7296 25.1265 25.8005 25.204 25.8414 25.2943L27.4197 28.8932C27.4884 29.197 27.6694 29.4727 27.9348 29.6776C28.2002 29.8826 28.5353 30.0056 28.8885 30.0276C29.2416 30.0497 29.5933 29.9695 29.8893 29.7995C30.1853 29.6296 30.4091 29.3792 30.5264 29.087L32.8413 23.3568C33.3662 22.0595 33.6341 20.6933 33.6332 19.3171V18.8909C33.6323 18.1874 33.3806 17.5017 32.9133 16.9292C33.1394 16.7473 33.3201 16.5264 33.444 16.2805C33.5679 16.0346 33.6323 15.769 33.6332 15.5003ZM24.3406 8.26371L20.5028 6.32621L21.0566 5.48824L24.8944 7.42574L24.3406 8.26371ZM18.2877 9.68293L18.8415 8.84496L22.5242 10.705C22.0588 10.7761 21.6167 10.9348 21.2283 11.17L18.2877 9.68293ZM20.4087 11.8771C20.1947 12.141 20.0319 12.434 19.9269 12.7442L17.1856 11.3589L17.7339 10.5257L20.4087 11.8771ZM19.3953 8.00699L19.949 7.16902L23.7868 9.10652L23.233 9.94449L19.3953 8.00699ZM25.5257 5.50761C25.6514 5.57232 25.7429 5.6778 25.7802 5.80114C25.8176 5.92448 25.7977 6.05573 25.7251 6.16636L25.4482 6.58777L21.6104 4.65027L22.1642 3.8123L25.5257 5.50761ZM14.1232 14.0617L8.29176 15.4276C8.15014 15.4603 8.02885 15.5403 7.95395 15.6504L2.41605 24.0398L1.45799 23.5554L7.43339 14.5025L13.2648 13.1365C13.3355 13.12 13.4018 13.0914 13.4598 13.0523C13.5177 13.0132 13.5663 12.9645 13.6026 12.9089L20.8019 2.00558L21.7599 2.48996L14.1232 14.0617ZM16.0725 13.0396L16.6318 12.2017L19.578 13.6887C19.1895 13.8105 18.8493 14.0274 18.5978 14.3136L16.0725 13.0396ZM32.5256 19.3171C32.5274 20.583 32.2801 21.8398 31.7946 23.0323L29.4798 28.7673C29.4447 28.8534 29.3802 28.9279 29.295 28.9808C29.2098 29.0337 29.108 29.0623 29.0035 29.0628C28.8829 29.0639 28.7659 29.0267 28.6743 28.9581C28.5826 28.8895 28.5225 28.7942 28.5051 28.6898C28.4985 28.6554 28.4892 28.6214 28.4774 28.5881L26.877 24.9456C26.7564 24.6715 26.5437 24.4357 26.2669 24.2694C25.9901 24.1032 25.6621 24.0141 25.3263 24.0141C24.9905 24.0141 24.6626 24.1032 24.3858 24.2694C24.109 24.4357 23.8963 24.6715 23.7757 24.9456L22.1753 28.5881C22.1634 28.6214 22.1542 28.6554 22.1476 28.6898C22.1303 28.7873 22.0761 28.8769 21.9936 28.9442C21.9112 29.0115 21.8053 29.0527 21.6929 29.061C21.5805 29.0694 21.4682 29.0445 21.3739 28.9904C21.2796 28.9363 21.2088 28.856 21.1729 28.7625L18.8581 23.0323C18.3726 21.8398 18.1253 20.583 18.1271 19.3171V18.8909C18.1271 18.2486 18.4188 17.6326 18.9381 17.1784C19.4574 16.7242 20.1617 16.469 20.896 16.469H23.1112C23.6982 16.469 24.479 17.4523 24.8224 18.1207C24.8664 18.2053 24.9374 18.277 25.0267 18.3273C25.1161 18.3776 25.2201 18.4043 25.3263 18.4043C25.4326 18.4043 25.5366 18.3776 25.626 18.3273C25.7153 18.277 25.7862 18.2053 25.8303 18.1207C26.1736 17.4523 26.9545 16.469 27.5415 16.469H29.7567C30.491 16.469 31.1953 16.7242 31.7146 17.1784C32.2339 17.6326 32.5256 18.2486 32.5256 18.8909V19.3171ZM32.149 16.2268C31.4682 15.7553 30.625 15.4993 29.7567 15.5003H27.5415C26.5779 15.5003 25.8026 16.2801 25.3263 16.9243C24.8501 16.2801 24.0748 15.5003 23.1112 15.5003H20.896C20.3437 15.5008 19.798 15.6048 19.2956 15.8054C19.2557 15.7074 19.2351 15.6043 19.2347 15.5003C19.2355 15.2436 19.3525 14.9976 19.56 14.8161C19.7675 14.6346 20.0488 14.5323 20.3422 14.5315C20.4891 14.5315 20.63 14.4805 20.7338 14.3897C20.8377 14.2988 20.896 14.1756 20.896 14.0471V13.5628C20.896 13.0489 21.1294 12.5561 21.5448 12.1928C21.9603 11.8294 22.5237 11.6253 23.1112 11.6253C23.593 11.6388 24.0594 11.777 24.4514 12.0225C24.5141 12.0612 24.5855 12.0881 24.6608 12.1015C24.7361 12.1148 24.8138 12.1143 24.8888 12.1C25.0375 12.0697 25.1667 11.9897 25.2488 11.8771C25.4742 11.5151 25.8049 11.2115 26.2075 10.9972C26.6101 10.7828 27.0703 10.6653 27.5415 10.6565C28.2759 10.6565 28.9802 10.9117 29.4994 11.3659C30.0187 11.8201 30.3105 12.4361 30.3105 13.0784C30.3079 13.3539 30.2536 13.6272 30.1499 13.8873C30.1205 13.9602 30.1112 14.0381 30.1228 14.1146C30.1343 14.1912 30.1664 14.2644 30.2163 14.3281C30.2687 14.3906 30.337 14.4415 30.4158 14.4768C30.4947 14.5121 30.5819 14.5308 30.6704 14.5315H31.418C31.6429 14.5318 31.8623 14.5919 32.0471 14.7039C32.2319 14.8159 32.3734 14.9744 32.4528 15.1584C32.5321 15.3424 32.5455 15.5432 32.4913 15.734C32.437 15.9249 32.3177 16.0968 32.149 16.2268Z" fill="#444444" fill-opacity="0.5"/>
<path d="M31.4192 9.20312C31.7478 9.20312 32.069 9.1179 32.3422 8.95823C32.6154 8.79856 32.8283 8.57161 32.9541 8.30609C33.0798 8.04056 33.1127 7.74839 33.0486 7.46651C32.9845 7.18463 32.8263 6.92571 32.5939 6.72249C32.3616 6.51926 32.0656 6.38087 31.7433 6.3248C31.421 6.26873 31.087 6.2975 30.7834 6.40749C30.4798 6.51747 30.2204 6.70372 30.0378 6.94269C29.8553 7.18165 29.7578 7.4626 29.7578 7.75C29.7578 8.13539 29.9329 8.505 30.2444 8.77751C30.556 9.05003 30.9786 9.20312 31.4192 9.20312ZM31.4192 7.26563C31.5287 7.26563 31.6358 7.29403 31.7269 7.34726C31.8179 7.40048 31.8889 7.47613 31.9308 7.56464C31.9727 7.65315 31.9837 7.75054 31.9623 7.8445C31.941 7.93846 31.8882 8.02476 31.8108 8.09251C31.7333 8.16025 31.6346 8.20638 31.5272 8.22507C31.4198 8.24376 31.3084 8.23417 31.2073 8.1975C31.1061 8.16084 31.0196 8.09876 30.9587 8.0191C30.8979 7.93945 30.8654 7.8458 30.8654 7.75C30.8654 7.62154 30.9237 7.49833 31.0276 7.4075C31.1314 7.31666 31.2723 7.26563 31.4192 7.26563Z" fill="#444444" fill-opacity="0.5"/>
<path d="M13.6965 16.4688C13.3679 16.4688 13.0467 16.554 12.7735 16.7136C12.5003 16.8733 12.2874 17.1003 12.1616 17.3658C12.0359 17.6313 12.003 17.9235 12.0671 18.2054C12.1312 18.4872 12.2894 18.7462 12.5218 18.9494C12.7541 19.1526 13.0501 19.291 13.3724 19.3471C13.6947 19.4031 14.0287 19.3744 14.3323 19.2644C14.6359 19.1544 14.8954 18.9682 15.0779 18.7292C15.2605 18.4902 15.3579 18.2093 15.3579 17.9219C15.3579 17.5365 15.1829 17.1669 14.8713 16.8944C14.5597 16.6218 14.1372 16.4688 13.6965 16.4688ZM13.6965 18.4062C13.587 18.4062 13.4799 18.3778 13.3889 18.3246C13.2978 18.2714 13.2268 18.1957 13.1849 18.1072C13.143 18.0187 13.132 17.9213 13.1534 17.8274C13.1747 17.7334 13.2275 17.6471 13.3049 17.5794C13.3824 17.5116 13.4811 17.4655 13.5885 17.4468C13.6959 17.4281 13.8073 17.4377 13.9085 17.4744C14.0096 17.511 14.0961 17.5731 14.157 17.6528C14.2178 17.7324 14.2503 17.8261 14.2503 17.9219C14.2503 18.0503 14.192 18.1735 14.0881 18.2644C13.9843 18.3552 13.8434 18.4062 13.6965 18.4062Z" fill="#444444" fill-opacity="0.5"/>
<path d="M10.3723 21.7969C10.0437 21.7969 9.72251 21.8821 9.4493 22.0418C9.17609 22.2014 8.96315 22.4284 8.8374 22.6939C8.71166 22.9594 8.67876 23.2516 8.74286 23.5335C8.80697 23.8154 8.9652 24.0743 9.19754 24.2775C9.42989 24.4807 9.72592 24.6191 10.0482 24.6752C10.3705 24.7313 10.7045 24.7025 11.0081 24.5925C11.3117 24.4825 11.5711 24.2963 11.7537 24.0573C11.9362 23.8183 12.0337 23.5374 12.0337 23.25C12.0337 22.8646 11.8586 22.495 11.5471 22.2225C11.2355 21.95 10.8129 21.7969 10.3723 21.7969ZM10.3723 23.7344C10.2628 23.7344 10.1557 23.706 10.0646 23.6527C9.97357 23.5995 9.90259 23.5239 9.86067 23.4354C9.81876 23.3469 9.80779 23.2495 9.82916 23.1555C9.85053 23.0615 9.90327 22.9752 9.98072 22.9075C10.0582 22.8398 10.1568 22.7936 10.2643 22.7749C10.3717 22.7562 10.483 22.7658 10.5842 22.8025C10.6854 22.8392 10.7719 22.9012 10.8328 22.9809C10.8936 23.0606 10.9261 23.1542 10.9261 23.25C10.9261 23.3785 10.8678 23.5017 10.7639 23.5925C10.66 23.6833 10.5192 23.7344 10.3723 23.7344Z" fill="#444444" fill-opacity="0.5"/>
<path d="M17.0207 27.125C16.6922 27.125 16.3709 27.2102 16.0977 27.3699C15.8245 27.5296 15.6116 27.7565 15.4858 28.022C15.3601 28.2876 15.3272 28.5797 15.3913 28.8616C15.4554 29.1435 15.6136 29.4024 15.846 29.6056C16.0783 29.8089 16.3744 29.9473 16.6966 30.0033C17.0189 30.0594 17.3529 30.0306 17.6565 29.9206C17.9601 29.8107 18.2196 29.6244 18.4021 29.3854C18.5847 29.1465 18.6821 28.8655 18.6821 28.5781C18.6821 28.1927 18.5071 27.8231 18.1955 27.5506C17.8839 27.2781 17.4614 27.125 17.0207 27.125ZM17.0207 29.0625C16.9112 29.0625 16.8041 29.0341 16.7131 28.9809C16.622 28.9276 16.551 28.852 16.5091 28.7635C16.4672 28.675 16.4562 28.5776 16.4776 28.4836C16.499 28.3897 16.5517 28.3034 16.6292 28.2356C16.7066 28.1679 16.8053 28.1217 16.9127 28.1031C17.0201 28.0844 17.1315 28.094 17.2327 28.1306C17.3339 28.1673 17.4204 28.2294 17.4812 28.309C17.5421 28.3887 17.5745 28.4823 17.5745 28.5781C17.5745 28.7066 17.5162 28.8298 17.4123 28.9206C17.3085 29.0115 17.1676 29.0625 17.0207 29.0625Z" fill="#444444" fill-opacity="0.5"/>
<path d="M27.543 12.1094H28.6513V13.0781H27.543V12.1094Z" fill="#444444" fill-opacity="0.5"/>
<path d="M27.543 3.875H28.6513V4.84375H27.543V3.875Z" fill="#444444" fill-opacity="0.5"/>
<path d="M13.6953 21.7969H14.8037V22.7656H13.6953V21.7969Z" fill="#444444" fill-opacity="0.5"/>
<path d="M8.71094 18.4062H9.81927V19.375H8.71094V18.4062Z" fill="#444444" fill-opacity="0.5"/>
<path d="M9.82031 28.0938H10.9286V29.0625H9.82031V28.0938Z" fill="#444444" fill-opacity="0.5"/>
</svg>
