<svg width="31" height="30" viewBox="0 0 31 30" fill="none" xmlns="http://www.w3.org/2000/svg">
<g clip-path="url(#clip0)">
<path d="M12.0469 8.14575L12.0278 6.5332L11.0278 6.54468L11.0425 7.76172L9.86132 8.05615C9.63647 8.1123 9.47949 8.31592 9.48242 8.54785L9.49804 9.76221L8.31933 10.0547C8.0874 10.1123 7.92871 10.3259 7.94043 10.5647L8.00244 11.8147L6.98755 12.5457C6.79297 12.6853 6.72461 12.9431 6.82446 13.1606L7.32983 14.2607L6.37305 15.0012C6.18823 15.1433 6.12598 15.3938 6.2229 15.6057L6.72851 16.7058L5.77344 17.4458L6.3855 18.2368L7.65649 17.2532C7.84106 17.1113 7.90332 16.8606 7.80639 16.6487L7.30151 15.5488L8.25805 14.8083C8.44238 14.6663 8.50464 14.416 8.40796 14.2043L7.90796 13.1157L8.80786 12.4658C8.94604 12.3667 9.02441 12.2043 9.01587 12.0347L8.96093 10.9238L10.1245 10.6348C10.3496 10.5789 10.5068 10.3752 10.5039 10.1433L10.4885 8.92822L11.6689 8.63428C11.8926 8.57812 12.0486 8.37622 12.0469 8.14575Z" fill="#444444" fill-opacity="0.5"/>
<path d="M21.2344 20.7751L21.3774 19.7754L22.3674 19.917L22.2244 20.9167L21.2344 20.7751Z" fill="#444444" fill-opacity="0.5"/>
<path d="M21.5195 18.7754L22.8071 9.77539L23.7971 9.91699L22.5095 18.917L21.5195 18.7754Z" fill="#444444" fill-opacity="0.5"/>
<path d="M26.0664 28.3455C26.0664 27.5171 25.3948 26.8455 24.5664 26.8455H23.1843L19.6123 25.0596L22.0454 8.02905L22.4399 7.43701C22.8701 6.7959 22.9778 5.99121 22.7314 5.25952L21.041 0.1875L20.0908 0.503418L21.782 5.57593C21.9297 6.01489 21.865 6.49756 21.6069 6.88208L11.1504 22.5681C11.0747 22.6814 11.0488 22.8208 11.0784 22.9541L12.0784 27.4541C12.1292 27.6826 12.332 27.8455 12.5664 27.8455H14.0664C14.3425 27.8455 14.5664 28.0693 14.5664 28.3455C14.5664 28.6216 14.3425 28.8455 14.0664 28.8455H9.80249C9.23389 28.8472 8.71362 28.5259 8.46094 28.0166L6.22144 23.5376C6.11963 23.3335 6.06665 23.1089 6.06641 22.8811V22.5171C6.06567 22.0576 6.37817 21.657 6.82397 21.5454L7.6875 21.3301C7.84351 21.291 7.97144 21.1794 8.03101 21.03L11.1714 13.178C11.7285 11.7874 12.4436 10.4651 13.3025 9.23755L15.4758 6.13208C15.5725 5.9939 15.5933 5.81665 15.531 5.65991L13.531 0.659912L12.6018 1.03101L14.502 5.78101L12.4829 8.66553C11.5798 9.95581 10.8284 11.3457 10.2434 12.8081L7.19702 20.4231L6.5813 20.5774C5.69067 20.7991 5.06567 21.5991 5.06641 22.5171V22.8811C5.06689 23.2639 5.15601 23.6418 5.3269 23.9846L7.56641 28.4634C7.63525 28.5977 7.71606 28.7256 7.80737 28.8455H2.56641V29.8455H30.5664V28.8455H25.9744C26.0337 28.6853 26.0647 28.5161 26.0664 28.3455ZM14.5205 19.3154L14.0798 24.1736L12.8003 26.0955L12.1003 22.9456L14.5205 19.3154ZM15.4744 28.8455C15.5337 28.6853 15.5647 28.5161 15.5664 28.3455C15.5664 27.5171 14.8948 26.8455 14.0664 26.8455H13.5005L14.9824 24.623C15.0295 24.5537 15.0583 24.4739 15.0664 24.3904L15.6848 17.572L20.762 9.95703L18.5713 25.2744C18.5408 25.4878 18.6501 25.6968 18.843 25.793L22.843 27.793C22.9124 27.8276 22.9888 27.8455 23.0664 27.8455H24.5664C24.8425 27.8455 25.0664 28.0693 25.0664 28.3455C25.0664 28.6216 24.8425 28.8455 24.5664 28.8455H15.4744Z" fill="#444444" fill-opacity="0.5"/>
<path d="M0.566406 28.8457H1.56641V29.8457H0.566406V28.8457Z" fill="#444444" fill-opacity="0.5"/>
</g>
<defs>
<clipPath id="clip0">
<rect width="30" height="30" fill="white" transform="translate(0.566406)"/>
</clipPath>
</defs>
</svg>
