<svg width="31" height="30" viewBox="0 0 31 30" fill="none" xmlns="http://www.w3.org/2000/svg">
<path d="M15.5 24.8125C15.7848 24.8125 16.0156 24.5816 16.0156 24.2969C16.0156 24.0121 15.7848 23.7812 15.5 23.7812C15.2152 23.7812 14.9844 24.0121 14.9844 24.2969C14.9844 24.5816 15.2152 24.8125 15.5 24.8125Z" fill="#444444" fill-opacity="0.5"/>
<path d="M17.0469 8.82812C16.9101 8.82812 16.779 8.88245 16.6823 8.97915C16.5856 9.07585 16.5312 9.207 16.5312 9.34375C16.5312 9.4805 16.5856 9.61165 16.6823 9.70835C16.779 9.80505 16.9101 9.85938 17.0469 9.85938H18.5938C18.7305 9.85938 18.8617 9.80505 18.9584 9.70835C19.0551 9.61165 19.1094 9.4805 19.1094 9.34375C19.1094 9.207 19.0551 9.07585 18.9584 8.97915C18.8617 8.88245 18.7305 8.82812 18.5938 8.82812H17.0469Z" fill="#444444" fill-opacity="0.5"/>
<path d="M17.6914 11.5254C18.0474 11.5254 18.3359 11.2368 18.3359 10.8809C18.3359 10.5249 18.0474 10.2363 17.6914 10.2363C17.3354 10.2363 17.0469 10.5249 17.0469 10.8809C17.0469 11.2368 17.3354 11.5254 17.6914 11.5254Z" fill="#444444" fill-opacity="0.5"/>
<path d="M13.9531 8.82812H12.4062C12.2695 8.82812 12.1383 8.88245 12.0416 8.97915C11.9449 9.07585 11.8906 9.207 11.8906 9.34375C11.8906 9.4805 11.9449 9.61165 12.0416 9.70835C12.1383 9.80505 12.2695 9.85938 12.4062 9.85938H13.9531C14.0899 9.85938 14.221 9.80505 14.3177 9.70835C14.4144 9.61165 14.4688 9.4805 14.4688 9.34375C14.4688 9.207 14.4144 9.07585 14.3177 8.97915C14.221 8.88245 14.0899 8.82812 13.9531 8.82812Z" fill="#444444" fill-opacity="0.5"/>
<path d="M13.3086 11.5254C13.6646 11.5254 13.9531 11.2368 13.9531 10.8809C13.9531 10.5249 13.6646 10.2363 13.3086 10.2363C12.9526 10.2363 12.6641 10.5249 12.6641 10.8809C12.6641 11.2368 12.9526 11.5254 13.3086 11.5254Z" fill="#444444" fill-opacity="0.5"/>
<path d="M1.06256 29.9681H29.9376C30.0112 29.9681 30.084 29.9523 30.1511 29.9218C30.2181 29.8913 30.2778 29.8468 30.3262 29.7913C30.3746 29.7358 30.4106 29.6706 30.4317 29.6C30.4527 29.5294 30.4584 29.4551 30.4484 29.3822L30.2106 27.6548C30.1137 26.9491 29.8461 26.2776 29.4311 25.6986C29.0161 25.1197 28.4661 24.6506 27.8288 24.3322L27.8219 24.3288L25.2959 23.1125C25.2934 23.0193 25.2657 22.9286 25.2157 22.8499C25.1656 22.7713 25.0952 22.7077 25.0119 22.6659L22.9494 21.6347C22.8581 21.588 22.7549 21.5701 22.6532 21.5832C22.5515 21.5964 22.4562 21.64 22.3798 21.7084L20.3967 20.7535L18.8798 19.7423C18.7952 19.6858 18.6956 19.6556 18.5938 19.6556V19.3731C19.3876 18.86 20.0397 18.1556 20.4902 17.3247C20.9406 16.4937 21.1751 15.5629 21.1719 14.6177V13.3301H21.3689C21.7156 13.3313 22.0557 13.2353 22.3506 13.053C22.6455 12.8707 22.8835 12.6094 23.0375 12.2988C23.1667 12.0397 23.2341 11.7541 23.2344 11.4645V10.5548C23.2346 10.0758 23.0499 9.61523 22.7188 9.26913V6.48412C22.7201 6.01486 22.6283 5.55002 22.4487 5.11648C22.2692 4.68294 22.0054 4.28931 21.6727 3.95839C21.5955 3.88116 21.5226 3.79971 21.4544 3.71444L20.4548 2.46501C19.5937 1.38863 18.4144 0.612018 17.0854 0.246163C15.7564 -0.119692 14.3458 -0.0560577 13.0552 0.42797L12.4713 0.647111C11.5279 0.999593 10.7532 1.69689 10.3038 2.59824L9.94162 3.32256C9.42731 3.69157 9.00841 4.1779 8.71966 4.7412C8.4309 5.3045 8.28063 5.92853 8.28131 6.56152V9.26939C7.95019 9.61549 7.76547 10.0761 7.76568 10.555V11.4645C7.76604 11.7541 7.83345 12.0397 7.96265 12.2988C8.11663 12.6094 8.35457 12.8707 8.6495 13.053C8.94442 13.2353 9.28451 13.3313 9.63121 13.3301H9.82818V14.6177C9.82503 15.5629 10.0595 16.4937 10.51 17.3247C10.9604 18.1556 11.6125 18.86 12.4063 19.3731V19.6556C12.3045 19.6555 12.205 19.6857 12.1203 19.7422L10.5734 20.7734C10.5605 20.7822 10.5488 20.7928 10.5368 20.8024L8.5649 21.6665C8.56052 21.6636 8.55665 21.6601 8.55201 21.6574C8.47724 21.6112 8.3919 21.5849 8.30409 21.5809C8.21628 21.577 8.12892 21.5955 8.05031 21.6349L5.98781 22.6661C5.91183 22.7042 5.84645 22.7604 5.7975 22.8299C5.74854 22.8994 5.71754 22.9799 5.70724 23.0642L3.17127 24.3321C2.53403 24.6505 1.98405 25.1195 1.569 25.6985C1.15395 26.2775 0.886356 26.949 0.789404 27.6547L0.551701 29.3821C0.541646 29.455 0.547344 29.5293 0.56841 29.5999C0.589477 29.6705 0.625423 29.7357 0.673828 29.7913C0.722234 29.8468 0.781975 29.8913 0.849029 29.9218C0.916083 29.9523 0.988893 29.9681 1.06256 29.9681ZM25.2969 24.2575L27.371 25.2562C27.8575 25.4999 28.2773 25.8586 28.5941 26.301C28.9108 26.7435 29.1151 27.2565 29.1891 27.7956L29.3461 28.9368H27.3594V27.2519C27.3594 27.1152 27.3051 26.984 27.2084 26.8873C27.1117 26.7906 26.9806 26.7363 26.8438 26.7363C26.7071 26.7363 26.5759 26.7906 26.4792 26.8873C26.3825 26.984 26.3282 27.1152 26.3282 27.2519V28.9368H25.7197L25.2969 26.8233V24.2575ZM23.2344 22.9298L24.2657 23.4454V26.3587H23.2344V22.9298ZM20.4684 21.9322L22.2032 22.7678V26.3587H17.5626V24.3406L18.8097 25.2314C18.8769 25.2794 18.9547 25.3106 19.0364 25.3222C19.1182 25.3339 19.2015 25.3258 19.2795 25.2986C19.3574 25.2714 19.4277 25.2258 19.4844 25.1657C19.5411 25.1057 19.5825 25.0329 19.6052 24.9535L20.4684 21.9322ZM19.5415 21.4224L18.8144 23.9675L16.4077 22.2484L18.5938 20.7909L19.5415 21.4224ZM17.5972 20.2157L15.5001 21.614L13.4029 20.2159C13.4255 20.1576 13.4372 20.0957 13.4376 20.0332V19.9005C14.7631 20.422 16.237 20.422 17.5626 19.9005V20.0334C17.5629 20.0958 17.5747 20.1577 17.5972 20.2159V20.2157ZM16.5313 23.604V26.3587H14.4688V23.604L15.5001 22.8673L16.5313 23.604ZM20.1239 12.155L18.0322 13.4101L15.6915 12.4737C15.6306 12.4496 15.5656 12.4373 15.5001 12.4375V11.9212C15.5001 11.7844 15.4457 11.6533 15.349 11.5566C15.2523 11.4599 15.1212 11.4056 14.9844 11.4056C14.8477 11.4056 14.7165 11.4599 14.6198 11.5566C14.5231 11.6533 14.4688 11.7844 14.4688 11.9212V12.8916L13.4376 13.4072L10.8746 12.1257C10.8648 11.925 10.8594 7.93902 10.8594 7.93902L12.1826 5.73369H18.8175L20.1407 7.93902C20.1407 7.93902 20.1348 11.9444 20.1239 12.155ZM22.2032 10.5548V11.4643C22.203 11.5938 22.1729 11.7215 22.1151 11.8374C22.0463 11.9763 21.9398 12.0931 21.8079 12.1747C21.676 12.2562 21.524 12.2991 21.3689 12.2986H21.153C21.1519 12.2947 21.1502 12.291 21.149 12.2871C21.1637 12.0325 21.1719 11.7772 21.1719 11.5237V9.72069H21.3689C21.5901 9.72095 21.8021 9.8089 21.9585 9.96526C22.1149 10.1216 22.2029 10.3336 22.2032 10.5548ZM9.84752 12.2988H9.63134C9.47629 12.2993 9.3242 12.2564 9.1923 12.1749C9.0604 12.0934 8.95398 11.9766 8.8851 11.8377C8.82731 11.7218 8.79713 11.594 8.79693 11.4645V10.5548C8.79717 10.3336 8.88514 10.1215 9.04155 9.9651C9.19795 9.80868 9.41002 9.72069 9.63121 9.72044H9.82818V11.5237C9.82818 11.7775 9.83598 12.034 9.85061 12.2889C9.84965 12.2924 9.84836 12.2955 9.84752 12.2988ZM9.82818 7.79619V8.68944H9.63121C9.52439 8.6896 9.41778 8.69891 9.31256 8.71729V6.56152C9.31205 6.07443 9.43207 5.59478 9.66191 5.16532C9.89175 4.73587 10.2243 4.36995 10.6299 4.10019C10.7045 4.05043 10.7649 3.98205 10.805 3.9018L11.2262 3.0594C11.5594 2.391 12.1338 1.87392 12.8334 1.61255L13.4173 1.39341C14.5044 0.985763 15.6924 0.932189 16.8118 1.24035C17.9311 1.54851 18.9243 2.20263 19.6495 3.10922L20.6492 4.35871C20.7412 4.47356 20.8394 4.58329 20.9434 4.68742C21.1801 4.92282 21.3677 5.20282 21.4954 5.51123C21.6232 5.81963 21.6885 6.15031 21.6876 6.48412V8.71729C21.5823 8.69891 21.4757 8.6896 21.3689 8.68944H21.1719V7.79619C21.1719 7.70274 21.1465 7.61105 21.0985 7.5309L19.5516 4.95277C19.5058 4.87642 19.441 4.81323 19.3635 4.76936C19.286 4.72549 19.1985 4.70244 19.1094 4.70244H18.0782V3.15556C18.0782 3.01881 18.0239 2.88766 17.9272 2.79096C17.8305 2.69426 17.6993 2.63994 17.5626 2.63994C17.4258 2.63994 17.2947 2.69426 17.198 2.79096C17.1013 2.88766 17.0469 3.01881 17.0469 3.15556V4.70244H16.0157V2.63994C16.0157 2.50318 15.9614 2.37203 15.8647 2.27534C15.768 2.17864 15.6368 2.12431 15.5001 2.12431C15.3633 2.12431 15.2322 2.17864 15.1355 2.27534C15.0388 2.37203 14.9844 2.50318 14.9844 2.63994V4.70244H13.9532V3.15556C13.9532 3.01881 13.8989 2.88766 13.8022 2.79096C13.7055 2.69426 13.5743 2.63994 13.4376 2.63994C13.3008 2.63994 13.1697 2.69426 13.073 2.79096C12.9763 2.88766 12.9219 3.01881 12.9219 3.15556V4.70244H11.8907C11.8016 4.70244 11.7141 4.72549 11.6366 4.76936C11.5591 4.81323 11.4943 4.87642 11.4485 4.95277L9.90166 7.5309C9.85361 7.61105 9.82821 7.70274 9.82818 7.79619ZM10.8594 14.6177V13.2711L13.2069 14.4448C13.2785 14.4807 13.3575 14.4993 13.4376 14.4993C13.5176 14.4993 13.5966 14.4807 13.6682 14.4448L15.5235 13.5172L17.8867 14.4624C17.9605 14.4919 18.0401 14.504 18.1194 14.4976C18.1986 14.4913 18.2753 14.4667 18.3435 14.4258L20.1407 13.3475V14.6177C20.1432 15.3815 19.956 16.134 19.596 16.8076C19.2361 17.4812 18.7145 18.055 18.0782 18.4774V17.5931C18.0782 17.4563 18.0239 17.3252 17.9272 17.2285C17.8305 17.1318 17.6993 17.0774 17.5626 17.0774C17.4258 17.0774 17.2947 17.1318 17.198 17.2285C17.1013 17.3252 17.0469 17.4563 17.0469 17.5931V18.9923C16.7134 19.1105 16.3674 19.1901 16.0157 19.2297V18.1087C16.0157 17.9719 15.9614 17.8408 15.8647 17.7441C15.768 17.6474 15.6368 17.5931 15.5001 17.5931C15.3633 17.5931 15.2322 17.6474 15.1355 17.7441C15.0388 17.8408 14.9844 17.9719 14.9844 18.1087V19.2297C14.6328 19.1901 14.2868 19.1105 13.9532 18.9923V17.5931C13.9532 17.4563 13.8989 17.3252 13.8022 17.2285C13.7055 17.1318 13.5743 17.0774 13.4376 17.0774C13.3008 17.0774 13.1697 17.1318 13.073 17.2285C12.9763 17.3252 12.9219 17.4563 12.9219 17.5931V18.4774C12.2856 18.055 11.764 17.4812 11.4041 16.8076C11.0441 16.134 10.857 15.3815 10.8594 14.6177ZM12.4063 20.7909L14.5924 22.2483L12.1857 23.9675L11.4588 21.4227L12.4063 20.7909ZM8.79693 22.6906L10.5312 21.9307L11.3949 24.9535C11.4176 25.0329 11.459 25.1057 11.5157 25.1658C11.5724 25.2259 11.6427 25.2714 11.7206 25.2987C11.7986 25.3259 11.8819 25.334 11.9637 25.3223C12.0454 25.3106 12.1232 25.2795 12.1904 25.2315L13.4376 24.3406V26.3587H8.79693V22.6906ZM6.73443 23.4454L7.76568 22.9298V26.3587H6.73443V23.4454ZM6.64155 27.3899H24.3586L24.6679 28.9368H6.33218L6.64155 27.3899ZM1.81099 27.7953C1.88514 27.2556 2.08978 26.7422 2.40719 26.2994C2.72459 25.8566 3.14518 25.4979 3.6325 25.2544L5.70318 24.2188V26.8228L5.28043 28.9368H4.67193V27.2519C4.67193 27.1152 4.61761 26.984 4.52091 26.8873C4.42421 26.7906 4.29306 26.7363 4.15631 26.7363C4.01955 26.7363 3.8884 26.7906 3.7917 26.8873C3.69501 26.984 3.64068 27.1152 3.64068 27.2519V28.9368H1.65398L1.81099 27.7953Z" fill="#444444" fill-opacity="0.5"/>
<path d="M14.4688 16.0469H16.5312C16.668 16.0469 16.7992 15.9926 16.8959 15.8959C16.9926 15.7992 17.0469 15.668 17.0469 15.5312C17.0469 15.3945 16.9926 15.2633 16.8959 15.1666C16.7992 15.0699 16.668 15.0156 16.5312 15.0156H14.4688C14.332 15.0156 14.2008 15.0699 14.1041 15.1666C14.0074 15.2633 13.9531 15.3945 13.9531 15.5312C13.9531 15.668 14.0074 15.7992 14.1041 15.8959C14.2008 15.9926 14.332 16.0469 14.4688 16.0469Z" fill="#444444" fill-opacity="0.5"/>
</svg>
