<svg width="35" height="30" viewBox="0 0 35 30" fill="none" xmlns="http://www.w3.org/2000/svg">
<path d="M29.4707 6.77419H24.4637C24.4802 6.61448 24.4918 6.45382 24.4918 6.29032V2.41935C24.4918 1.61912 23.7471 0.967742 22.8322 0.967742H21.1725V0H19.5129C18.598 0 17.8533 0.651383 17.8533 1.45161C17.8533 2.25184 18.598 2.90323 19.5129 2.90323H21.1725V1.93548H22.8322C23.1374 1.93548 23.3854 2.15285 23.3854 2.41935V6.29032C23.3854 6.45382 23.3732 6.61495 23.3527 6.77419H11.2474C11.2269 6.61495 11.2147 6.45382 11.2147 6.29032V2.41935C11.2147 2.15285 11.4627 1.93548 11.7679 1.93548H13.4276V2.90323H15.0872C16.0021 2.90323 16.7468 2.25184 16.7468 1.45161C16.7468 0.651383 16.0021 0 15.0872 0H13.4276V0.967742H11.7679C10.853 0.967742 10.1083 1.61912 10.1083 2.41935V6.29032C10.1083 6.45382 10.1199 6.61448 10.1364 6.77419H5.12935C3.60423 6.77419 2.36328 7.8596 2.36328 9.19355V24.6774C2.36328 26.0114 3.60423 27.0968 5.12935 27.0968H9.55506V29.0323H7.3422V30H27.2579V29.0323H25.045V27.0968H29.4707C30.9959 27.0968 32.2368 26.0114 32.2368 24.6774V9.19355C32.2368 7.8596 30.9959 6.77419 29.4707 6.77419ZM20.0661 1.93548H19.5129C19.2077 1.93548 18.9597 1.71812 18.9597 1.45161C18.9597 1.18511 19.2077 0.967742 19.5129 0.967742H20.0661V1.93548ZM14.534 0.967742H15.0872C15.3924 0.967742 15.6404 1.18511 15.6404 1.45161C15.6404 1.71812 15.3924 1.93548 15.0872 1.93548H14.534V0.967742ZM23.095 7.74194C22.457 9.31357 20.819 10.4725 18.8508 10.6253C18.6156 10.0736 18.0121 9.67742 17.3 9.67742C16.588 9.67742 15.9845 10.0736 15.7493 10.6253C13.7811 10.472 12.1437 9.31357 11.5051 7.74194H23.095ZM17.3 11.6129C16.9948 11.6129 16.7468 11.3955 16.7468 11.129C16.7468 10.8625 16.9948 10.6452 17.3 10.6452C17.6053 10.6452 17.8533 10.8625 17.8533 11.129C17.8533 11.3955 17.6053 11.6129 17.3 11.6129ZM5.12935 7.74194H10.3438C11.0283 9.84824 13.1588 11.4232 15.735 11.5926C15.8981 12.0122 16.2706 12.343 16.7468 12.4916V14.5161C16.7468 14.7826 16.4989 15 16.1936 15H7.0656C5.6931 15 4.57614 15.977 4.57614 17.1774C4.57614 18.3779 5.6931 19.3548 7.0656 19.3548H20.0661V20.3226H22.658C23.2809 21.4649 24.6107 22.2581 26.1515 22.2581C28.2863 22.2581 30.024 20.7386 30.024 18.871C30.024 17.0033 28.2863 15.4839 26.1515 15.4839C24.6107 15.4839 23.2814 16.277 22.658 17.4194H20.0661V18.3871H7.0656C6.30277 18.3871 5.68256 17.8442 5.68256 17.1774C5.68256 16.5107 6.30277 15.9677 7.0656 15.9677H16.1936C17.1085 15.9677 17.8533 15.3164 17.8533 14.5161V12.4916C18.3295 12.343 18.702 12.0122 18.8651 11.5926C21.4413 11.4232 23.5712 9.84824 24.2563 7.74194H29.4707C30.3857 7.74194 31.1304 8.39332 31.1304 9.19355V23.2258H3.46971V9.19355C3.46971 8.39332 4.21444 7.74194 5.12935 7.74194ZM22.3233 19.3548H21.1725V18.3871H22.3233C22.2973 18.5459 22.279 18.7065 22.279 18.871C22.279 19.0354 22.2973 19.1961 22.3233 19.3548ZM23.3854 18.871C23.3854 17.537 24.6263 16.4516 26.1515 16.4516C27.6766 16.4516 28.9175 17.537 28.9175 18.871C28.9175 20.2049 27.6766 21.2903 26.1515 21.2903C24.6263 21.2903 23.3854 20.2049 23.3854 18.871ZM23.9386 29.0323H10.6615V27.0968H23.9386V29.0323ZM29.4707 26.129H5.12935C4.21444 26.129 3.46971 25.4776 3.46971 24.6774V24.1935H31.1304V24.6774C31.1304 25.4776 30.3857 26.129 29.4707 26.129Z" fill="#444444" fill-opacity="0.5"/>
<path d="M26.1518 20.3231C27.0667 20.3231 27.8115 19.6718 27.8115 18.8715C27.8115 18.0713 27.0667 17.4199 26.1518 17.4199C25.2369 17.4199 24.4922 18.0713 24.4922 18.8715C24.4922 19.6718 25.2369 20.3231 26.1518 20.3231ZM26.1518 18.3877C26.4571 18.3877 26.705 18.605 26.705 18.8715C26.705 19.138 26.4571 19.3554 26.1518 19.3554C25.8466 19.3554 25.5986 19.138 25.5986 18.8715C25.5986 18.605 25.8466 18.3877 26.1518 18.3877Z" fill="#444444" fill-opacity="0.5"/>
<path d="M7.89844 4.83789H9.00562V5.80563H7.89844V4.83789Z" fill="#444444" fill-opacity="0.5"/>
<path d="M5.68359 4.83789H6.79078V5.80563H5.68359V4.83789Z" fill="#444444" fill-opacity="0.5"/>
<path d="M3.47266 4.83789H4.57984V5.80563H3.47266V4.83789Z" fill="#444444" fill-opacity="0.5"/>
<path d="M25.6016 4.83789H26.7087V5.80563H25.6016V4.83789Z" fill="#444444" fill-opacity="0.5"/>
<path d="M27.8125 4.83789H28.9197V5.80563H27.8125V4.83789Z" fill="#444444" fill-opacity="0.5"/>
<path d="M30.0273 4.83789H31.1345V5.80563H30.0273V4.83789Z" fill="#444444" fill-opacity="0.5"/>
</svg>
