<svg width="32" height="30" viewBox="0 0 32 30" fill="none" xmlns="http://www.w3.org/2000/svg">
<path d="M22.295 0C18.8637 0.0046633 15.7538 1.96907 14.3476 5.02C12.4763 5.08298 10.6402 5.534 8.96181 6.343C4.7173 6.3125 2.14854 8.605 1.75973 12.5375C1.24321 17.7915 4.04331 24.126 0.733871 24.8645C0.510141 24.8787 0.321258 25.0318 0.266001 25.2436C0.210744 25.4554 0.301681 25.6778 0.491254 25.7945C1.19192 26.4385 2.11007 28.6095 9.03824 28.9515C9.23845 29.5735 9.82873 29.9977 10.4975 30H15.1139C15.7833 29.9975 16.3739 29.5727 16.5737 28.95C23.7065 28.6 24.5575 26.256 25.1874 25.7445C25.3437 25.614 25.4048 25.405 25.3427 25.2138C25.2805 25.0225 25.1071 24.886 24.9022 24.867C22.5155 24.348 23.2752 21.0915 23.7404 16.871C28.2057 16.1347 31.3482 12.1872 30.9713 7.78799C30.5944 3.38877 26.8237 0.00410202 22.295 0V0ZM1.68126 25.6C5.07994 24.025 2.28703 17.663 2.78047 12.631C3.12567 9.1445 5.37796 7.263 9.07619 7.343C9.1656 7.34473 9.25395 7.32389 9.33266 7.2825C10.7685 6.56556 12.3394 6.14207 13.949 6.038C13.3873 7.83176 13.4575 9.75717 14.1486 11.5075C13.7593 11.5025 13.3228 11.5 12.8057 11.5C10.3493 11.5 9.42755 10.132 9.09722 9.316C9.03806 9.17021 8.91217 9.05992 8.75717 9.01807C8.60218 8.97622 8.43601 9.00766 8.30833 9.103C6.84289 10.1965 6.12273 12.053 6.10273 14.761C5.8019 14.6683 5.47616 14.6909 5.19176 14.824C4.61933 15.1055 4.34235 15.8105 4.34235 16.98C4.34235 19.5 5.86575 20.2365 6.6885 20.45C7.09488 21.9367 7.87517 23.3012 8.95873 24.42V27.946C8.38886 27.915 7.83028 27.871 7.31119 27.804C3.40112 27.3145 2.28754 26.29 1.68126 25.6ZM13.2125 17.35C13.4128 17.5452 13.7375 17.5452 13.9378 17.35L16.5117 14.8405C17.1017 15.3525 17.7603 15.7839 18.4695 16.123C18.4136 18.0855 18.213 19.873 17.3729 21.6095C16.2993 23.8435 14.762 24.9765 12.8078 24.9765C10.8381 24.9765 9.29624 23.8435 8.22524 21.61C7.30658 19.7 7.12244 17.6185 7.12244 14.885C7.12244 12.7755 7.56202 11.272 8.46273 10.315C9.03619 11.25 10.2754 12.5 12.8057 12.5C13.5464 12.5 14.124 12.5045 14.6164 12.5225C14.9408 13.1031 15.3334 13.6449 15.7864 14.137L13.2125 16.6465C13.0122 16.8417 13.0122 17.1583 13.2125 17.3535V17.35ZM20.2396 16.75C20.2771 17.739 20.076 18.7615 19.2004 19.269C19.362 18.3661 19.4571 17.4531 19.4851 16.537C19.7306 16.6197 19.9815 16.6907 20.2376 16.75H20.2396ZM6.10837 15.8435C6.11601 16.9919 6.21893 18.1378 6.41613 19.27C5.87652 18.9595 5.36821 18.314 5.36821 16.98C5.36821 15.8695 5.64109 15.7225 5.65289 15.717C5.70726 15.689 5.86883 15.712 6.10632 15.8445L6.10837 15.8435ZM15.1139 29H10.4975C10.2142 29 9.9846 28.7761 9.9846 28.5V25.2125C11.7181 26.2413 13.8964 26.2382 15.6268 25.2045V28.5C15.6268 28.7761 15.3972 29 15.1139 29ZM23.9394 25.603C23.3331 26.291 22.2196 27.3145 18.3095 27.803C17.7765 27.8715 17.2241 27.9145 16.6527 27.945V24.404C17.7304 23.2919 18.504 21.9336 18.9024 20.454C20.3027 20.099 21.2758 18.965 21.2681 16.9335C21.7407 16.9997 22.2195 17.0146 22.6956 16.978C22.295 20.474 21.4271 24.4385 23.9394 25.603ZM22.295 16C18.0457 16 14.601 12.6421 14.601 8.5C14.601 4.35786 18.0457 1 22.295 1C26.5442 1 29.9889 4.35786 29.9889 8.5C29.9841 12.6402 26.5422 15.9953 22.295 16Z" fill="#444444" fill-opacity="0.5"/>
<path d="M28.7388 6.85258C27.8588 3.59231 24.566 1.53046 21.1584 2.10589C17.7507 2.68132 15.3613 5.70269 15.6576 9.06151C15.9539 12.4203 18.8374 14.9997 22.2958 14.9996C24.3621 15.0003 26.3117 14.0662 27.5732 12.471C28.8348 10.8758 29.2653 8.80023 28.7388 6.85258ZM16.7516 7.49957H17.7733C18.2283 7.50371 18.6606 7.3066 18.949 6.96358C19.7996 6.03312 21.0173 5.50098 22.2958 5.50098C23.5744 5.50098 24.7921 6.03312 25.6427 6.96358C25.9311 7.3066 26.3634 7.50371 26.8184 7.49957H27.8401C27.904 7.82929 27.9368 8.16402 27.9381 8.49957H26.9317C26.1398 8.52225 25.3793 8.19677 24.8605 7.61307C24.2053 6.90451 23.2726 6.5 22.2941 6.5C21.3155 6.5 20.3828 6.90451 19.7276 7.61307C19.2094 8.19557 18.4506 8.52091 17.66 8.49957H16.6536C16.6549 8.16402 16.6877 7.82929 16.7516 7.49957ZM22.2958 2.99958C24.6177 3.00324 26.7006 4.39175 27.5462 6.49958H26.8184C26.6735 6.50212 26.5349 6.44164 26.4403 6.33458C25.3944 5.16998 23.8837 4.50202 22.2958 4.50202C20.708 4.50202 19.1973 5.16998 18.1514 6.33458C17.9785 6.54358 17.7785 6.50008 17.0455 6.50008C17.8909 4.39205 19.9739 3.00332 22.2958 2.99958ZM22.2958 13.9996C19.5777 13.9953 17.2482 12.1046 16.7516 9.49957H17.66C18.7649 9.52763 19.8226 9.06257 20.5324 8.23657C20.9923 7.76608 21.6299 7.49981 22.2966 7.49981C22.9633 7.49981 23.6009 7.76608 24.0609 8.23657C24.7701 9.06239 25.8272 9.52746 26.9317 9.49957H27.8401C27.3435 12.1046 25.014 13.9953 22.2958 13.9996Z" fill="#444444" fill-opacity="0.5"/>
<path d="M15.6266 19C15.91 19 16.1398 18.7761 16.1398 18.5C16.1398 18.2239 15.91 18 15.6266 18C15.3431 18 15.1133 18.2239 15.1133 18.5C15.1133 18.7761 15.3431 19 15.6266 19Z" fill="#444444" fill-opacity="0.5"/>
<path d="M14.5992 20.5C14.8827 20.5 15.1125 20.2761 15.1125 20C15.1125 19.7239 14.8827 19.5 14.5992 19.5C14.3157 19.5 14.0859 19.7239 14.0859 20C14.0859 20.2761 14.3157 20.5 14.5992 20.5Z" fill="#444444" fill-opacity="0.5"/>
<path d="M16.6539 20.5C16.9374 20.5 17.1672 20.2761 17.1672 20C17.1672 19.7239 16.9374 19.5 16.6539 19.5C16.3704 19.5 16.1406 19.7239 16.1406 20C16.1406 20.2761 16.3704 20.5 16.6539 20.5Z" fill="#444444" fill-opacity="0.5"/>
<path d="M9.98594 19C10.2694 19 10.4992 18.7761 10.4992 18.5C10.4992 18.2239 10.2694 18 9.98594 18C9.70246 18 9.47266 18.2239 9.47266 18.5C9.47266 18.7761 9.70246 19 9.98594 19Z" fill="#444444" fill-opacity="0.5"/>
<path d="M8.9625 20.5C9.24598 20.5 9.47579 20.2761 9.47579 20C9.47579 19.7239 9.24598 19.5 8.9625 19.5C8.67902 19.5 8.44922 19.7239 8.44922 20C8.44922 20.2761 8.67902 20.5 8.9625 20.5Z" fill="#444444" fill-opacity="0.5"/>
<path d="M11.0133 20.5C11.2968 20.5 11.5266 20.2761 11.5266 20C11.5266 19.7239 11.2968 19.5 11.0133 19.5C10.7298 19.5 10.5 19.7239 10.5 20C10.5 20.2761 10.7298 20.5 11.0133 20.5Z" fill="#444444" fill-opacity="0.5"/>
<path d="M22.2939 8.5C21.271 8.53559 20.4142 9.26638 20.2422 10.25C20.2422 11.9135 24.3457 11.9195 24.3457 10.25C24.1737 9.26638 23.3169 8.53559 22.2939 8.5ZM22.2939 10.5C21.9318 10.5278 21.5711 10.4314 21.2742 10.2275C21.4558 9.82441 21.8448 9.54687 22.2939 9.5C22.7394 9.5508 23.1284 9.81725 23.3285 10.2085C23.0351 10.432 22.6644 10.5364 22.2939 10.5Z" fill="#444444" fill-opacity="0.5"/>
</svg>
