<svg width="33" height="29" viewBox="0 0 33 29" fill="none" xmlns="http://www.w3.org/2000/svg">
<path d="M12.2795 4.52148C11.6455 4.52153 11.0258 4.686 10.4987 4.9941C9.97154 5.30221 9.56073 5.7401 9.31815 6.25242C9.07557 6.76473 9.01213 7.32846 9.13584 7.87231C9.25956 8.41616 9.56487 8.91571 10.0132 9.30779C10.4615 9.69988 11.0327 9.96688 11.6545 10.075C12.2763 10.1832 12.9208 10.1277 13.5065 9.91546C14.0922 9.70325 14.5928 9.34389 14.945 8.88283C15.2972 8.42176 15.4852 7.8797 15.4852 7.32519C15.4842 6.58184 15.1461 5.86919 14.5451 5.34358C13.9441 4.81798 13.1293 4.52232 12.2795 4.52148ZM12.2795 9.33593C11.8248 9.33589 11.3804 9.21792 11.0023 8.99695C10.6243 8.77598 10.3297 8.46193 10.1557 8.09451C9.98179 7.72709 9.9363 7.32281 10.025 6.93278C10.1138 6.54275 10.3327 6.18449 10.6542 5.9033C10.9758 5.62212 11.3854 5.43064 11.8313 5.35307C12.2773 5.2755 12.7395 5.31534 13.1595 5.46753C13.5796 5.61973 13.9386 5.87745 14.1912 6.20811C14.4438 6.53877 14.5786 6.92751 14.5786 7.32519C14.5777 7.85821 14.3352 8.36916 13.9042 8.74598C13.4732 9.12279 12.8889 9.33471 12.2795 9.33525V9.33593Z" fill="#444444" fill-opacity="0.5"/>
<path d="M12.2823 2.70794C11.0129 2.70749 9.78592 3.10731 8.82632 3.83408C7.86672 4.56084 7.23884 5.56583 7.05784 6.66474C6.87683 7.76364 7.15484 8.88278 7.84087 9.81691C8.5269 10.751 9.57496 11.4375 10.7928 11.7505V12.6568H8.48565C8.36543 12.6568 8.25013 12.6985 8.16512 12.7729C8.08011 12.8472 8.03235 12.9481 8.03235 13.0532V14.8657C8.03231 14.9178 8.04402 14.9694 8.06678 15.0175C8.08955 15.0656 8.12294 15.1093 8.16504 15.1462C8.20714 15.183 8.25713 15.2122 8.31214 15.2321C8.36715 15.252 8.42611 15.2622 8.48565 15.2622H10.7928V17.2804C10.7928 17.3856 10.8406 17.4864 10.9256 17.5608C11.0106 17.6352 11.1259 17.6769 11.2461 17.6769H13.3184C13.4386 17.6769 13.5539 17.6352 13.6389 17.5608C13.7239 17.4864 13.7717 17.3856 13.7717 17.2804V15.2613H16.0792C16.1387 15.2613 16.1976 15.2511 16.2527 15.2312C16.3077 15.2113 16.3577 15.1821 16.3998 15.1453C16.4419 15.1084 16.4753 15.0647 16.498 15.0166C16.5208 14.9685 16.5325 14.9169 16.5325 14.8648V13.0523C16.5325 12.9472 16.4847 12.8463 16.3997 12.772C16.3147 12.6976 16.1994 12.6558 16.0792 12.6558H13.7717V11.7496C14.9896 11.4366 16.0376 10.7501 16.7237 9.816C17.4097 8.88187 17.6877 7.76273 17.5067 6.66383C17.3257 5.56493 16.6978 4.55994 15.7382 3.83317C14.7786 3.1064 13.5516 2.70658 12.2823 2.70703V2.70794ZM13.221 11.0561C13.1201 11.0755 13.0298 11.1245 12.9651 11.1949C12.9004 11.2653 12.8651 11.3529 12.8651 11.4433V13.0519C12.8651 13.104 12.8768 13.1555 12.8995 13.2036C12.9223 13.2518 12.9557 13.2955 12.9978 13.3323C13.0399 13.3691 13.0899 13.3983 13.1449 13.4182C13.1999 13.4382 13.2589 13.4484 13.3184 13.4484H15.6258V14.4679H13.3184C13.1982 14.4679 13.0829 14.5097 12.9979 14.584C12.9128 14.6584 12.8651 14.7592 12.8651 14.8644V16.8826H11.6995V14.8648C11.6995 14.7597 11.6517 14.6588 11.5667 14.5845C11.4817 14.5101 11.3664 14.4683 11.2461 14.4683H8.93896V13.4488H11.2461C11.3057 13.4488 11.3646 13.4386 11.4197 13.4187C11.4747 13.3988 11.5247 13.3696 11.5668 13.3328C11.6089 13.2959 11.6422 13.2522 11.665 13.2041C11.6878 13.156 11.6995 13.1044 11.6995 13.0523V11.4437C11.6995 11.3533 11.6643 11.2656 11.5995 11.1951C11.5348 11.1246 11.4445 11.0756 11.3435 11.0561C10.2911 10.8537 9.36128 10.3184 8.73249 9.55302C8.10371 8.78763 7.82031 7.84608 7.93669 6.9091C8.05308 5.97213 8.56105 5.10577 9.36309 4.47635C10.1651 3.84693 11.2047 3.49881 12.2823 3.49881C13.3598 3.49881 14.3994 3.84693 15.2015 4.47635C16.0035 5.10577 16.5115 5.97213 16.6279 6.9091C16.7442 7.84608 16.4608 8.78763 15.8321 9.55302C15.2033 10.3184 14.2734 10.8537 13.221 11.0561Z" fill="#444444" fill-opacity="0.5"/>
<path d="M29.5866 15.8541H27.2321V13.7949C27.2321 13.7428 27.2204 13.6913 27.1976 13.6432C27.1749 13.595 27.1415 13.5513 27.0994 13.5145C27.0573 13.4777 27.0073 13.4485 26.9523 13.4286C26.8973 13.4086 26.8383 13.3984 26.7788 13.3984H24.7065C24.5863 13.3984 24.471 13.4402 24.386 13.5146C24.301 13.5889 24.2532 13.6898 24.2532 13.7949V15.8541H21.8986C21.7784 15.8542 21.6632 15.896 21.5782 15.9703C21.4932 16.0447 21.4454 16.1455 21.4453 16.2506V18.0631C21.4453 18.1683 21.4931 18.2691 21.5781 18.3435C21.6631 18.4178 21.7784 18.4596 21.8986 18.4596H24.2532V20.5191C24.2532 20.6242 24.301 20.7251 24.386 20.7994C24.471 20.8738 24.5863 20.9155 24.7065 20.9155H26.7788C26.8383 20.9156 26.8973 20.9053 26.9523 20.8854C27.0073 20.8655 27.0573 20.8363 27.0994 20.7995C27.1415 20.7627 27.1749 20.7189 27.1976 20.6708C27.2204 20.6227 27.2321 20.5711 27.2321 20.5191V18.4596H29.5866C29.6462 18.4596 29.7051 18.4494 29.7602 18.4295C29.8152 18.4096 29.8652 18.3804 29.9073 18.3435C29.9494 18.3067 29.9827 18.263 30.0055 18.2149C30.0283 18.1668 30.04 18.1152 30.04 18.0631V16.2506C30.04 16.1455 29.9922 16.0446 29.9072 15.9703C29.8222 15.8959 29.7069 15.8541 29.5866 15.8541ZM29.1333 17.6666H26.7785C26.6583 17.6667 26.543 17.7085 26.458 17.7828C26.373 17.8572 26.3253 17.958 26.3252 18.0631V20.1226H25.1596V18.0631C25.1596 17.958 25.1118 17.8571 25.0268 17.7828C24.9418 17.7084 24.8265 17.6666 24.7063 17.6666H22.3517V16.6471H24.7063C24.7658 16.6471 24.8248 16.6369 24.8798 16.617C24.9348 16.5971 24.9848 16.5679 25.0269 16.531C25.069 16.4942 25.1024 16.4505 25.1251 16.4024C25.1479 16.3543 25.1596 16.3027 25.1596 16.2506V14.1914H26.3252V16.2506C26.3252 16.3558 26.373 16.4566 26.458 16.531C26.543 16.6053 26.6583 16.6471 26.7785 16.6471H29.1331L29.1333 17.6666Z" fill="#444444" fill-opacity="0.5"/>
<path d="M25.7449 11.1321C24.3911 11.1309 23.0673 11.4807 21.9408 12.1374C20.3591 9.39889 20.0527 6.23073 21.086 3.29875L22.0773 0.51475C22.0984 0.455378 22.1033 0.392488 22.0916 0.331155C22.0798 0.269822 22.0518 0.211763 22.0096 0.161666C21.9675 0.111568 21.9125 0.070834 21.8491 0.0427516C21.7856 0.0146691 21.7155 2.46377e-05 21.6444 0L2.91857 0C2.84753 4.66858e-05 2.7775 0.0146885 2.71411 0.0427457C2.65073 0.0708028 2.59576 0.111491 2.55365 0.161531C2.51153 0.211571 2.48345 0.269565 2.47165 0.330839C2.45985 0.392112 2.46468 0.454953 2.48573 0.514297L3.47653 3.29807C4.03263 4.86672 4.20928 6.51946 3.99522 8.15108C3.78116 9.7827 3.18108 11.3575 2.23318 12.7752C0.549021 15.2939 -0.0861794 18.245 0.435506 21.127L1.80837 28.6649C1.82516 28.7583 1.87953 28.8434 1.96169 28.9048C2.04385 28.9663 2.1484 29 2.25649 29H22.3055C22.4133 29 22.5177 28.9663 22.5997 28.9051C22.6817 28.8438 22.7361 28.759 22.7531 28.6658L23.7967 22.9376C24.7449 23.1839 25.7427 23.2486 26.7221 23.1275C27.7015 23.0064 28.6396 22.7023 29.4726 22.2358C30.3057 21.7694 31.0141 21.1515 31.5498 20.4242C32.0855 19.6969 32.4359 18.8773 32.5772 18.021C32.7185 17.1647 32.6473 16.2919 32.3685 15.4618C32.0898 14.6317 31.6099 13.8639 30.9616 13.2104C30.3133 12.557 29.5118 12.0333 28.6115 11.675C27.7112 11.3166 26.7332 11.132 25.7441 11.1337L25.7449 11.1321ZM21.9198 28.207H12.7348V21.4102C15.0863 21.112 17.1259 18.6234 17.216 18.5102C17.2844 18.4243 17.3112 18.3183 17.2906 18.2153C17.2701 18.1122 17.2037 18.0204 17.1061 17.96C17.0085 17.8995 16.8875 17.8752 16.7696 17.8924C16.6516 17.9096 16.5461 17.9669 16.4762 18.0518C16.4553 18.0779 14.348 20.646 12.2799 20.646C10.2118 20.646 8.10696 18.0797 8.08598 18.0536C8.01649 17.9678 7.91086 17.9096 7.79233 17.8919C7.6738 17.8742 7.55208 17.8984 7.45394 17.9592C7.35581 18.0199 7.28929 18.1123 7.26904 18.216C7.24878 18.3197 7.27644 18.4261 7.34593 18.512C7.43711 18.6252 9.47671 21.1129 11.8272 21.412V28.207H2.64323L1.33123 21.0023C0.842037 18.3018 1.43697 15.5365 3.01493 13.1762C4.02654 11.6633 4.66691 9.98277 4.89529 8.24156C5.12366 6.50035 4.93504 4.73663 4.34143 3.06267L3.53455 0.792969H21.0285L20.2211 3.06313C19.1016 6.2411 19.4576 9.67678 21.2118 12.627C20.3418 13.2914 19.6769 14.1368 19.2785 15.085C18.8801 16.0333 18.7611 17.054 18.9323 18.0531C19.1035 19.0522 19.5595 19.9976 20.2582 20.802C20.9569 21.6065 21.8759 22.2441 22.9305 22.6562L21.9198 28.207ZM25.7449 22.3909C24.5614 22.3909 23.4046 22.084 22.4206 21.5089C21.4366 20.9339 20.6696 20.1165 20.2167 19.1602C19.7639 18.2038 19.6454 17.1515 19.8762 16.1363C20.1071 15.1211 20.677 14.1886 21.5138 13.4566C22.3507 12.7247 23.4168 12.2263 24.5775 12.0243C25.7382 11.8224 26.9414 11.926 28.0347 12.3221C29.1281 12.7183 30.0626 13.3891 30.7201 14.2497C31.3776 15.1104 31.7285 16.1222 31.7285 17.1574C31.7269 18.545 31.096 19.8753 29.9742 20.8565C28.8524 21.8377 27.3314 22.3896 25.7449 22.3909Z" fill="#444444" fill-opacity="0.5"/>
</svg>
