<svg width="23" height="20" viewBox="0 0 23 20" fill="none" xmlns="http://www.w3.org/2000/svg">
<path d="M21.9273 1.211C21.7139 0.915171 21.3601 0.805465 21.0455 0.937112L1.06414 9.15541C0.664955 9.32053 0.384759 9.72096 0.332741 10.2004C0.281222 10.6777 0.466026 11.1407 0.812698 11.4072L3.66884 13.6263C3.94555 13.8414 4.30136 13.8644 4.59768 13.6864L10.7932 9.96799L5.96459 14.0716C5.73791 14.2643 5.60246 14.5717 5.60246 14.8936V18.6947C5.60246 19.0868 5.79142 19.446 6.09555 19.6325C6.40017 19.819 6.76812 19.8005 7.05746 19.5833L9.2274 17.9451L11.3613 19.6011C11.5482 19.7469 11.7709 19.8237 11.9956 19.8237C12.0716 19.8237 12.1479 19.8148 12.223 19.7971C12.5226 19.7259 12.7877 19.5152 12.9504 19.219L21.9906 2.25283C22.1666 1.92617 22.1414 1.50815 21.9273 1.211ZM11.9479 18.2973L9.7381 16.5823C9.58438 16.4628 9.40722 16.403 9.23023 16.403C9.05706 16.403 8.88372 16.4603 8.73199 16.5749L6.87947 17.9735V15.1081L15.4058 7.86201C15.7866 7.53838 15.8825 6.94937 15.6287 6.49201C15.3748 6.03465 14.8664 5.88012 14.4461 6.13244L4.20214 12.2807L1.78641 10.4038L20.1865 2.83597L11.9479 18.2973Z" fill="#EDCFB8"/>
</svg>
