<svg width="24" height="26" viewBox="0 0 24 26" fill="none" xmlns="http://www.w3.org/2000/svg">
<path d="M14.231 0.830322H9.54186C4.63051 0.830322 0.634766 4.82513 0.634766 9.73554V13.9596C0.634766 17.6164 2.88182 20.9028 6.26059 22.2413V24.9797C6.26059 25.1653 6.36983 25.3331 6.53954 25.4082C6.60049 25.4353 6.66518 25.4485 6.72941 25.4485C6.84334 25.4485 6.95632 25.4068 7.04399 25.3271L9.76267 22.8648H14.231C19.1423 22.8648 23.1381 18.87 23.1381 13.9596V9.73554C23.1381 4.82513 19.1423 0.830322 14.231 0.830322ZM22.2004 13.9596C22.2004 18.3529 18.6257 21.9272 14.231 21.9272H9.58171C9.46544 21.9272 9.35339 21.9703 9.26713 22.0486L7.19823 23.9225V21.9164C7.19823 21.7176 7.07306 21.5404 6.88553 21.4748C3.70787 20.351 1.5724 17.3309 1.5724 13.9596V9.73554C1.5724 5.34224 5.14762 1.76796 9.54186 1.76796H14.231C18.6257 1.76796 22.2004 5.34224 22.2004 9.73554V13.9596Z" fill="white"/>
<path d="M18.0805 15.1262L15.1991 13.2546C14.8841 13.0497 14.509 12.9804 14.1419 13.0563C13.7744 13.1337 13.4584 13.3507 13.2535 13.6672L13.118 13.8753C11.871 13.4632 10.4959 12.9368 9.67269 10.5538L10.0135 10.2575C10.5986 9.74879 10.66 8.85898 10.1514 8.27295L7.89728 5.67991C7.72757 5.48442 7.43127 5.46426 7.23577 5.6335L5.82041 6.86368C4.57898 7.9429 5.15891 9.53923 5.34972 10.0638C5.35815 10.0873 5.36847 10.1098 5.38066 10.1318C5.42988 10.22 6.60521 12.3175 8.50346 14.2509C10.4092 16.1922 13.8499 17.985 13.9554 18.037C14.3482 18.2921 14.7903 18.4144 15.2277 18.4144C15.9957 18.4144 16.7486 18.038 17.1977 17.3479L18.2188 15.7755C18.3594 15.5575 18.2976 15.2673 18.0805 15.1262ZM16.411 16.8369C15.9886 17.4876 15.1157 17.6723 14.4265 17.2279C14.3923 17.2101 10.9741 15.4299 9.17246 13.5945C7.48847 11.8791 6.37033 9.97336 6.21797 9.70754C5.84666 8.66629 5.9123 8.02635 6.4355 7.5716L7.49737 6.64896L9.44391 8.88804C9.6169 9.08682 9.59674 9.37749 9.3989 9.54955L8.82366 10.0493C8.68349 10.1712 8.62817 10.3639 8.68302 10.5411C9.66379 13.7281 11.5709 14.354 12.9633 14.8111L13.1663 14.8781C13.3693 14.9466 13.5915 14.8683 13.7078 14.6892L14.0402 14.1773C14.1087 14.0713 14.2137 13.9996 14.3356 13.9738C14.4579 13.9475 14.5826 13.9719 14.6886 14.0408L17.1771 15.6569L16.411 16.8369Z" fill="white"/>
<path d="M12.9546 8.44755C12.7052 8.37582 12.4459 8.52068 12.3751 8.7701C12.3043 9.01904 12.4487 9.2783 12.6977 9.34909C13.3962 9.54787 13.9527 10.1053 14.1496 10.8043C14.2077 11.0106 14.3957 11.1461 14.6006 11.1461C14.6428 11.1461 14.6855 11.1404 14.7281 11.1287C14.9771 11.0584 15.1224 10.7996 15.0521 10.5502C14.7675 9.54037 13.9635 8.73447 12.9546 8.44755Z" fill="white"/>
<path d="M16.525 11.2471C16.5672 11.2471 16.6099 11.2415 16.6525 11.2297C16.9019 11.1594 17.0468 10.9002 16.9765 10.6512C16.4233 8.69014 14.8626 7.12616 12.9029 6.56827C12.654 6.49654 12.3947 6.64234 12.3239 6.89129C12.2531 7.14023 12.3975 7.39949 12.6465 7.47028C14.2953 7.9391 15.6085 9.25601 16.074 10.9058C16.1326 11.1121 16.3201 11.2471 16.525 11.2471Z" fill="white"/>
<path d="M12.7008 4.38504C12.4513 4.31331 12.1921 4.45818 12.1213 4.70806C12.0505 4.957 12.1949 5.21626 12.4438 5.28705C15.2375 6.0817 17.463 8.31234 18.2516 11.1079C18.3097 11.3142 18.4977 11.4497 18.7026 11.4497C18.7448 11.4497 18.7874 11.4441 18.8301 11.4323C19.079 11.362 19.2244 11.1028 19.154 10.8538C18.2778 7.74694 15.8053 5.26877 12.7008 4.38504Z" fill="white"/>
</svg>
