<svg width="31" height="19" viewBox="0 0 31 19" fill="none" xmlns="http://www.w3.org/2000/svg">
<path d="M29.0446 14.2339C28.4049 13.4586 27.6822 12.7664 26.9832 12.0969C26.7376 11.8616 26.4835 11.6183 26.2389 11.3767C26.2389 11.3768 26.2388 11.3767 26.2389 11.3767C25.9097 11.0521 25.7485 10.8215 25.7316 10.6513C25.7151 10.484 25.8281 10.2358 26.0881 9.8689C26.4769 9.31708 26.8913 8.76433 27.2923 8.22982C27.6486 7.75468 28.017 7.26332 28.3701 6.76918L28.4494 6.65824C29.1384 5.69389 29.8507 4.69672 30.2324 3.48155C30.3414 3.13315 30.4546 2.61758 30.1816 2.16497C29.9084 1.71224 29.402 1.57806 29.0451 1.51661C28.8708 1.4864 28.7053 1.4839 28.5514 1.4839L24.0824 1.4799C23.3098 1.46688 22.7738 1.83724 22.4816 2.58098C22.2479 3.17497 21.9718 3.86335 21.6519 4.51636C21.0399 5.77701 20.2622 7.22899 19.1351 8.43876L19.085 8.49266C19.0083 8.57549 18.8829 8.71095 18.8185 8.74203C18.6964 8.66442 18.5555 8.22059 18.5619 7.98807C18.5621 7.98232 18.5622 7.97662 18.5622 7.97093L18.5582 2.74879C18.5582 2.72225 18.5564 2.6957 18.5529 2.66939C18.4526 1.92437 18.2572 1.1775 17.0912 0.944804C17.0539 0.937311 17.0158 0.933594 16.9778 0.933594H12.3291C11.4545 0.933594 10.9919 1.33863 10.621 1.77776C10.5137 1.90579 10.2284 2.24571 10.3738 2.66126C10.5208 3.08174 10.9589 3.16568 11.1027 3.19321C11.6093 3.29045 11.8713 3.58001 11.9524 4.13357C12.1127 5.20916 12.1324 6.35979 12.0143 7.75288C11.9814 8.12689 11.9202 8.41117 11.8214 8.64758C11.7941 8.71304 11.7701 8.75359 11.7533 8.77746C11.7265 8.76654 11.6849 8.74563 11.6272 8.70572C11.2712 8.45938 11.0029 8.07642 10.7435 7.70617C9.70719 6.22654 8.83552 4.59234 8.07832 2.70947C7.76649 1.93791 7.18028 1.50696 6.42877 1.49581C4.99697 1.47171 3.67275 1.47229 2.38178 1.49767C1.77289 1.50836 1.3459 1.70219 1.11247 2.07389C0.878759 2.44628 0.887317 2.92108 1.13797 3.48533C2.92979 7.51478 4.55677 10.4461 6.41315 12.9899C7.72025 14.7808 9.03603 16.024 10.5539 16.9022C12.1487 17.8249 13.9473 18.2771 16.0339 18.2771C16.2712 18.2771 16.5126 18.2712 16.7572 18.2594C18.0446 18.2001 18.5684 17.6823 18.6255 16.4143C18.6576 15.7442 18.7313 15.2013 18.9872 14.7296C19.0588 14.5976 19.1395 14.5091 19.2032 14.4929C19.2708 14.4758 19.3908 14.5177 19.5242 14.6053C19.7682 14.7655 19.9782 14.9828 20.1509 15.1735C20.326 15.3673 20.5029 15.5675 20.6741 15.7611C21.0385 16.1734 21.4152 16.5997 21.8099 17.0063C22.7027 17.9266 23.7318 18.3486 24.8701 18.2602L28.9599 18.2622C28.9598 18.2622 28.96 18.2622 28.9599 18.2622C28.9729 18.2622 28.9861 18.2617 28.9991 18.2609C29.4708 18.2291 29.8787 17.965 30.1182 17.5361C30.4066 17.0196 30.4022 16.3653 30.1063 15.7853C29.7975 15.1824 29.3969 14.6634 29.0446 14.2339ZM29.098 16.9535C29.0416 17.0545 28.9721 17.073 28.9362 17.0774L24.8472 17.0754C24.8474 17.0754 24.8471 17.0754 24.8472 17.0754C24.8311 17.0754 24.8145 17.0761 24.7985 17.0775C23.9929 17.1453 23.3082 16.859 22.6461 16.1764C22.2705 15.7895 21.903 15.3737 21.5476 14.9717C21.3745 14.7758 21.1954 14.5731 21.0155 14.374C20.7925 14.1276 20.5167 13.8444 20.1624 13.6117C19.6319 13.2635 19.1922 13.274 18.9169 13.3442C18.6445 13.4136 18.2573 13.6116 17.96 14.1602C17.575 14.87 17.49 15.6357 17.4555 16.359C17.4355 16.8014 17.3615 16.9183 17.3306 16.9479C17.2901 16.9869 17.1548 17.0553 16.7032 17.0761C14.5335 17.1793 12.7126 16.7864 11.1358 15.874C9.76405 15.0803 8.56292 13.9402 7.35587 12.2865C5.5509 9.8132 3.96275 6.94908 2.2066 2.99978C2.14296 2.85672 2.12331 2.76744 2.11763 2.71963C2.16243 2.70476 2.24996 2.68519 2.40344 2.68234C3.68131 2.65731 4.99169 2.65661 6.41056 2.68054C6.60482 2.68345 6.82601 2.7424 6.9935 3.15685C7.78464 5.12418 8.69853 6.83627 9.78755 8.39113C10.0767 8.80383 10.4366 9.31755 10.9655 9.68355C11.45 10.0191 11.8432 10.003 12.0877 9.93053C12.3324 9.85798 12.672 9.65642 12.9007 9.10879C13.0483 8.7558 13.1375 8.35831 13.1816 7.85609C13.3078 6.366 13.2854 5.12714 13.1113 3.95862C12.9885 3.12142 12.5611 2.51662 11.8877 2.20778C12.0073 2.14481 12.1421 2.11856 12.3292 2.11856H16.9171C17.1753 2.17711 17.2264 2.24588 17.2439 2.26941C17.3182 2.36937 17.3607 2.60584 17.3867 2.79062L17.3906 7.9646C17.3803 8.4606 17.6186 9.56064 18.4302 9.86228C18.4369 9.86478 18.4436 9.8671 18.4503 9.86931C19.1892 10.1135 19.6779 9.58602 19.9403 9.30262L19.9871 9.25232C21.2217 7.92708 22.0532 6.37861 22.7027 5.04059C23.0412 4.34965 23.328 3.63496 23.5704 3.01889C23.6917 2.70993 23.8021 2.65905 24.0655 2.66468C24.0692 2.6648 24.0727 2.6648 24.0764 2.6648L28.5511 2.66881C28.6551 2.66881 28.7637 2.67003 28.848 2.68461C29.0612 2.72132 29.149 2.76604 29.178 2.78457C29.181 2.8189 29.1803 2.91765 29.1158 3.12374C28.7913 4.15704 28.164 5.03496 27.5 5.96445L27.4206 6.07557C27.0756 6.55839 26.7113 7.04416 26.359 7.51402C25.9529 8.05545 25.5332 8.61523 25.1352 9.18017C24.2843 10.3808 24.3591 11.1775 25.4209 12.2249C25.6719 12.4726 25.9291 12.719 26.1779 12.9573C26.8833 13.633 27.5496 14.2712 28.1443 14.9918C28.4556 15.3714 28.8085 15.8272 29.0657 16.3295C29.1999 16.5925 29.167 16.83 29.098 16.9535Z" fill="white"/>
</svg>
