<svg viewBox="0 0 66 66" xmlns="http://www.w3.org/2000/svg" fill="none">
  <g color="#000" font-weight="400" font-family="sans-serif">
    <path d="M64.965 32.643c0 17.751-14.39 32.142-32.143 32.142C15.07 64.785.68 50.395.68 32.643.68 14.89 15.07.5 32.822.5c17.752 0 32.143 14.39 32.143 32.143" style="line-height:normal;font-variant-ligatures:normal;font-variant-position:normal;font-variant-caps:normal;font-variant-numeric:normal;font-variant-alternates:normal;font-variant-east-asian:normal;font-feature-settings:normal;font-variation-settings:normal;text-indent:0;text-align:start;text-decoration-line:none;text-decoration-style:solid;text-decoration-color:#000;text-transform:none;text-orientation:mixed;white-space:normal;shape-padding:0;shape-margin:0;inline-size:0;isolation:auto;mix-blend-mode:normal;solid-color:#000;solid-opacity:1" overflow="visible" fill="#f1e1d5"/>
    <path d="M32.822 0C14.8 0 .18 14.62.18 32.643c0 18.022 14.62 32.642 32.642 32.642 18.022 0 32.643-14.62 32.643-32.642C65.465 14.62 50.845 0 32.822 0zm0 1c17.482 0 31.643 14.16 31.643 31.643 0 17.481-14.161 31.642-31.643 31.642-17.481 0-31.642-14.16-31.642-31.642S15.34 1 32.822 1z" style="line-height:normal;font-variant-ligatures:normal;font-variant-position:normal;font-variant-caps:normal;font-variant-numeric:normal;font-variant-alternates:normal;font-variant-east-asian:normal;font-feature-settings:normal;font-variation-settings:normal;text-indent:0;text-align:start;text-decoration-line:none;text-decoration-style:solid;text-decoration-color:#000;text-transform:none;text-orientation:mixed;white-space:normal;shape-padding:0;shape-margin:0;inline-size:0;isolation:auto;mix-blend-mode:normal;solid-color:#000;solid-opacity:1" overflow="visible" fill="#fff"/>
  </g>
  <g color="#000" font-weight="400" font-family="sans-serif">
    <path d="M51.21 41.495c-.925-1.122-1.97-2.123-2.98-3.091-.356-.34-.724-.693-1.078-1.042-.476-.47-.709-.803-.733-1.05-.024-.241.14-.6.515-1.131a99.82 99.82 0 011.742-2.371c.516-.688 1.048-1.398 1.56-2.113l.114-.16c.996-1.395 2.027-2.838 2.58-4.596.157-.504.32-1.25-.075-1.904-.395-.655-1.127-.849-1.643-.938a4.102 4.102 0 00-.715-.047l-6.464-.006c-1.118-.019-1.893.517-2.315 1.593-.339.859-.738 1.855-1.2 2.8-.886 1.823-2.01 3.923-3.641 5.673l-.073.078c-.11.12-.292.316-.385.36-.177-.111-.38-.753-.371-1.09v-.025l-.006-7.554a.864.864 0 00-.007-.114c-.145-1.078-.428-2.158-2.115-2.495a.83.83 0 00-.164-.016h-6.724c-1.265 0-1.934.586-2.47 1.22-.156.186-.569.678-.358 1.279.212.608.846.73 1.054.77.733.14 1.112.559 1.23 1.36.231 1.555.26 3.22.089 5.235-.048.541-.136.952-.28 1.294a.996.996 0 01-.098.188.977.977 0 01-.182-.104c-.515-.356-.903-.91-1.279-1.446-1.499-2.14-2.76-4.504-3.855-7.227-.45-1.116-1.299-1.74-2.386-1.756a159.231 159.231 0 00-5.854.003c-.88.015-1.498.296-1.836.833-.338.539-.326 1.226.037 2.042 2.592 5.828 4.945 10.069 7.63 13.748 1.891 2.59 3.794 4.39 5.99 5.66 2.307 1.334 4.909 1.988 7.927 1.988.343 0 .692-.008 1.046-.025 1.862-.086 2.62-.835 2.703-2.67.046-.969.153-1.754.523-2.436.103-.191.22-.32.312-.343.098-.024.272.036.465.163.353.232.656.546.906.822.253.28.51.57.757.85a52.285 52.285 0 001.643 1.801c1.291 1.331 2.78 1.942 4.426 1.814l5.916.003.057-.002c.682-.046 1.272-.428 1.619-1.049.417-.747.41-1.693-.017-2.532-.447-.872-1.027-1.623-1.536-2.244zm.078 3.934c-.081.146-.182.172-.234.179l-5.915-.003c-.024 0-.047 0-.07.003-1.165.098-2.156-.316-3.114-1.303a51.028 51.028 0 01-1.588-1.743c-.25-.284-.51-.577-.77-.865-.323-.356-.722-.766-1.234-1.102-.768-.504-1.403-.489-1.802-.387-.394.1-.954.387-1.384 1.18-.557 1.027-.68 2.134-.73 3.18-.029.64-.136.81-.18.853-.059.056-.255.155-.908.185-3.138.15-5.772-.42-8.053-1.739-1.984-1.148-3.722-2.797-5.468-5.19-2.61-3.577-4.908-7.72-7.448-13.432a1.463 1.463 0 01-.129-.406 1.43 1.43 0 01.414-.054c1.848-.036 3.743-.037 5.796-.002.28.004.6.09.843.689 1.144 2.845 2.466 5.322 4.042 7.571.418.597.938 1.34 1.704 1.87.7.485 1.27.462 1.623.357.354-.105.845-.397 1.176-1.189.213-.51.342-1.085.406-1.812.183-2.155.15-3.947-.102-5.638-.177-1.21-.795-2.085-1.77-2.532.174-.091.368-.13.64-.13h6.636c.373.086.447.185.472.22.108.144.17.486.207.753l.005 7.484c-.014.718.33 2.309 1.504 2.745a.84.84 0 00.03.01c1.068.354 1.775-.41 2.155-.82l.067-.072c1.786-1.917 2.989-4.157 3.928-6.092.49-1 .905-2.034 1.255-2.925.176-.447.336-.52.717-.512h.015l6.473.006c.15 0 .308.002.43.023.308.053.435.117.477.144.004.05.003.193-.09.49-.47 1.496-1.377 2.765-2.337 4.11l-.115.16c-.5.7-1.026 1.402-1.536 2.081-.587.784-1.194 1.593-1.77 2.41-1.23 1.737-1.123 2.89.413 4.405.363.358.735.714 1.095 1.06 1.02.977 1.984 1.9 2.845 2.942.45.55.96 1.208 1.332 1.935.194.38.147.724.047.903z" style="line-height:normal;font-variant-ligatures:normal;font-variant-position:normal;font-variant-caps:normal;font-variant-numeric:normal;font-variant-alternates:normal;font-variant-east-asian:normal;font-feature-settings:normal;font-variation-settings:normal;text-indent:0;text-align:start;text-decoration-line:none;text-decoration-style:solid;text-decoration-color:#000;text-transform:none;text-orientation:mixed;white-space:normal;shape-padding:0;shape-margin:0;inline-size:0;isolation:auto;mix-blend-mode:normal;solid-color:#000;solid-opacity:1" overflow="visible" fill="#fff"/>
    <path d="M27.031 21.756c-1.42 0-2.28.722-2.851 1.398h-.002v.002c-.155.185-.751.89-.446 1.764.308.88 1.224 1.056 1.432 1.096.292.056.451.147.568.277.118.13.21.328.26.664v.002c.225 1.51.254 3.132.086 5.12-.024.27-.085.411-.129.607-.27-.278-.54-.548-.8-.92-1.476-2.107-2.718-4.434-3.801-7.127v-.002c-.509-1.258-1.569-2.049-2.842-2.069h-.002a159.699 159.699 0 00-5.871.004c-.982.018-1.808.363-2.25 1.067-.443.705-.4 1.604.004 2.511 2.6 5.85 4.972 10.125 7.683 13.84 1.92 2.63 3.879 4.487 6.143 5.797 2.387 1.381 5.087 2.057 8.178 2.057.351 0 .708-.01 1.07-.028.995-.045 1.792-.274 2.346-.822.554-.547.787-1.34.832-2.322.045-.946.15-1.644.463-2.22v-.003c.006-.013.01-.014.017-.025.019.01.027.012.047.025.29.19.568.474.809.74.25.278.506.566.754.846.527.596 1.076 1.22 1.658 1.819 1.372 1.414 3.032 2.102 4.824 1.962l-.04.002 5.917.004a2.513 2.513 0 002.113-1.307c.506-.905.487-2.03-.01-3.003-.473-.925-1.076-1.704-1.593-2.334l-.002-.002c-.95-1.152-2.01-2.165-3.022-3.133-.354-.34-.719-.69-1.068-1.035l-.002-.002c-.45-.444-.59-.763-.588-.742.003.028.072-.294.426-.793v-.002h.002a99.502 99.502 0 011.732-2.36c.516-.687 1.051-1.4 1.567-2.12l.113-.16v-.003c.996-1.394 2.068-2.882 2.65-4.734v-.002c.17-.544.39-1.46-.123-2.31-.514-.852-1.428-1.076-1.986-1.173-.3-.052-.571-.054-.799-.054l-6.457-.006c-1.281-.022-2.311.691-2.789 1.908-.337.857-.732 1.842-1.184 2.764v.002c-.862 1.776-1.955 3.78-3.482 5.45-.012-.068-.04-.167-.04-.192v-.004l.003-.04-.006-7.554c0-.061-.006-.122-.014-.182-.075-.56-.186-1.18-.558-1.736-.373-.555-1.014-.994-1.951-1.182h-.002a1.338 1.338 0 00-.262-.025H27.03zm0 1h6.725c.023 0 .046.002.066.006.748.149 1.092.42 1.319.758.226.337.328.796.398 1.314a.346.346 0 01.004.047l.006 7.555V32.445c-.008.278.054.542.14.801.043.13.093.254.157.371.063.117.115.235.304.356l.235.148.252-.119c.188-.09.235-.165.318-.246.082-.081.16-.165.215-.225l.002-.002.07-.076c1.688-1.811 2.833-3.958 3.725-5.795v-.002c.473-.966.878-1.973 1.217-2.834.367-.934.887-1.291 1.841-1.275h.004l6.469.006c.217 0 .425.003.629.039.474.081 1.024.245 1.3.703.277.458.17 1.034.024 1.498-.522 1.662-1.511 3.059-2.508 4.453l-.115.16c-.506.709-1.037 1.417-1.553 2.104-.58.773-1.181 1.576-1.75 2.383h.002c-.398.561-.656.956-.605 1.468.05.513.376.86.877 1.354l.002.002.146.144h.002c.311.305.628.61.934.903v.002c1.01.968 2.04 1.955 2.941 3.047.502.612 1.057 1.334 1.477 2.154.36.705.356 1.472.027 2.06-.271.486-.7.759-1.217.793h-.002l-.021.002-5.936-.004-.02.002c-1.5.117-2.816-.416-4.027-1.664-.56-.577-1.1-1.187-1.626-1.783-.248-.28-.506-.57-.762-.853v-.002c-.259-.286-.586-.631-1.002-.905a1.71 1.71 0 00-.377-.191.759.759 0 00-.484-.037h-.002a.74.74 0 00-.399.256c-.09.099-.163.208-.23.332-.428.788-.535 1.659-.582 2.652v.002c-.039.851-.227 1.35-.537 1.656-.311.307-.823.495-1.69.535-.346.017-.688.026-1.023.026-2.946 0-5.449-.634-7.676-1.922-2.127-1.23-3.975-2.971-5.836-5.522-2.66-3.644-4.995-7.848-7.578-13.656-.322-.725-.304-1.2-.07-1.572.233-.372.642-.586 1.421-.6 1.861-.036 3.77-.038 5.836-.004h.002c.9.014 1.536.47 1.93 1.444 1.107 2.754 2.385 5.154 3.908 7.328.375.535.787 1.14 1.404 1.568.11.076.2.125.278.156l.369.15.228-.323c.05-.07.101-.16.153-.284.17-.405.264-.87.314-1.443v-.002c.173-2.042.147-3.749-.092-5.35v-.001c-.068-.464-.223-.875-.507-1.19-.285-.315-.682-.503-1.123-.588-.208-.04-.559-.107-.676-.443-.115-.329.112-.606.267-.791.502-.595.977-1.043 2.088-1.043zm0 .715c-.317 0-.612.049-.87.185l-.9.475.925.422c.822.377 1.324 1.07 1.482 2.15v.002c.245 1.646.28 3.394.1 5.522-.061.69-.18 1.209-.37 1.662h-.002c-.28.67-.622.833-.855.902-.233.07-.607.12-1.197-.289-.673-.465-1.16-1.15-1.578-1.746-1.552-2.216-2.857-4.656-3.989-7.47-.146-.364-.345-.633-.593-.798a1.304 1.304 0 00-.705-.205c-2.058-.034-3.96-.034-5.815.002-.26.005-.436.039-.56.08l-.387.13.047.403c.015.131.062.307.17.55 2.549 5.732 4.863 9.911 7.5 13.525 1.774 2.43 3.566 4.14 5.62 5.328 2.372 1.372 5.117 1.957 8.329 1.804.699-.032.982-.085 1.23-.324.231-.221.303-.498.334-1.19.05-1.023.17-2.043.67-2.964.368-.678.785-.863 1.069-.936.286-.073.744-.109 1.402.323v-.002c.456.3.826.675 1.139 1.021.257.286.515.576.765.86.514.581 1.05 1.188 1.604 1.76 1.029 1.06 2.21 1.562 3.515 1.452H45.14l5.945.002.031-.003a.93.93 0 00.61-.432c.2-.358.227-.855-.038-1.373h-.001c-.401-.783-.934-1.468-1.391-2.026-.885-1.072-1.864-2.008-2.885-2.986-.36-.344-.73-.7-1.09-1.055-.727-.717-1.048-1.279-1.097-1.808-.05-.53.159-1.131.74-1.951h.002c.57-.81 1.174-1.616 1.762-2.399.509-.68 1.039-1.385 1.543-2.09l.113-.16c.96-1.344 1.908-2.657 2.408-4.25.107-.34.124-.545.111-.685l-.021-.244-.207-.133c-.122-.078-.31-.154-.662-.215-.188-.033-.36-.031-.514-.031h-.002l-6.47-.006h-.008c-.224-.005-.485.01-.723.17-.24.16-.366.397-.469.66h.002c-.35.889-.761 1.91-1.24 2.887v.002c-.933 1.92-2.114 4.111-3.844 5.968v.002l-.068.072h-.002c-.19.205-.425.452-.694.6-.268.149-.536.219-.937.086l-.012-.004c-.416-.154-.714-.53-.912-.994-.198-.464-.271-1-.265-1.272v-.005l-.006-7.526-.004-.033a4.868 4.868 0 00-.088-.473c-.04-.164-.074-.322-.213-.51v-.001a1.1 1.1 0 00-.256-.223 1.775 1.775 0 00-.508-.184l-.054-.011H27.03zm.56 1H33.6c.08.022.133.04.15.049 0 .006.014.033.035.119.025.1.046.225.063.341l.006 7.436c-.01.446.08 1.063.345 1.684.265.62.727 1.259 1.485 1.54l.046.016c.667.22 1.288.087 1.735-.16.447-.247.753-.59.943-.795l.067-.072c1.841-1.977 3.065-4.263 4.011-6.213v-.002c.5-1.021.92-2.066 1.272-2.959.072-.184.114-.207.094-.193-.02.013-.01-.006.146-.002h.025l6.473.006a2.8 2.8 0 01.336.015c-.44 1.393-1.303 2.62-2.262 3.961l-.115.16c-.494.692-1.02 1.393-1.53 2.073-.587.783-1.197 1.596-1.779 2.421-.648.916-1 1.76-.92 2.62.081.86.584 1.631 1.393 2.43.366.36.74.72 1.1 1.064 1.02.977 1.969 1.887 2.804 2.9.443.54.93 1.174 1.274 1.844.101.198.058.301.045.353l-5.703-.002c-.035 0-.073.001-.112.004-1.024.087-1.826-.238-2.713-1.152-.532-.548-1.058-1.145-1.572-1.727-.25-.283-.51-.578-.773-.869h-.002c-.333-.367-.762-.81-1.33-1.183v-.002c-.877-.576-1.69-.583-2.2-.453-.504.128-1.206.518-1.699 1.427-.614 1.132-.74 2.326-.79 3.395v.002c-.027.588-.17.65-.028.514.131-.127.023.018-.584.046-3.065.146-5.589-.406-7.78-1.673-1.913-1.108-3.596-2.698-5.314-5.051-2.543-3.484-4.795-7.549-7.277-13.098 1.757-.03 3.55-.035 5.498-.002.093.002.123.009.166.037.043.029.125.102.22.338 1.157 2.876 2.497 5.39 4.096 7.672.419.597.972 1.4 1.83 1.994.811.562 1.575.567 2.05.426.474-.14 1.114-.562 1.495-1.477.238-.567.377-1.198.444-1.96v-.002c.185-2.184.153-4.017-.106-5.752-.126-.86-.538-1.53-1.066-2.088z" style="line-height:normal;font-variant-ligatures:normal;font-variant-position:normal;font-variant-caps:normal;font-variant-numeric:normal;font-variant-alternates:normal;font-variant-east-asian:normal;font-feature-settings:normal;font-variation-settings:normal;text-indent:0;text-align:start;text-decoration-line:none;text-decoration-style:solid;text-decoration-color:#000;text-transform:none;text-orientation:mixed;white-space:normal;shape-padding:0;shape-margin:0;inline-size:0;isolation:auto;mix-blend-mode:normal;solid-color:#000;solid-opacity:1" overflow="visible"/>
  </g>
</svg>