<svg fill="none" viewBox="0 0 66 66" xmlns="http://www.w3.org/2000/svg">
  <circle cx="33.19" cy="32.643" r="32.143" fill="#F1E1D5" stroke="#fff"/>
  <path d="M47.889 19.468h-.001L16.584 32.343c-.587.243-1.006.835-1.085 1.555-.077.717.201 1.407.714 1.801h0l4.475 3.477h0c.402.312.914.345 1.342.087h0l9.707-5.825.116.162-7.565 6.429s0 0 0 0c-.33.28-.532.734-.532 1.211v5.955c0 .584.281 1.112.725 1.384.441.27.973.245 1.394-.071l22.014-29.04zm0 0c.445-.187.951-.035 1.261.395a1.47 1.47 0 01.093 1.526h0L35.08 47.97s0 0 0 0c-.243.442-.636.752-1.075.856a1.45 1.45 0 01-.333.04c-.33 0-.657-.113-.932-.329h0l-3.344-2.594-.06-.047-.061.046-3.4 2.566 22.014-29.04zM33.535 46.651l.093.072.056-.104 12.907-24.223.131-.245-.257.106-28.827 11.856-.16.065.137.106 3.785 2.94.054.043.059-.035L37.562 27.6l-.051-.085.051.085c.605-.363 1.34-.146 1.714.526.376.678.231 1.548-.326 2.022L25.592 41.5l-.035.03V46.266l.16-.12 2.902-2.192h0a1.19 1.19 0 01.72-.249c.255 0 .51.086.735.26h0l3.462 2.687z" fill="#fff" stroke="#F1E1D5" stroke-width=".2"/>
</svg>