<svg viewBox="0 0 66 66" fill="none" xmlns="http://www.w3.org/2000/svg">
  <circle cx="33.01" cy="32.643" r="32.143" fill="#F1E1D5" stroke="#fff"/>
  <g clip-path="url(#clip0)" fill="#fff">
    <path d="M39.412 17.805h-14.29c-4.65 0-8.434 3.783-8.434 8.434v14.29c0 4.65 3.783 8.434 8.434 8.434h14.29c4.65 0 8.434-3.783 8.434-8.434V26.24c0-4.65-3.783-8.434-8.434-8.434zm6.608 22.724a6.615 6.615 0 01-6.608 6.608h-14.29a6.615 6.615 0 01-6.608-6.608V26.24a6.615 6.615 0 016.608-6.608h14.29a6.615 6.615 0 016.608 6.608v14.29z"/>
    <path d="M32.266 24.863c-4.698 0-8.52 3.822-8.52 8.52 0 4.698 3.822 8.52 8.52 8.52 4.698 0 8.52-3.822 8.52-8.52 0-4.698-3.822-8.52-8.52-8.52zm0 15.213a6.7 6.7 0 01-6.693-6.693 6.7 6.7 0 016.693-6.693 6.7 6.7 0 016.693 6.693 6.7 6.7 0 01-6.693 6.693zM40.99 21.838a2.52 2.52 0 00-2.517 2.517 2.52 2.52 0 002.517 2.518 2.52 2.52 0 002.518-2.518 2.52 2.52 0 00-2.518-2.517zm0 3.208a.692.692 0 11.002-1.383.692.692 0 01-.002 1.383z"/>
  </g>
  <defs>
    <clipPath id="clip0">
      <path fill="#fff" transform="translate(16.688 17.805)" d="M0 0h31.159v31.159H0z"/>
    </clipPath>
  </defs>
</svg>