<svg viewBox="0 0 66 66" xmlns="http://www.w3.org/2000/svg" fill="none">
  <g color="#000" font-weight="400" font-family="sans-serif">
    <path d="M32.643.5C14.89.5.5 14.89.5 32.643c0 17.751 14.39 32.142 32.143 32.142 17.751 0 32.142-14.39 32.142-32.142C64.785 14.89 50.395.5 32.643.5z" style="line-height:normal;font-variant-ligatures:normal;font-variant-position:normal;font-variant-caps:normal;font-variant-numeric:normal;font-variant-alternates:normal;font-variant-east-asian:normal;font-feature-settings:normal;font-variation-settings:normal;text-indent:0;text-align:start;text-decoration-line:none;text-decoration-style:solid;text-decoration-color:#000;text-transform:none;text-orientation:mixed;white-space:normal;shape-padding:0;shape-margin:0;inline-size:0;isolation:auto;mix-blend-mode:normal;solid-color:#000;solid-opacity:1" overflow="visible" fill="#F1E1D5"/>
    <path style="line-height:normal;font-variant-ligatures:normal;font-variant-position:normal;font-variant-caps:normal;font-variant-numeric:normal;font-variant-alternates:normal;font-variant-east-asian:normal;font-feature-settings:normal;font-variation-settings:normal;text-indent:0;text-align:start;text-decoration-line:none;text-decoration-style:solid;text-decoration-color:#000;text-transform:none;text-orientation:mixed;white-space:normal;shape-padding:0;shape-margin:0;inline-size:0;isolation:auto;mix-blend-mode:normal;solid-color:#000;solid-opacity:1" d="M32.643 0C14.62 0 0 14.62 0 32.643c0 18.022 14.62 32.642 32.643 32.642 18.022 0 32.642-14.62 32.642-32.642C65.285 14.62 50.665 0 32.643 0zm0 1c17.481 0 31.642 14.16 31.642 31.643 0 17.481-14.16 31.642-31.642 31.642S1 50.125 1 32.643 15.16 1 32.643 1z" overflow="visible" fill="#fff"/>
  </g>
  <g clip-path="url(#clip0)">
    <g color="#000" font-weight="400" font-family="sans-serif">
      <path d="M29.252 16.322c-7.104 0-12.885 5.778-12.885 12.881v6.111c0 5.29 3.251 10.043 8.139 11.979v3.96a.678.678 0 001.133.503l3.931-3.56h6.463c7.105 0 12.885-5.779 12.885-12.882v-6.11c0-7.104-5.78-12.882-12.885-12.882h-6.781zm0 1.356h6.781c6.357 0 11.53 5.17 11.53 11.525v6.111c0 6.355-5.173 11.524-11.53 11.524H29.31a.677.677 0 00-.455.176l-2.993 2.71v-2.902a.677.677 0 00-.453-.638 11.547 11.547 0 01-7.685-10.87v-6.11c0-6.356 5.173-11.526 11.529-11.526zm4.3 3.765a.678.678 0 00-.103 1.327c4.041 1.149 7.26 4.376 8.4 8.42a.678.678 0 101.307-.37c-1.267-4.494-4.845-8.077-9.336-9.355a.668.668 0 00-.267-.022zm-7.14 1.662a.678.678 0 00-.492.165l-2.047 1.779c-1.796 1.56-.958 3.87-.682 4.629a.672.672 0 00.045.097c.072.128 1.772 3.163 4.518 5.96 2.757 2.808 7.732 5.4 7.885 5.476a3.395 3.395 0 004.691-.996l1.477-2.276a.68.68 0 00-.2-.939l-4.168-2.707a2.031 2.031 0 00-2.814.598l-.197.3c-1.804-.596-3.792-1.357-4.983-4.804l.492-.43a2.036 2.036 0 00.2-2.87l-3.26-3.751a.675.675 0 00-.465-.23zm7.434 1.497a.678.678 0 00-.104 1.326 7.246 7.246 0 014.96 4.968.68.68 0 001.304-.369 8.61 8.61 0 00-5.893-5.904.666.666 0 00-.267-.021zm-7.547.136l2.814 3.239a.671.671 0 01-.064.957l-.832.722a.68.68 0 00-.203.713c1.418 4.61 4.177 5.515 6.191 6.176l.293.098a.676.676 0 00.783-.274l.48-.74a.672.672 0 01.938-.2l3.6 2.339-1.108 1.707c-.61.94-1.874 1.209-2.87.566-.05-.026-4.994-2.6-7.6-5.256-2.436-2.481-4.053-5.238-4.274-5.623-.537-1.506-.442-2.432.315-3.09l1.537-1.334zm7.625 2.582a.677.677 0 00-.104 1.325 3.07 3.07 0 012.102 2.105.679.679 0 001.305-.367 4.434 4.434 0 00-3.036-3.041.669.669 0 00-.267-.022z" style="line-height:normal;font-variant-ligatures:normal;font-variant-position:normal;font-variant-caps:normal;font-variant-numeric:normal;font-variant-alternates:normal;font-variant-east-asian:normal;font-feature-settings:normal;font-variation-settings:normal;text-indent:0;text-align:start;text-decoration-line:none;text-decoration-style:solid;text-decoration-color:#000;text-transform:none;text-orientation:mixed;white-space:normal;shape-padding:0;shape-margin:0;inline-size:0;isolation:auto;mix-blend-mode:normal;solid-color:#000;solid-opacity:1" overflow="visible" fill="#fff"/>
      <path style="line-height:normal;font-variant-ligatures:normal;font-variant-position:normal;font-variant-caps:normal;font-variant-numeric:normal;font-variant-alternates:normal;font-variant-east-asian:normal;font-feature-settings:normal;font-variation-settings:normal;text-indent:0;text-align:start;text-decoration-line:none;text-decoration-style:solid;text-decoration-color:#000;text-transform:none;text-orientation:mixed;white-space:normal;shape-padding:0;shape-margin:0;inline-size:0;isolation:auto;mix-blend-mode:normal;solid-color:#000;solid-opacity:1" d="M29.252 15.822c-7.375 0-13.385 6.007-13.385 13.381v6.111c0 5.37 3.253 10.166 8.139 12.26v3.68a1.181 1.181 0 001.178 1.178c.287 0 .57-.104.79-.305l3.79-3.432h6.27c7.375 0 13.384-6.006 13.384-13.38v-6.112c0-7.374-6.01-13.38-13.385-13.38zm0 1h6.781c6.833 0 12.385 5.55 12.385 12.381v6.111c0 6.832-5.552 12.381-12.385 12.381H29.38l-4.076 3.692H25.3a.173.173 0 01-.117.045.176.176 0 01-.073-.014v-.002a.173.173 0 01-.105-.162v-4.3l-.317-.126a12.404 12.404 0 01-7.822-11.514v-6.11c0-6.833 5.552-12.382 12.385-12.382zm0 .356c-6.627 0-12.03 5.399-12.03 12.025v6.111a12.05 12.05 0 008.02 11.342h.002a.171.171 0 01.117.166v4.03l3.828-3.467a.176.176 0 01.12-.047h6.724c6.628 0 12.03-5.397 12.03-12.024v-6.11c0-6.627-5.402-12.026-12.03-12.026zm0 1h6.781c6.086 0 11.03 4.941 11.03 11.025v6.111c0 6.084-4.944 11.024-11.03 11.024H29.31c-.292 0-.575.11-.791.307l-2.157 1.953v-1.776c0-.497-.316-.944-.787-1.11a11.048 11.048 0 01-7.351-10.398v-6.11c0-6.085 4.944-11.026 11.029-11.026z" overflow="visible"/>
    </g>
    <path d="M26.447 22.61a1.179 1.179 0 00-.855.28v.003l-2.047 1.779c-1.02.886-1.311 2.036-1.29 3.004.023.967.328 1.794.466 2.174.021.059.049.115.078.168v.002c.075.135 1.797 3.212 4.597 6.064 1.43 1.457 3.385 2.818 5.01 3.838a49.06 49.06 0 003.012 1.738l-.05-.03c.65.423 1.387.628 2.112.628a3.897 3.897 0 003.268-1.772l1.479-2.275a1.187 1.187 0 00-.348-1.629l-4.168-2.707a2.539 2.539 0 00-1.902-.357h-.002c-.63.132-1.161.526-1.53 1.052-1.608-.543-3.148-1.242-4.218-4.054l.207-.18a2.545 2.545 0 00.25-3.576h-.002l-3.26-3.75a1.174 1.174 0 00-.807-.4zm-.2 1.036a.172.172 0 01.251.018h.002l3.26 3.752a1.53 1.53 0 01-.15 2.164l-.749.65.112.32c1.24 3.589 3.478 4.515 5.298 5.116l.366.121.406-.625h.002c.225-.348.562-.58.965-.666.406-.084.81-.009 1.156.217l4.168 2.707c.088.057.11.158.053.248l-1.477 2.273a2.89 2.89 0 01-3.998.85l-.025-.016-.026-.013c.018.008-.361-.185-.886-.479-.526-.294-1.24-.71-2.036-1.209-1.59-.998-3.503-2.338-4.83-3.69-2.69-2.739-4.367-5.726-4.435-5.849l-.002-.002c-.005-.009-.007-.018-.01-.025-.138-.38-.39-1.089-.408-1.856-.018-.767.17-1.551.947-2.226l2.045-1.78zm.1.387l-1.913 1.662a2.353 2.353 0 00-.811 1.553c-.063.615.071 1.29.354 2.082l.015.043.022.04c.232.405 1.863 3.187 4.351 5.722 2.696 2.746 7.58 5.27 7.686 5.326 1.211.781 2.801.456 3.56-.713l1.381-2.127-4.02-2.61a1.184 1.184 0 00-.888-.165c-.301.064-.571.249-.74.51l-.483.74a.17.17 0 01-.203.072h-.002l-.295-.098c-1.007-.33-2.126-.703-3.166-1.525s-2.02-2.098-2.705-4.324a.176.176 0 01.055-.186l.832-.724a1.19 1.19 0 00.113-1.663l-3.142-3.615zm-.099 1.41l2.488 2.862c.08.09.073.175-.015.252l-.832.722a1.18 1.18 0 00-.354 1.237c.734 2.383 1.843 3.866 3.041 4.814s2.464 1.359 3.47 1.69l.292.095a1.182 1.182 0 001.363-.474l.48-.74v-.003a.16.16 0 01.112-.076h.002a.16.16 0 01.133.028l3.18 2.066-.837 1.287c-.463.714-1.397.923-2.18.418l-.019-.014-.02-.01c-.059-.03-4.976-2.617-7.474-5.161-2.354-2.399-3.926-5.057-4.166-5.473-.243-.694-.334-1.232-.295-1.613.04-.39.174-.64.473-.899l1.158-1.008z" style="line-height:normal;font-variant-ligatures:normal;font-variant-position:normal;font-variant-caps:normal;font-variant-numeric:normal;font-variant-alternates:normal;font-variant-east-asian:normal;font-feature-settings:normal;font-variation-settings:normal;text-indent:0;text-align:start;text-decoration-line:none;text-decoration-style:solid;text-decoration-color:#000;text-transform:none;text-orientation:mixed;white-space:normal;shape-padding:0;shape-margin:0;inline-size:0;isolation:auto;mix-blend-mode:normal;solid-color:#000;solid-opacity:1" color="#000" font-weight="400" font-family="sans-serif" overflow="visible"/>
    <path d="M34.33 26.861c-.62-.178-1.28.19-1.457.809-.176.62.19 1.28.81 1.457.842.24 1.52.916 1.756 1.758v.002a1.182 1.182 0 001.452.814h.004c.62-.175.987-.834.812-1.455a4.926 4.926 0 00-3.377-3.385zm-.275.961a3.942 3.942 0 012.691 2.696c.028.1-.026.19-.125.218a.176.176 0 01-.219-.121 3.563 3.563 0 00-2.445-2.45.17.17 0 01-.121-.22v-.002a.168.168 0 01.219-.12z" style="line-height:normal;font-variant-ligatures:normal;font-variant-position:normal;font-variant-caps:normal;font-variant-numeric:normal;font-variant-alternates:normal;font-variant-east-asian:normal;font-feature-settings:normal;font-variation-settings:normal;text-indent:0;text-align:start;text-decoration-line:none;text-decoration-style:solid;text-decoration-color:#000;text-transform:none;text-orientation:mixed;white-space:normal;shape-padding:0;shape-margin:0;inline-size:0;isolation:auto;mix-blend-mode:normal;solid-color:#000;solid-opacity:1" color="#000" font-weight="400" font-family="sans-serif" overflow="visible"/>
    <path d="M34.252 24.143c-.622-.18-1.28.19-1.457.81-.176.62.19 1.279.81 1.455a6.751 6.751 0 014.614 4.623v.002a1.185 1.185 0 001.45.815h.003l.002-.002c.62-.175.988-.833.812-1.453a9.105 9.105 0 00-6.234-6.25zm-.277.96h.002a8.12 8.12 0 015.548 5.561.17.17 0 01-.123.219.176.176 0 01-.22-.123 7.74 7.74 0 00-5.303-5.315.17.17 0 01-.121-.218c.028-.101.118-.152.217-.123z" style="line-height:normal;font-variant-ligatures:normal;font-variant-position:normal;font-variant-caps:normal;font-variant-numeric:normal;font-variant-alternates:normal;font-variant-east-asian:normal;font-feature-settings:normal;font-variation-settings:normal;text-indent:0;text-align:start;text-decoration-line:none;text-decoration-style:solid;text-decoration-color:#000;text-transform:none;text-orientation:mixed;white-space:normal;shape-padding:0;shape-margin:0;inline-size:0;isolation:auto;mix-blend-mode:normal;solid-color:#000;solid-opacity:1" color="#000" font-weight="400" font-family="sans-serif" overflow="visible"/>
    <path d="M33.959 20.982v.002a1.184 1.184 0 00-1.457.81c-.176.62.19 1.28.81 1.456 3.872 1.101 6.964 4.2 8.057 8.074a1.181 1.181 0 001.451.817l.002-.002c.62-.176.99-.833.815-1.453-1.316-4.664-5.018-8.377-9.678-9.704zm-.275.963c4.32 1.23 7.77 4.688 8.99 9.012.028.1-.024.19-.123.219a.175.175 0 01-.219-.123 12.772 12.772 0 00-8.746-8.766.17.17 0 01-.121-.219c.029-.102.118-.152.219-.123z" style="line-height:normal;font-variant-ligatures:normal;font-variant-position:normal;font-variant-caps:normal;font-variant-numeric:normal;font-variant-alternates:normal;font-variant-east-asian:normal;font-feature-settings:normal;font-variation-settings:normal;text-indent:0;text-align:start;text-decoration-line:none;text-decoration-style:solid;text-decoration-color:#000;text-transform:none;text-orientation:mixed;white-space:normal;shape-padding:0;shape-margin:0;inline-size:0;isolation:auto;mix-blend-mode:normal;solid-color:#000;solid-opacity:1" color="#000" font-weight="400" font-family="sans-serif" overflow="visible"/>
  </g>
  <defs id="defs19">
    <clipPath id="clip0">
      <path fill="#fff" transform="translate(14.836 16.322)" id="rect16" d="M0 0h35.61v35.61H0z"/>
    </clipPath>
  </defs>
</svg>